SplineFontDB: 3.2
FontName: runeform
FullName: runeform
FamilyName: Runeform
Weight: Regular
Copyright: 
Version: 
ItalicAngle: 0
UnderlinePosition: 0
UnderlineWidth: 0
Ascent: 972
Descent: 52
InvalidEm: 0
LayerCount: 2
Layer: 0 0 "Back" 1
Layer: 1 0 "Fore" 0
HasVMetrics: 1
XUID: [1021 24 -318597700 4686]
OS2Version: 0
OS2_WeightWidthSlopeOnly: 0
OS2_UseTypoMetrics: 0
CreationTime: 1705008450
ModificationTime: 1705009253
PfmFamily: 17
TTFWeight: 400
TTFWidth: 5
LineGap: 92
VLineGap: 92
OS2TypoAscent: 0
OS2TypoAOffset: 1
OS2TypoDescent: 0
OS2TypoDOffset: 1
OS2TypoLinegap: 92
OS2WinAscent: 0
OS2WinAOffset: 1
OS2WinDescent: 0
OS2WinDOffset: 1
HheadAscent: 0
HheadAOffset: 1
HheadDescent: 0
HheadDOffset: 1
OS2Vendor: 'PfEd'
Lookup: 4 0 1 "'liga' Standard Ligatures in Latin lookup 0" { "'liga' Standard Ligatures in Latin lookup 0 subtable"  } ['liga' ('latn' <'dflt' > ) ]
Lookup: 4 0 1 "'liga' Standard Ligatures lookup 0" { "'liga' Standard Ligatures lookup 0 subtable"  } ['liga' ('DFLT' <'dflt' > ) ]
Lookup: 260 0 0 "'mark' Mark Positioning in Latin lookup 0" { "'mark' Mark Positioning in Latin lookup 0-1"  } ['mark' ('DFLT' <'dflt' > 'latn' <'dflt' > ) ]
MarkAttachClasses: 1
DEI: 91125
Encoding: Original
UnicodeInterp: none
NameList: AGL For New Fonts
DisplaySize: -48
AntiAlias: 1
FitToEm: 0
WinInfo: 0 25 17
BeginPrivate: 0
EndPrivate
AnchorClass2: "accent" "'mark' Mark Positioning in Latin lookup 0-1" "anchor""" 
BeginChars: 1135 1134

StartChar: .notdef
Encoding: 0 0 0
Width: 1024
VWidth: 904
LayerCount: 2
Fore
SplineSet
0 -120 m 1
 1000 -120 l 1
 1000 904 l 1
 0 904 l 1
 0 -120 l 1
EndSplineSet
Validated: 9
EndChar

StartChar: accent
Encoding: 2 39 2
Width: 1024
VWidth: 904
Flags: W
AnchorPoint: "accent" 0 -120 mark 0
LayerCount: 2
Fore
SplineSet
961.401367188 597.620117188 m 0
 947.608398438 583.826171875 925.399414062 583.826171875 911.60546875 597.620117188 c 2
 717.620117188 791.60546875 l 2
 703.826171875 805.399414062 703.826171875 827.608398438 717.620117188 841.401367188 c 0
 731.413085938 855.1953125 753.622070312 855.1953125 767.416015625 841.401367188 c 2
 961.401367188 647.416015625 l 2
 975.1953125 633.622070312 975.1953125 611.413085938 961.401367188 597.620117188 c 0
EndSplineSet
Validated: 524321
EndChar

StartChar: accentaccent
Encoding: 3 -1 3
Width: 1024
VWidth: 904
Flags: W
AnchorPoint: "accent" 0 -120 mark 0
LayerCount: 2
Fore
SplineSet
961.401367188 597.620117188 m 0
 947.608398438 583.826171875 925.399414062 583.826171875 911.60546875 597.620117188 c 2
 717.620117188 791.60546875 l 2
 703.826171875 805.399414062 703.826171875 827.608398438 717.620117188 841.401367188 c 0
 731.413085938 855.1953125 753.622070312 855.1953125 767.416015625 841.401367188 c 2
 961.401367188 647.416015625 l 2
 975.1953125 633.622070312 975.1953125 611.413085938 961.401367188 597.620117188 c 0
877.278320312 513.497070312 m 0
 863.485351562 499.703125 841.276367188 499.703125 827.482421875 513.497070312 c 2
 633.497070312 707.482421875 l 2
 619.703125 721.276367188 619.703125 743.485351562 633.497070312 757.278320312 c 0
 647.290039062 771.072265625 669.499023438 771.072265625 683.29296875 757.278320312 c 2
 877.278320312 563.29296875 l 2
 891.072265625 549.499023438 891.072265625 527.290039062 877.278320312 513.497070312 c 0
EndSplineSet
Validated: 524321
Ligature2: "'liga' Standard Ligatures in Latin lookup 0 subtable" accent accent
LCarets2: 1 0
EndChar

StartChar: accentaccentaccent
Encoding: 4 -1 4
Width: 1024
VWidth: 904
Flags: W
AnchorPoint: "accent" 0 -120 mark 0
LayerCount: 2
Fore
SplineSet
961.401367188 597.620117188 m 0
 947.608398438 583.826171875 925.399414062 583.826171875 911.60546875 597.620117188 c 2
 717.620117188 791.60546875 l 2
 703.826171875 805.399414062 703.826171875 827.608398438 717.620117188 841.401367188 c 0
 731.413085938 855.1953125 753.622070312 855.1953125 767.416015625 841.401367188 c 2
 961.401367188 647.416015625 l 2
 975.1953125 633.622070312 975.1953125 611.413085938 961.401367188 597.620117188 c 0
877.278320312 513.497070312 m 0
 863.485351562 499.703125 841.276367188 499.703125 827.482421875 513.497070312 c 2
 633.497070312 707.482421875 l 2
 619.703125 721.276367188 619.703125 743.485351562 633.497070312 757.278320312 c 0
 647.290039062 771.072265625 669.499023438 771.072265625 683.29296875 757.278320312 c 2
 877.278320312 563.29296875 l 2
 891.072265625 549.499023438 891.072265625 527.290039062 877.278320312 513.497070312 c 0
793.155273438 429.374023438 m 0
 779.362304688 415.580078125 757.153320312 415.580078125 743.359375 429.374023438 c 2
 549.374023438 623.359375 l 2
 535.580078125 637.153320312 535.580078125 659.362304688 549.374023438 673.155273438 c 0
 563.16796875 686.94921875 585.375976562 686.94921875 599.169921875 673.155273438 c 2
 793.155273438 479.169921875 l 2
 806.94921875 465.376953125 806.94921875 443.16796875 793.155273438 429.374023438 c 0
EndSplineSet
Validated: 524321
Ligature2: "'liga' Standard Ligatures in Latin lookup 0 subtable" accent accent accent
LCarets2: 2 0 0
EndChar

StartChar: dash
Encoding: 5 45 5
Width: 1024
VWidth: 904
Flags: W
HStem: 352 80<320.539 703.461>
AnchorPoint: "accent" 0 -120 basechar 0
LayerCount: 2
Fore
SplineSet
707.82421875 392 m 0
 707.82421875 369.83984375 689.984375 352 667.82421875 352 c 2
 356.17578125 352 l 2
 334.015625 352 316.17578125 369.83984375 316.17578125 392 c 0
 316.17578125 414.16015625 334.015625 432 356.17578125 432 c 2
 667.82421875 432 l 2
 689.984375 432 707.82421875 414.16015625 707.82421875 392 c 0
EndSplineSet
Validated: 524289
EndChar

StartChar: a
Encoding: 6 97 6
Width: 1024
VWidth: 904
Flags: W
VStem: 230.127 80<442.412 825.335>
AnchorPoint: "accent" 0 -120 basechar 0
LayerCount: 2
Fore
SplineSet
270.126953125 829.698242188 m 0
 292.287109375 829.698242188 310.126953125 811.857421875 310.126953125 789.698242188 c 2
 310.126953125 478.048828125 l 2
 310.126953125 455.888671875 292.287109375 438.048828125 270.126953125 438.048828125 c 0
 247.966796875 438.048828125 230.126953125 455.888671875 230.126953125 478.048828125 c 2
 230.126953125 789.698242188 l 2
 230.126953125 811.857421875 247.966796875 829.698242188 270.126953125 829.698242188 c 0
EndSplineSet
Validated: 524289
EndChar

StartChar: i
Encoding: 7 105 7
Width: 1024
VWidth: 904
Flags: W
AnchorPoint: "accent" 0 -120 basechar 0
LayerCount: 2
Fore
SplineSet
408.595703125 772.341796875 m 0
 424.264648438 756.672851562 424.264648438 731.443359375 408.595703125 715.7734375 c 2
 188.2265625 495.404296875 l 2
 172.556640625 479.735351562 147.327148438 479.735351562 131.658203125 495.404296875 c 0
 115.98828125 511.07421875 115.98828125 536.303710938 131.658203125 551.97265625 c 2
 352.02734375 772.341796875 l 2
 367.696289062 788.01171875 392.92578125 788.01171875 408.595703125 772.341796875 c 0
EndSplineSet
Validated: 524321
EndChar

StartChar: m
Encoding: 8 109 8
Width: 1024
VWidth: 904
Flags: W
HStem: 110.127 80<562.412 945.335> 416.001 80<132.381 157.109 383.143 407.871> 771.747 80<132.381 157.109 383.143 407.871>
VStem: 52.2529 80<496.129 520.857 746.891 771.619> 230.127 80<-41.3349 341.588> 407.999 80<496.129 520.857 746.891 771.619>
AnchorPoint: "accent" 0 -120 basechar 0
LayerCount: 2
Fore
SplineSet
949.698242188 150.126953125 m 0
 949.698242188 127.966796875 931.857421875 110.126953125 909.698242188 110.126953125 c 2
 598.048828125 110.126953125 l 2
 575.888671875 110.126953125 558.048828125 127.966796875 558.048828125 150.126953125 c 0
 558.048828125 172.286132812 575.888671875 190.126953125 598.048828125 190.126953125 c 2
 909.698242188 190.126953125 l 2
 931.857421875 190.126953125 949.698242188 172.286132812 949.698242188 150.126953125 c 0
270.126953125 345.951171875 m 0
 292.287109375 345.951171875 310.126953125 328.111328125 310.126953125 305.951171875 c 2
 310.126953125 -5.6982421875 l 2
 310.126953125 -27.857421875 292.287109375 -45.6982421875 270.126953125 -45.6982421875 c 0
 247.966796875 -45.6982421875 230.126953125 -27.857421875 230.126953125 -5.6982421875 c 2
 230.126953125 305.951171875 l 2
 230.126953125 328.111328125 247.966796875 345.951171875 270.126953125 345.951171875 c 0
121.493164062 851.747070312 m 2
 83.826171875 851.747070312 52.2529296875 820.172851562 52.2529296875 782.506835938 c 2
 52.2529296875 485.239257812 l 2
 52.2529296875 447.572265625 83.826171875 416.000976562 121.493164062 416.000976562 c 2
 418.760742188 416.000976562 l 2
 456.427734375 416.000976562 487.999023438 447.572265625 487.999023438 485.239257812 c 2
 487.999023438 782.506835938 l 2
 487.999023438 820.172851562 456.427734375 851.747070312 418.760742188 851.747070312 c 2
 121.493164062 851.747070312 l 2
157.109375 771.747070312 m 2
 383.142578125 771.747070312 l 2
 396.861328125 771.747070312 407.999023438 760.609375 407.999023438 746.890625 c 0
 407.999023438 520.857421875 l 2
 407.999023438 507.138671875 396.861328125 496.000976562 383.142578125 496.000976562 c 0
 157.109375 496.000976562 l 2
 143.390625 496.000976562 132.252929688 507.138671875 132.252929688 520.857421875 c 0
 132.252929688 746.890625 l 2
 132.252929688 760.609375 143.390625 771.747070312 157.109375 771.747070312 c 2
EndSplineSet
Validated: 524297
EndChar

StartChar: ma
Encoding: 9 -1 9
Width: 1024
VWidth: 904
Flags: W
HStem: 110.127 80<562.412 945.335> 416.001 80<132.381 157.108 383.142 407.87> 771.747 80<132.381 157.108 383.142 407.871>
VStem: 52.2529 80<496.129 520.856 746.89 771.618> 230.127 80<-41.3349 341.588> 407.999 80<496.129 520.856 521.02 771.619>
AnchorPoint: "accent" 0 -120 basechar 0
LayerCount: 2
Fore
SplineSet
949.698242188 150.126953125 m 0
 949.698242188 127.966796875 931.857421875 110.126953125 909.698242188 110.126953125 c 2
 598.048828125 110.126953125 l 2
 575.888671875 110.126953125 558.048828125 127.966796875 558.048828125 150.126953125 c 0
 558.048828125 172.286132812 575.888671875 190.126953125 598.048828125 190.126953125 c 2
 909.698242188 190.126953125 l 2
 931.857421875 190.126953125 949.698242188 172.286132812 949.698242188 150.126953125 c 0
270.126953125 345.951171875 m 0
 292.287109375 345.951171875 310.126953125 328.111328125 310.126953125 305.951171875 c 2
 310.126953125 -5.6982421875 l 2
 310.126953125 -27.857421875 292.287109375 -45.6982421875 270.126953125 -45.6982421875 c 0
 247.966796875 -45.6982421875 230.126953125 -27.857421875 230.126953125 -5.6982421875 c 2
 230.126953125 305.951171875 l 2
 230.126953125 328.111328125 247.966796875 345.951171875 270.126953125 345.951171875 c 0
121.493164062 851.747070312 m 2
 83.826171875 851.747070312 52.2529296875 820.172851562 52.2529296875 782.506835938 c 2
 52.2529296875 485.239257812 l 2
 52.2529296875 447.572265625 83.826171875 416.000976562 121.493164062 416.000976562 c 2
 418.760742188 416.000976562 l 2
 456.427734375 416.000976562 487.999023438 447.572265625 487.999023438 485.239257812 c 2
 487.999023438 782.506835938 l 2
 487.999023438 820.172851562 456.427734375 851.747070312 418.760742188 851.747070312 c 2
 121.493164062 851.747070312 l 2
157.108398438 771.747070312 m 2
 230.125976562 771.747070312 l 1
 230.125976562 496.000976562 l 1
 157.108398438 496.000976562 l 2
 143.390625 496.000976562 132.252929688 507.138671875 132.252929688 520.856445312 c 1
 132.252929688 746.889648438 l 2
 132.252929688 760.607421875 143.389648438 771.74609375 157.108398438 771.747070312 c 2
310.125976562 771.747070312 m 1
 383.141601562 771.747070312 l 2
 396.860351562 771.747070312 407.999023438 760.607421875 407.999023438 746.889648438 c 1
 407.998046875 746.890625 407.999023438 520.856445312 407.999023438 520.856445312 c 2
 407.998046875 507.137695312 396.859375 496.000976562 383.141601562 496.000976562 c 1
 383.142578125 496.000976562 310.125976562 496.000976562 310.125976562 496.000976562 c 1
 310.125976562 771.747070312 l 1
EndSplineSet
Validated: 524329
Ligature2: "'liga' Standard Ligatures in Latin lookup 0 subtable" m a
EndChar

StartChar: mi
Encoding: 10 -1 10
Width: 1024
VWidth: 904
Flags: W
HStem: 110.127 80<562.412 945.335>
VStem: 230.127 80<-41.3349 341.588>
AnchorPoint: "accent" 0 -120 basechar 0
LayerCount: 2
Fore
SplineSet
270.126953125 345.951171875 m 0
 292.287109375 345.951171875 310.126953125 328.111328125 310.126953125 305.951171875 c 2
 310.126953125 -5.6982421875 l 2
 310.126953125 -27.857421875 292.287109375 -45.6982421875 270.126953125 -45.6982421875 c 0
 247.966796875 -45.6982421875 230.126953125 -27.857421875 230.126953125 -5.6982421875 c 2
 230.126953125 305.951171875 l 2
 230.126953125 328.111328125 247.966796875 345.951171875 270.126953125 345.951171875 c 0
949.698242188 150.126953125 m 0
 949.698242188 127.966796875 931.857421875 110.126953125 909.698242188 110.126953125 c 2
 598.048828125 110.126953125 l 2
 575.888671875 110.126953125 558.048828125 127.966796875 558.048828125 150.126953125 c 0
 558.048828125 172.286132812 575.888671875 190.126953125 598.048828125 190.126953125 c 2
 909.698242188 190.126953125 l 2
 931.857421875 190.126953125 949.698242188 172.286132812 949.698242188 150.126953125 c 0
121.494140625 851.747070312 m 2
 83.8271484375 851.747070312 52.25390625 820.172851562 52.25390625 782.506835938 c 2
 52.25390625 485.239257812 l 2
 52.25390625 447.572265625 83.8271484375 416.000976562 121.494140625 416.000976562 c 2
 418.76171875 416.000976562 l 2
 456.428710938 416.000976562 488 447.572265625 488 485.239257812 c 2
 488 782.506835938 l 2
 488 820.172851562 456.428710938 851.747070312 418.76171875 851.747070312 c 2
 121.494140625 851.747070312 l 2
157.111328125 771.747070312 m 2
 351.431640625 771.747070312 l 1
 132.25390625 552.569335938 l 1
 132.25390625 746.889648438 l 2
 132.25390625 760.607421875 143.392578125 771.747070312 157.111328125 771.747070312 c 2
408 715.176757812 m 1
 408 520.856445312 l 2
 407.999023438 507.138671875 396.862304688 496.000976562 383.14453125 496.000976562 c 1
 188.82421875 496.000976562 l 1
 408 715.176757812 l 1
EndSplineSet
Validated: 524297
Ligature2: "'liga' Standard Ligatures in Latin lookup 0 subtable" m i
EndChar

StartChar: mu
Encoding: 11 181 11
Width: 1024
VWidth: 904
Flags: W
HStem: 110.127 80<562.412 945.335> 416.001 80<132.383 157.111 383.145 407.871> 673.874 21G<132.254 408> 771.747 80<132.382 157.111 383.145 407.872>
VStem: 52.2539 80<496.129 520.856 746.89 771.619> 230.127 80<-41.3349 341.588> 408 80<496.13 520.856 746.89 771.619>
CounterMasks: 1 0e
AnchorPoint: "accent" 0 -120 basechar 0
LayerCount: 2
Fore
SplineSet
270.126953125 345.951171875 m 0
 292.287109375 345.951171875 310.126953125 328.111328125 310.126953125 305.951171875 c 2
 310.126953125 -5.6982421875 l 2
 310.126953125 -27.857421875 292.287109375 -45.6982421875 270.126953125 -45.6982421875 c 0
 247.966796875 -45.6982421875 230.126953125 -27.857421875 230.126953125 -5.6982421875 c 2
 230.126953125 305.951171875 l 2
 230.126953125 328.111328125 247.966796875 345.951171875 270.126953125 345.951171875 c 0
949.698242188 150.126953125 m 0
 949.698242188 127.966796875 931.857421875 110.126953125 909.698242188 110.126953125 c 2
 598.048828125 110.126953125 l 2
 575.888671875 110.126953125 558.048828125 127.966796875 558.048828125 150.126953125 c 0
 558.048828125 172.286132812 575.888671875 190.126953125 598.048828125 190.126953125 c 2
 909.698242188 190.126953125 l 2
 931.857421875 190.126953125 949.698242188 172.286132812 949.698242188 150.126953125 c 0
121.4921875 851.747070312 m 2
 83.8251953125 851.747070312 52.25390625 820.173828125 52.25390625 782.506835938 c 2
 52.25390625 485.239257812 l 2
 52.25390625 447.572265625 83.8251953125 416.000976562 121.4921875 416.000976562 c 2
 418.759765625 416.000976562 l 2
 456.426757812 416.000976562 488 447.572265625 488 485.239257812 c 2
 488 782.506835938 l 2
 488 820.173828125 456.426757812 851.747070312 418.759765625 851.747070312 c 2
 121.4921875 851.747070312 l 2
157.111328125 771.747070312 m 2
 383.14453125 771.747070312 l 2
 396.862304688 771.747070312 408 760.608398438 408 746.889648438 c 1
 408 746.890625 408 673.874023438 408 673.874023438 c 1
 132.25390625 673.874023438 l 1
 132.25390625 746.889648438 l 2
 132.25390625 760.608398438 143.392578125 771.747070312 157.111328125 771.747070312 c 2
132.25390625 593.874023438 m 1
 408 593.874023438 l 1
 408 520.856445312 l 2
 407.999023438 507.138671875 396.862304688 496.001953125 383.14453125 496.000976562 c 1
 157.111328125 496.000976562 l 2
 143.392578125 496.000976562 132.254882812 507.138671875 132.25390625 520.856445312 c 1
 132.254882812 520.856445312 132.25390625 593.874023438 132.25390625 593.874023438 c 1
EndSplineSet
Validated: 524329
Ligature2: "'liga' Standard Ligatures in Latin lookup 0 subtable" m u
EndChar

StartChar: s
Encoding: 12 115 12
Width: 1024
VWidth: 904
Flags: W
HStem: 110.127 80<562.412 945.335> 416 80<195.504 344.749> 771.746 80<195.504 344.749>
VStem: 52.252 80<559.251 708.495> 230.127 80<-41.3349 341.588> 408 80<559.251 708.495>
AnchorPoint: "accent" 0 -120 basechar 0
LayerCount: 2
Fore
SplineSet
949.698242188 150.126953125 m 0
 949.698242188 127.966796875 931.857421875 110.126953125 909.698242188 110.126953125 c 2
 598.048828125 110.126953125 l 2
 575.888671875 110.126953125 558.048828125 127.966796875 558.048828125 150.126953125 c 0
 558.048828125 172.286132812 575.888671875 190.126953125 598.048828125 190.126953125 c 2
 909.698242188 190.126953125 l 2
 931.857421875 190.126953125 949.698242188 172.286132812 949.698242188 150.126953125 c 0
270.126953125 345.951171875 m 0
 292.287109375 345.951171875 310.126953125 328.111328125 310.126953125 305.951171875 c 2
 310.126953125 -5.6982421875 l 2
 310.126953125 -27.857421875 292.287109375 -45.6982421875 270.126953125 -45.6982421875 c 0
 247.966796875 -45.6982421875 230.126953125 -27.857421875 230.126953125 -5.6982421875 c 2
 230.126953125 305.951171875 l 2
 230.126953125 328.111328125 247.966796875 345.951171875 270.126953125 345.951171875 c 0
270.126953125 851.74609375 m 0
 150.272460938 851.74609375 52.251953125 753.727539062 52.251953125 633.873046875 c 0
 52.251953125 514.018554688 150.272460938 416 270.126953125 416 c 0
 389.981445312 416 488 514.018554688 488 633.873046875 c 0
 488 753.727539062 389.981445312 851.74609375 270.126953125 851.74609375 c 0
270.126953125 771.74609375 m 0
 346.74609375 771.74609375 408 710.4921875 408 633.873046875 c 0
 408 557.25390625 346.74609375 496 270.126953125 496 c 0
 193.5078125 496 132.251953125 557.25390625 132.251953125 633.873046875 c 0
 132.251953125 710.4921875 193.5078125 771.74609375 270.126953125 771.74609375 c 0
EndSplineSet
Validated: 524297
EndChar

StartChar: sdash
Encoding: 13 -1 13
Width: 1024
VWidth: 904
Flags: W
HStem: 110.127 80<562.412 945.335> 416 80<195.504 344.749> 771.746 80<195.504 344.749>
VStem: 52.252 80<559.251 708.495> 230.127 80<-41.3349 341.588> 408 80<559.251 708.495>
AnchorPoint: "accent" 0 -120 basechar 0
LayerCount: 2
Fore
SplineSet
949.698242188 150.126953125 m 0
 949.698242188 127.966796875 931.857421875 110.126953125 909.698242188 110.126953125 c 2
 598.048828125 110.126953125 l 2
 575.888671875 110.126953125 558.048828125 127.966796875 558.048828125 150.126953125 c 0
 558.048828125 172.286132812 575.888671875 190.126953125 598.048828125 190.126953125 c 2
 909.698242188 190.126953125 l 2
 931.857421875 190.126953125 949.698242188 172.286132812 949.698242188 150.126953125 c 0
270.126953125 345.951171875 m 0
 292.287109375 345.951171875 310.126953125 328.111328125 310.126953125 305.951171875 c 2
 310.126953125 -5.6982421875 l 2
 310.126953125 -27.857421875 292.287109375 -45.6982421875 270.126953125 -45.6982421875 c 0
 247.966796875 -45.6982421875 230.126953125 -27.857421875 230.126953125 -5.6982421875 c 2
 230.126953125 305.951171875 l 2
 230.126953125 328.111328125 247.966796875 345.951171875 270.126953125 345.951171875 c 0
270.126953125 851.74609375 m 0
 150.272460938 851.74609375 52.251953125 753.727539062 52.251953125 633.873046875 c 0
 52.251953125 514.018554688 150.272460938 416 270.126953125 416 c 0
 389.981445312 416 488 514.018554688 488 633.873046875 c 0
 488 753.727539062 389.981445312 851.74609375 270.126953125 851.74609375 c 0
270.126953125 771.74609375 m 0
 346.74609375 771.74609375 408 710.4921875 408 633.873046875 c 0
 408 557.25390625 346.74609375 496 270.126953125 496 c 0
 193.5078125 496 132.251953125 557.25390625 132.251953125 633.873046875 c 0
 132.251953125 710.4921875 193.5078125 771.74609375 270.126953125 771.74609375 c 0
EndSplineSet
Validated: 524297
LCarets2: 1 0
Ligature2: "'liga' Standard Ligatures in Latin lookup 0 subtable" s dash
EndChar

StartChar: sdashdash
Encoding: 14 -1 14
Width: 1024
VWidth: 904
Flags: W
HStem: 110.127 80<562.412 945.335> 416 80<195.504 344.749> 771.746 80<195.504 344.749>
VStem: 52.252 80<559.251 708.495> 230.127 80<-41.3349 341.588> 408 80<559.251 708.495>
AnchorPoint: "accent" 0 -120 basechar 0
LayerCount: 2
Fore
SplineSet
949.698242188 150.126953125 m 0
 949.698242188 127.966796875 931.857421875 110.126953125 909.698242188 110.126953125 c 2
 598.048828125 110.126953125 l 2
 575.888671875 110.126953125 558.048828125 127.966796875 558.048828125 150.126953125 c 0
 558.048828125 172.286132812 575.888671875 190.126953125 598.048828125 190.126953125 c 2
 909.698242188 190.126953125 l 2
 931.857421875 190.126953125 949.698242188 172.286132812 949.698242188 150.126953125 c 0
270.126953125 345.951171875 m 0
 292.287109375 345.951171875 310.126953125 328.111328125 310.126953125 305.951171875 c 2
 310.126953125 -5.6982421875 l 2
 310.126953125 -27.857421875 292.287109375 -45.6982421875 270.126953125 -45.6982421875 c 0
 247.966796875 -45.6982421875 230.126953125 -27.857421875 230.126953125 -5.6982421875 c 2
 230.126953125 305.951171875 l 2
 230.126953125 328.111328125 247.966796875 345.951171875 270.126953125 345.951171875 c 0
270.126953125 851.74609375 m 0
 150.272460938 851.74609375 52.251953125 753.727539062 52.251953125 633.873046875 c 0
 52.251953125 514.018554688 150.272460938 416 270.126953125 416 c 0
 389.981445312 416 488 514.018554688 488 633.873046875 c 0
 488 753.727539062 389.981445312 851.74609375 270.126953125 851.74609375 c 0
270.126953125 771.74609375 m 0
 346.74609375 771.74609375 408 710.4921875 408 633.873046875 c 0
 408 557.25390625 346.74609375 496 270.126953125 496 c 0
 193.5078125 496 132.251953125 557.25390625 132.251953125 633.873046875 c 0
 132.251953125 710.4921875 193.5078125 771.74609375 270.126953125 771.74609375 c 0
EndSplineSet
Validated: 524297
Ligature2: "'liga' Standard Ligatures in Latin lookup 0 subtable" s dash dash
EndChar

StartChar: sa
Encoding: 15 -1 15
Width: 1024
VWidth: 904
Flags: W
HStem: 110.127 80<562.412 945.335>
VStem: 52.252 80<559.386 708.36> 230.127 80<-41.3349 341.588> 408 80<559.386 708.36>
AnchorPoint: "accent" 0 -120 basechar 0
LayerCount: 2
Fore
SplineSet
949.698242188 150.126953125 m 0
 949.698242188 127.966796875 931.857421875 110.126953125 909.698242188 110.126953125 c 2
 598.048828125 110.126953125 l 2
 575.888671875 110.126953125 558.048828125 127.966796875 558.048828125 150.126953125 c 0
 558.048828125 172.286132812 575.888671875 190.126953125 598.048828125 190.126953125 c 2
 909.698242188 190.126953125 l 2
 931.857421875 190.126953125 949.698242188 172.286132812 949.698242188 150.126953125 c 0
270.126953125 345.951171875 m 0
 292.287109375 345.951171875 310.126953125 328.111328125 310.126953125 305.951171875 c 2
 310.126953125 -5.6982421875 l 2
 310.126953125 -27.857421875 292.287109375 -45.6982421875 270.126953125 -45.6982421875 c 0
 247.966796875 -45.6982421875 230.126953125 -27.857421875 230.126953125 -5.6982421875 c 2
 230.126953125 305.951171875 l 2
 230.126953125 328.111328125 247.966796875 345.951171875 270.126953125 345.951171875 c 0
270.126953125 851.74609375 m 0
 150.272460938 851.74609375 52.251953125 753.727539062 52.251953125 633.873046875 c 0
 52.251953125 514.01953125 150.272460938 416 270.126953125 416 c 0
 389.981445312 416 488 514.01953125 488 633.873046875 c 0
 488 753.727539062 389.981445312 851.74609375 270.126953125 851.74609375 c 0
230.126953125 765.919921875 m 1
 230.126953125 501.826171875 l 1
 173.259765625 518.814453125 132.251953125 571.19140625 132.251953125 633.873046875 c 0
 132.251953125 696.555664062 173.259765625 748.931640625 230.126953125 765.919921875 c 1
310.126953125 765.919921875 m 1
 366.994140625 748.931640625 408 696.555664062 408 633.873046875 c 0
 408 571.19140625 366.994140625 518.814453125 310.126953125 501.826171875 c 1
 310.126953125 765.919921875 l 1
EndSplineSet
Validated: 524297
Ligature2: "'liga' Standard Ligatures in Latin lookup 0 subtable" s a
EndChar

StartChar: si
Encoding: 16 -1 16
Width: 1024
VWidth: 904
Flags: W
HStem: 110.127 80<562.412 945.335> 771.746 79.498<195.88 334.764>
VStem: 230.127 80<-41.3349 341.588>
AnchorPoint: "accent" 0 -120 basechar 0
LayerCount: 2
Fore
SplineSet
949.698242188 150.126953125 m 0
 949.698242188 127.966796875 931.857421875 110.126953125 909.698242188 110.126953125 c 2
 598.048828125 110.126953125 l 2
 575.888671875 110.126953125 558.048828125 127.966796875 558.048828125 150.126953125 c 0
 558.048828125 172.286132812 575.888671875 190.126953125 598.048828125 190.126953125 c 2
 909.698242188 190.126953125 l 2
 931.857421875 190.126953125 949.698242188 172.286132812 949.698242188 150.126953125 c 0
270.126953125 345.951171875 m 0
 292.287109375 345.951171875 310.126953125 328.111328125 310.126953125 305.951171875 c 2
 310.126953125 -5.6982421875 l 2
 310.126953125 -27.857421875 292.287109375 -45.6982421875 270.126953125 -45.6982421875 c 0
 247.966796875 -45.6982421875 230.126953125 -27.857421875 230.126953125 -5.6982421875 c 2
 230.126953125 305.951171875 l 2
 230.126953125 328.111328125 247.966796875 345.951171875 270.126953125 345.951171875 c 0
270.37890625 851.244140625 m 0
 214.537109375 851.244140625 158.693359375 830.056640625 116.318359375 787.681640625 c 0
 31.568359375 702.931640625 31.568359375 564.3125 116.318359375 479.5625 c 0
 201.068359375 394.8125 339.6875 394.8125 424.4375 479.5625 c 0
 509.1875 564.3125 509.1875 702.931640625 424.4375 787.681640625 c 0
 382.0625 830.056640625 326.221679688 851.244140625 270.37890625 851.244140625 c 0
270.37890625 771.74609375 m 0
 292.7734375 771.74609375 315.159179688 766.241210938 335.46484375 755.27734375 c 1
 148.72265625 568.53515625 l 1
 120.525390625 620.758789062 128.564453125 686.790039062 172.88671875 731.11328125 c 0
 199.975585938 758.202148438 235.177734375 771.74609375 270.37890625 771.74609375 c 0
392.033203125 698.708984375 m 1
 420.232421875 646.485351562 412.192382812 580.454101562 367.869140625 536.130859375 c 0
 323.545898438 491.807617188 257.514648438 483.767578125 205.291015625 511.966796875 c 1
 392.033203125 698.708984375 l 1
EndSplineSet
Validated: 524329
Ligature2: "'liga' Standard Ligatures in Latin lookup 0 subtable" s i
EndChar

StartChar: ssdash
Encoding: 18 -1 18
Width: 1024
VWidth: 904
Flags: W
HStem: -67.7461 80<195.504 344.749> 110.127 80<562.412 945.335> 288 80<195.504 344.749> 416 80<195.504 344.749> 771.746 80<195.504 344.749>
VStem: 52.252 80<75.5048 224.749 559.251 708.495> 408 80<75.5048 224.749 559.251 708.495>
AnchorPoint: "accent" 0 -120 basechar 0
LayerCount: 2
Fore
SplineSet
270.126953125 368 m 0
 150.272460938 368 52.251953125 269.98046875 52.251953125 150.126953125 c 0
 52.251953125 30.2724609375 150.272460938 -67.74609375 270.126953125 -67.74609375 c 0
 389.981445312 -67.74609375 488 30.2724609375 488 150.126953125 c 0
 488 269.98046875 389.981445312 368 270.126953125 368 c 0
270.126953125 288 m 0
 346.74609375 288 408 226.74609375 408 150.126953125 c 0
 408 73.5078125 346.74609375 12.25390625 270.126953125 12.25390625 c 0
 193.5078125 12.25390625 132.251953125 73.5078125 132.251953125 150.126953125 c 0
 132.251953125 226.74609375 193.5078125 288 270.126953125 288 c 0
949.698242188 150.126953125 m 0
 949.698242188 127.966796875 931.857421875 110.126953125 909.698242188 110.126953125 c 2
 598.048828125 110.126953125 l 2
 575.888671875 110.126953125 558.048828125 127.966796875 558.048828125 150.126953125 c 0
 558.048828125 172.286132812 575.888671875 190.126953125 598.048828125 190.126953125 c 2
 909.698242188 190.126953125 l 2
 931.857421875 190.126953125 949.698242188 172.286132812 949.698242188 150.126953125 c 0
270.126953125 851.74609375 m 0
 150.272460938 851.74609375 52.251953125 753.727539062 52.251953125 633.873046875 c 0
 52.251953125 514.018554688 150.272460938 416 270.126953125 416 c 0
 389.981445312 416 488 514.018554688 488 633.873046875 c 0
 488 753.727539062 389.981445312 851.74609375 270.126953125 851.74609375 c 0
270.126953125 771.74609375 m 0
 346.74609375 771.74609375 408 710.4921875 408 633.873046875 c 0
 408 557.25390625 346.74609375 496 270.126953125 496 c 0
 193.5078125 496 132.251953125 557.25390625 132.251953125 633.873046875 c 0
 132.251953125 710.4921875 193.5078125 771.74609375 270.126953125 771.74609375 c 0
EndSplineSet
Validated: 524297
Ligature2: "'liga' Standard Ligatures in Latin lookup 0 subtable" s s dash
EndChar

StartChar: ssm
Encoding: 19 -1 19
Width: 1024
VWidth: 904
Flags: W
HStem: -67.7461 80<195.504 344.749 616.129 640.857 866.891 891.619> 288 80<195.504 344.749 616.129 640.857 866.891 891.619> 416.001 80<195.504 344.749> 771.747 80<195.504 344.749>
VStem: 52.252 80<75.5048 224.749 559.252 708.496> 408 80<75.5048 224.749 559.252 708.496> 536.001 80<12.3823 37.1104 263.144 287.872> 891.747 80<12.3823 37.1104 263.144 287.872>
AnchorPoint: "accent" 0 -120 basechar 0
LayerCount: 2
Fore
SplineSet
605.241210938 368 m 2
 567.57421875 368 536.000976562 336.426757812 536.000976562 298.759765625 c 2
 536.000976562 1.4921875 l 2
 536.000976562 -36.1748046875 567.57421875 -67.74609375 605.241210938 -67.74609375 c 2
 902.508789062 -67.74609375 l 2
 940.174804688 -67.74609375 971.747070312 -36.1748046875 971.747070312 1.4921875 c 2
 971.747070312 298.759765625 l 2
 971.747070312 336.426757812 940.174804688 368 902.508789062 368 c 2
 605.241210938 368 l 2
640.857421875 288 m 2
 866.890625 288 l 2
 880.609375 288 891.747070312 276.862304688 891.747070312 263.143554688 c 0
 891.747070312 37.1103515625 l 2
 891.747070312 23.3916015625 880.609375 12.25390625 866.890625 12.25390625 c 0
 640.857421875 12.25390625 l 2
 627.138671875 12.25390625 616.000976562 23.3916015625 616.000976562 37.1103515625 c 0
 616.000976562 263.143554688 l 2
 616.000976562 276.862304688 627.138671875 288 640.857421875 288 c 2
270.126953125 368 m 0
 150.272460938 368 52.251953125 269.981445312 52.251953125 150.126953125 c 0
 52.251953125 30.2724609375 150.272460938 -67.74609375 270.126953125 -67.74609375 c 0
 389.981445312 -67.74609375 488 30.2724609375 488 150.126953125 c 0
 488 269.981445312 389.981445312 368 270.126953125 368 c 0
270.126953125 288 m 0
 346.74609375 288 408 226.74609375 408 150.126953125 c 0
 408 73.5078125 346.74609375 12.25390625 270.126953125 12.25390625 c 0
 193.5078125 12.25390625 132.251953125 73.5078125 132.251953125 150.126953125 c 0
 132.251953125 226.74609375 193.5078125 288 270.126953125 288 c 0
270.126953125 851.747070312 m 0
 150.272460938 851.747070312 52.251953125 753.727539062 52.251953125 633.874023438 c 0
 52.251953125 514.01953125 150.272460938 416.000976562 270.126953125 416.000976562 c 0
 389.981445312 416.000976562 488 514.01953125 488 633.874023438 c 0
 488 753.727539062 389.981445312 851.747070312 270.126953125 851.747070312 c 0
270.126953125 771.747070312 m 0
 346.74609375 771.747070312 408 710.493164062 408 633.874023438 c 0
 408 557.254882812 346.74609375 496.000976562 270.126953125 496.000976562 c 0
 193.5078125 496.000976562 132.251953125 557.254882812 132.251953125 633.874023438 c 0
 132.251953125 710.493164062 193.5078125 771.747070312 270.126953125 771.747070312 c 0
EndSplineSet
Validated: 524297
Ligature2: "'liga' Standard Ligatures in Latin lookup 0 subtable" s s m
EndChar

StartChar: sss
Encoding: 20 -1 20
Width: 1024
VWidth: 904
Flags: W
HStem: -67.7461 80<195.504 344.749 679.251 828.496> 288 80<195.504 344.749 679.251 828.496> 416 80<195.504 344.749> 771.746 80<195.504 344.749>
VStem: 52.252 80<75.5048 224.749 559.251 708.495> 408 80<75.5048 224.749 559.251 708.495> 535.999 80<75.5048 224.749> 891.747 80<75.5048 224.749>
AnchorPoint: "accent" 0 -120 basechar 0
LayerCount: 2
Fore
SplineSet
753.874023438 368 m 0
 634.01953125 368 535.999023438 269.98046875 535.999023438 150.126953125 c 0
 535.999023438 30.2724609375 634.01953125 -67.74609375 753.874023438 -67.74609375 c 0
 873.727539062 -67.74609375 971.747070312 30.2724609375 971.747070312 150.126953125 c 0
 971.747070312 269.98046875 873.727539062 368 753.874023438 368 c 0
753.874023438 288 m 0
 830.493164062 288 891.747070312 226.74609375 891.747070312 150.126953125 c 0
 891.747070312 73.5078125 830.493164062 12.25390625 753.874023438 12.25390625 c 0
 677.254882812 12.25390625 615.999023438 73.5078125 615.999023438 150.126953125 c 0
 615.999023438 226.74609375 677.254882812 288 753.874023438 288 c 0
270.126953125 368 m 0
 150.272460938 368 52.251953125 269.98046875 52.251953125 150.126953125 c 0
 52.251953125 30.2724609375 150.272460938 -67.74609375 270.126953125 -67.74609375 c 0
 389.981445312 -67.74609375 488 30.2724609375 488 150.126953125 c 0
 488 269.98046875 389.981445312 368 270.126953125 368 c 0
270.126953125 288 m 0
 346.74609375 288 408 226.74609375 408 150.126953125 c 0
 408 73.5078125 346.74609375 12.25390625 270.126953125 12.25390625 c 0
 193.5078125 12.25390625 132.251953125 73.5078125 132.251953125 150.126953125 c 0
 132.251953125 226.74609375 193.5078125 288 270.126953125 288 c 0
270.126953125 851.74609375 m 0
 150.272460938 851.74609375 52.251953125 753.727539062 52.251953125 633.873046875 c 0
 52.251953125 514.018554688 150.272460938 416 270.126953125 416 c 0
 389.981445312 416 488 514.018554688 488 633.873046875 c 0
 488 753.727539062 389.981445312 851.74609375 270.126953125 851.74609375 c 0
270.126953125 771.74609375 m 0
 346.74609375 771.74609375 408 710.4921875 408 633.873046875 c 0
 408 557.25390625 346.74609375 496 270.126953125 496 c 0
 193.5078125 496 132.251953125 557.25390625 132.251953125 633.873046875 c 0
 132.251953125 710.4921875 193.5078125 771.74609375 270.126953125 771.74609375 c 0
EndSplineSet
Validated: 524297
Ligature2: "'liga' Standard Ligatures in Latin lookup 0 subtable" s s s
EndChar

StartChar: sssa
Encoding: 21 -1 21
Width: 1024
VWidth: 904
Flags: W
HStem: -67.7471 80<195.504 344.749 655.636 852.11> 287.999 80<195.504 344.749 655.636 852.11> 416 80<195.504 344.749> 771.746 80<195.504 344.749>
VStem: 52.252 80<75.504 224.748 559.251 708.495> 408 80<75.504 224.748 559.251 708.495> 535.998 80.001<51.8896 248.363> 891.746 80.001<51.8896 248.363>
AnchorPoint: "accent" 0 -120 basechar 0
LayerCount: 2
Fore
SplineSet
753.874023438 368 m 0
 634.020507812 368 535.999023438 269.98046875 535.999023438 150.126953125 c 0
 535.999023438 30.2724609375 634.020507812 -67.74609375 753.874023438 -67.74609375 c 0
 873.728515625 -67.74609375 971.747070312 30.2724609375 971.747070312 150.126953125 c 0
 971.747070312 269.98046875 873.728515625 368 753.874023438 368 c 0
713.874023438 282.173828125 m 1
 713.874023438 18.080078125 l 1
 657.006835938 35.068359375 615.999023438 87.4443359375 615.999023438 150.126953125 c 0
 615.999023438 212.80859375 657.006835938 265.185546875 713.874023438 282.173828125 c 1
793.874023438 282.173828125 m 1
 850.741210938 265.185546875 891.747070312 212.80859375 891.747070312 150.126953125 c 0
 891.747070312 87.4443359375 850.741210938 35.068359375 793.874023438 18.080078125 c 1
 793.874023438 282.173828125 l 1
753.873046875 367.999023438 m 0
 634.018554688 367.999023438 535.998046875 269.98046875 535.998046875 150.125976562 c 0
 535.998046875 30.2724609375 634.018554688 -67.7470703125 753.873046875 -67.7470703125 c 0
 873.727539062 -67.7470703125 971.74609375 30.2724609375 971.74609375 150.125976562 c 0
 971.74609375 269.98046875 873.727539062 367.999023438 753.873046875 367.999023438 c 0
753.873046875 287.999023438 m 0
 830.4921875 287.999023438 891.74609375 226.745117188 891.74609375 150.125976562 c 0
 891.74609375 73.5068359375 830.4921875 12.2529296875 753.873046875 12.2529296875 c 0
 677.25390625 12.2529296875 615.998046875 73.5068359375 615.998046875 150.125976562 c 0
 615.998046875 226.745117188 677.25390625 287.999023438 753.873046875 287.999023438 c 0
270.126953125 367.999023438 m 0
 150.272460938 367.999023438 52.251953125 269.98046875 52.251953125 150.125976562 c 0
 52.251953125 30.2724609375 150.272460938 -67.7470703125 270.126953125 -67.7470703125 c 0
 389.981445312 -67.7470703125 488 30.2724609375 488 150.125976562 c 0
 488 269.98046875 389.981445312 367.999023438 270.126953125 367.999023438 c 0
270.126953125 287.999023438 m 0
 346.74609375 287.999023438 408 226.745117188 408 150.125976562 c 0
 408 73.5068359375 346.74609375 12.2529296875 270.126953125 12.2529296875 c 0
 193.5078125 12.2529296875 132.251953125 73.5068359375 132.251953125 150.125976562 c 0
 132.251953125 226.745117188 193.5078125 287.999023438 270.126953125 287.999023438 c 0
270.126953125 851.74609375 m 0
 150.272460938 851.74609375 52.251953125 753.727539062 52.251953125 633.873046875 c 0
 52.251953125 514.018554688 150.272460938 416 270.126953125 416 c 0
 389.981445312 416 488 514.018554688 488 633.873046875 c 0
 488 753.727539062 389.981445312 851.74609375 270.126953125 851.74609375 c 0
270.126953125 771.74609375 m 0
 346.74609375 771.74609375 408 710.4921875 408 633.873046875 c 0
 408 557.25390625 346.74609375 496 270.126953125 496 c 0
 193.5078125 496 132.251953125 557.25390625 132.251953125 633.873046875 c 0
 132.251953125 710.4921875 193.5078125 771.74609375 270.126953125 771.74609375 c 0
EndSplineSet
Validated: 524293
Ligature2: "'liga' Standard Ligatures in Latin lookup 0 subtable" s s s a
EndChar

StartChar: sssi
Encoding: 22 -1 22
Width: 1024
VWidth: 904
Flags: W
HStem: -67.7461 80<195.504 344.749> 288 80<195.504 344.749 678.654 818.258> 416 80<195.504 344.749> 771.746 80<195.504 344.749>
VStem: 52.252 80<75.5048 224.749 559.251 708.495> 408 80<75.5048 224.749 559.251 708.495>
AnchorPoint: "accent" 0 -120 basechar 0
LayerCount: 2
Fore
SplineSet
753.873046875 368 m 0
 698.03125 368 642.1875 346.8125 599.8125 304.4375 c 0
 515.063476562 219.6875 515.063476562 81.068359375 599.8125 -3.681640625 c 0
 684.5625 -88.431640625 823.182617188 -88.431640625 907.931640625 -3.681640625 c 0
 992.681640625 81.068359375 992.681640625 219.6875 907.931640625 304.4375 c 0
 865.556640625 346.8125 809.715820312 368 753.873046875 368 c 0
753.873046875 288.501953125 m 0
 776.267578125 288.501953125 798.653320312 282.997070312 818.958984375 272.033203125 c 1
 632.216796875 85.291015625 l 1
 604.01953125 137.514648438 612.05859375 203.546875 656.380859375 247.869140625 c 0
 683.469726562 274.958007812 718.671875 288.501953125 753.873046875 288.501953125 c 0
875.52734375 215.46484375 m 1
 903.7265625 163.241210938 895.686523438 97.2099609375 851.36328125 52.88671875 c 0
 807.040039062 8.5634765625 741.008789062 0.5234375 688.78515625 28.72265625 c 1
 875.52734375 215.46484375 l 1
270.126953125 368 m 0
 150.272460938 368 52.251953125 269.981445312 52.251953125 150.126953125 c 0
 52.251953125 30.2724609375 150.272460938 -67.74609375 270.126953125 -67.74609375 c 0
 389.981445312 -67.74609375 488 30.2724609375 488 150.126953125 c 0
 488 269.981445312 389.981445312 368 270.126953125 368 c 0
270.126953125 288 m 0
 346.74609375 288 408 226.74609375 408 150.126953125 c 0
 408 73.5078125 346.74609375 12.25390625 270.126953125 12.25390625 c 0
 193.5078125 12.25390625 132.251953125 73.5078125 132.251953125 150.126953125 c 0
 132.251953125 226.74609375 193.5078125 288 270.126953125 288 c 0
270.126953125 851.74609375 m 0
 150.272460938 851.74609375 52.251953125 753.727539062 52.251953125 633.873046875 c 0
 52.251953125 514.018554688 150.272460938 416 270.126953125 416 c 0
 389.981445312 416 488 514.018554688 488 633.873046875 c 0
 488 753.727539062 389.981445312 851.74609375 270.126953125 851.74609375 c 0
270.126953125 771.74609375 m 0
 346.74609375 771.74609375 408 710.4921875 408 633.873046875 c 0
 408 557.25390625 346.74609375 496 270.126953125 496 c 0
 193.5078125 496 132.251953125 557.25390625 132.251953125 633.873046875 c 0
 132.251953125 710.4921875 193.5078125 771.74609375 270.126953125 771.74609375 c 0
EndSplineSet
Validated: 524329
Ligature2: "'liga' Standard Ligatures in Latin lookup 0 subtable" s s s i
EndChar

StartChar: sssu
Encoding: 23 -1 23
Width: 1024
VWidth: 904
Flags: W
HStem: -67.7461 80<195.504 344.749 679.386 828.36> 288 80<195.504 344.749 679.386 828.36> 416 80<195.504 344.749> 771.746 80<195.504 344.749>
VStem: 52.252 80<75.5048 224.749 559.251 708.495> 408 80<75.5048 224.749 559.251 708.495>
AnchorPoint: "accent" 0 -120 basechar 0
LayerCount: 2
Fore
SplineSet
753.873046875 368 m 0
 634.01953125 368 536 269.981445312 536 150.126953125 c 0
 536 30.2724609375 634.01953125 -67.748046875 753.873046875 -67.748046875 c 0
 873.727539062 -67.748046875 971.74609375 30.2724609375 971.74609375 150.126953125 c 0
 971.74609375 269.981445312 873.727539062 368 753.873046875 368 c 0
753.873046875 288 m 0
 816.555664062 288 868.931640625 246.994140625 885.919921875 190.126953125 c 1
 621.826171875 190.126953125 l 1
 638.814453125 246.994140625 691.19140625 288 753.873046875 288 c 0
621.826171875 110.126953125 m 1
 885.919921875 110.126953125 l 1
 868.931640625 53.259765625 816.555664062 12.251953125 753.873046875 12.251953125 c 0
 691.19140625 12.251953125 638.814453125 53.259765625 621.826171875 110.126953125 c 1
270.126953125 368 m 0
 150.272460938 368 52.251953125 269.981445312 52.251953125 150.126953125 c 0
 52.251953125 30.2724609375 150.272460938 -67.74609375 270.126953125 -67.74609375 c 0
 389.981445312 -67.74609375 488 30.2724609375 488 150.126953125 c 0
 488 269.981445312 389.981445312 368 270.126953125 368 c 0
270.126953125 288 m 0
 346.74609375 288 408 226.74609375 408 150.126953125 c 0
 408 73.5078125 346.74609375 12.25390625 270.126953125 12.25390625 c 0
 193.5078125 12.25390625 132.251953125 73.5078125 132.251953125 150.126953125 c 0
 132.251953125 226.74609375 193.5078125 288 270.126953125 288 c 0
270.126953125 851.74609375 m 0
 150.272460938 851.74609375 52.251953125 753.727539062 52.251953125 633.873046875 c 0
 52.251953125 514.018554688 150.272460938 416 270.126953125 416 c 0
 389.981445312 416 488 514.018554688 488 633.873046875 c 0
 488 753.727539062 389.981445312 851.74609375 270.126953125 851.74609375 c 0
270.126953125 771.74609375 m 0
 346.74609375 771.74609375 408 710.4921875 408 633.873046875 c 0
 408 557.25390625 346.74609375 496 270.126953125 496 c 0
 193.5078125 496 132.251953125 557.25390625 132.251953125 633.873046875 c 0
 132.251953125 710.4921875 193.5078125 771.74609375 270.126953125 771.74609375 c 0
EndSplineSet
Validated: 524297
Ligature2: "'liga' Standard Ligatures in Latin lookup 0 subtable" s s s u
EndChar

StartChar: su
Encoding: 24 -1 24
Width: 1024
VWidth: 904
Flags: W
HStem: 110.127 80<562.412 945.335> 415.999 80<195.64 344.614> 673.874 21G<138.08 402.174> 771.747 80<195.64 344.614>
VStem: 230.127 80<-41.3349 341.588>
AnchorPoint: "accent" 0 -120 basechar 0
LayerCount: 2
Fore
SplineSet
949.698242188 150.126953125 m 0
 949.698242188 127.966796875 931.857421875 110.126953125 909.698242188 110.126953125 c 2
 598.048828125 110.126953125 l 2
 575.888671875 110.126953125 558.048828125 127.966796875 558.048828125 150.126953125 c 0
 558.048828125 172.286132812 575.888671875 190.126953125 598.048828125 190.126953125 c 2
 909.698242188 190.126953125 l 2
 931.857421875 190.126953125 949.698242188 172.286132812 949.698242188 150.126953125 c 0
270.126953125 345.951171875 m 0
 292.287109375 345.951171875 310.126953125 328.111328125 310.126953125 305.951171875 c 2
 310.126953125 -5.6982421875 l 2
 310.126953125 -27.857421875 292.287109375 -45.6982421875 270.126953125 -45.6982421875 c 0
 247.966796875 -45.6982421875 230.126953125 -27.857421875 230.126953125 -5.6982421875 c 2
 230.126953125 305.951171875 l 2
 230.126953125 328.111328125 247.966796875 345.951171875 270.126953125 345.951171875 c 0
270.126953125 851.747070312 m 0
 150.272460938 851.747070312 52.25390625 753.728515625 52.25390625 633.874023438 c 0
 52.25390625 514.020507812 150.272460938 415.999023438 270.126953125 415.999023438 c 0
 389.981445312 415.999023438 488 514.020507812 488 633.874023438 c 0
 488 753.728515625 389.981445312 851.747070312 270.126953125 851.747070312 c 0
270.126953125 771.747070312 m 0
 332.809570312 771.747070312 385.185546875 730.741210938 402.173828125 673.874023438 c 1
 138.080078125 673.874023438 l 1
 155.068359375 730.741210938 207.444335938 771.747070312 270.126953125 771.747070312 c 0
138.080078125 593.874023438 m 1
 402.173828125 593.874023438 l 1
 385.185546875 537.006835938 332.809570312 495.999023438 270.126953125 495.999023438 c 0
 207.444335938 495.999023438 155.068359375 537.006835938 138.080078125 593.874023438 c 1
EndSplineSet
Validated: 524297
Ligature2: "'liga' Standard Ligatures in Latin lookup 0 subtable" s u
EndChar

StartChar: period
Encoding: 25 46 25
Width: 512
VWidth: 904
Flags: W
HStem: -68 33.0469<230.975 309.279> 78.9521 33.0469<230.975 309.279>
VStem: 180.127 33.0459<-17.1519 61.1509> 327.08 33.0469<-17.1519 61.1509>
LayerCount: 2
Fore
SplineSet
270.126953125 111.999023438 m 0
 220.6171875 111.999023438 180.126953125 71.509765625 180.126953125 21.9990234375 c 0
 180.126953125 -27.509765625 220.6171875 -68 270.126953125 -68 c 0
 319.63671875 -68 360.126953125 -27.509765625 360.126953125 21.9990234375 c 0
 360.126953125 71.509765625 319.63671875 111.999023438 270.126953125 111.999023438 c 0
270.126953125 78.9521484375 m 0
 301.77734375 78.9521484375 327.080078125 53.6494140625 327.080078125 21.9990234375 c 0
 327.080078125 -9.650390625 301.77734375 -34.953125 270.126953125 -34.953125 c 0
 238.4765625 -34.953125 213.172851562 -9.650390625 213.172851562 21.9990234375 c 0
 213.172851562 53.6494140625 238.4765625 78.9521484375 270.126953125 78.9521484375 c 0
EndSplineSet
Validated: 524297
EndChar

StartChar: ta
Encoding: 26 -1 26
Width: 1024
VWidth: 904
Flags: W
HStem: 110.127 80<562.412 945.335> 437.838 80.4688<161.397 230.374>
VStem: 230.127 80<-41.1241 341.799>
AnchorPoint: "accent" 0 -120 basechar 0
LayerCount: 2
Fore
SplineSet
270.340820312 829.908203125 m 0
 255.618164062 829.90625 242.775390625 821.838867188 235.899414062 809.794921875 c 0
 235.874023438 809.751953125 146.983398438 653.986328125 146.983398438 653.986328125 c 1
 58.068359375 498.177734375 l 2
 54.7041015625 492.280273438 52.7763671875 485.440429688 52.7705078125 478.147460938 c 0
 52.7509765625 455.942382812 70.5595703125 437.899414062 92.5126953125 437.880859375 c 0
 92.5234375 437.880859375 92.5078125 437.837890625 92.5185546875 437.837890625 c 0
 92.5439453125 437.880859375 270.377929688 437.861328125 270.377929688 437.861328125 c 1
 448.237304688 437.880859375 l 2
 470.16796875 437.888671875 487.98046875 455.891601562 487.999023438 478.080078125 c 0
 488.004882812 485.3984375 486.05078125 492.307617188 482.674804688 498.224609375 c 1
 482.69921875 498.181640625 393.733398438 654.013671875 393.733398438 654.013671875 c 1
 304.788085938 809.80078125 l 2
 297.916992188 821.831054688 285.06640625 829.939453125 270.353515625 829.951171875 c 0
 270.340820312 829.951171875 270.353515625 829.908203125 270.340820312 829.908203125 c 0
230.374023438 639.171875 m 1
 230.374023438 518.3125 l 1
 161.397460938 518.306640625 l 1
 215.875976562 613.765625 l 1
 230.374023438 639.171875 l 1
310.374023438 639.12890625 m 1
 324.848632812 613.77734375 l 1
 379.340820312 518.330078125 l 1
 310.374023438 518.322265625 l 1
 310.374023438 639.12890625 l 1
270.126953125 346.162109375 m 0
 292.287109375 346.162109375 310.126953125 328.322265625 310.126953125 306.162109375 c 2
 310.126953125 -5.4873046875 l 2
 310.126953125 -27.6474609375 292.287109375 -45.4873046875 270.126953125 -45.4873046875 c 0
 247.966796875 -45.4873046875 230.126953125 -27.6474609375 230.126953125 -5.4873046875 c 2
 230.126953125 306.162109375 l 2
 230.126953125 328.322265625 247.966796875 346.162109375 270.126953125 346.162109375 c 0
949.698242188 150.126953125 m 0
 949.698242188 127.966796875 931.857421875 110.126953125 909.698242188 110.126953125 c 2
 598.048828125 110.126953125 l 2
 575.888671875 110.126953125 558.048828125 127.966796875 558.048828125 150.126953125 c 0
 558.048828125 172.286132812 575.888671875 190.126953125 598.048828125 190.126953125 c 2
 909.698242188 190.126953125 l 2
 931.857421875 190.126953125 949.698242188 172.286132812 949.698242188 150.126953125 c 0
EndSplineSet
Validated: 524329
Ligature2: "'liga' Standard Ligatures in Latin lookup 0 subtable" t a
EndChar

StartChar: u
Encoding: 27 117 27
Width: 1024
VWidth: 904
Flags: W
HStem: 593.873 80<78.6651 461.588>
AnchorPoint: "accent" 0 -120 basechar 0
LayerCount: 2
Fore
SplineSet
465.951171875 633.873046875 m 0
 465.951171875 611.712890625 448.111328125 593.873046875 425.951171875 593.873046875 c 2
 114.301757812 593.873046875 l 2
 92.142578125 593.873046875 74.3017578125 611.712890625 74.3017578125 633.873046875 c 0
 74.3017578125 656.033203125 92.142578125 673.873046875 114.301757812 673.873046875 c 2
 425.951171875 673.873046875 l 2
 448.111328125 673.873046875 465.951171875 656.033203125 465.951171875 633.873046875 c 0
EndSplineSet
Validated: 524289
EndChar

StartChar: ssma
Encoding: 28 -1 28
Width: 1024
VWidth: 904
Flags: W
HStem: -67.7461 80<195.504 344.749 616.128 640.854 866.888 891.617> 288 80<195.504 344.749 616.127 640.854 866.888 891.617> 416.001 80<195.504 344.749> 771.747 80<195.504 344.749>
VStem: 52.252 80<75.5048 224.749 559.252 708.496> 408 80<75.5048 224.749 559.252 708.496> 535.999 80<12.3823 37.1094 263.143 287.871> 891.745 80<12.3823 37.1094 37.2732 287.872>
AnchorPoint: "accent" 0 -120 basechar 0
LayerCount: 2
Fore
SplineSet
270.126953125 368 m 0
 150.272460938 368 52.251953125 269.981445312 52.251953125 150.126953125 c 0
 52.251953125 30.2724609375 150.272460938 -67.74609375 270.126953125 -67.74609375 c 0
 389.981445312 -67.74609375 488 30.2724609375 488 150.126953125 c 0
 488 269.981445312 389.981445312 368 270.126953125 368 c 0
270.126953125 288 m 0
 346.74609375 288 408 226.74609375 408 150.126953125 c 0
 408 73.5078125 346.74609375 12.25390625 270.126953125 12.25390625 c 0
 193.5078125 12.25390625 132.251953125 73.5078125 132.251953125 150.126953125 c 0
 132.251953125 226.74609375 193.5078125 288 270.126953125 288 c 0
605.239257812 368 m 2
 567.573242188 368 535.999023438 336.426757812 535.999023438 298.759765625 c 2
 535.999023438 1.4921875 l 2
 535.999023438 -36.1748046875 567.573242188 -67.74609375 605.239257812 -67.74609375 c 2
 902.506835938 -67.74609375 l 2
 940.173828125 -67.74609375 971.745117188 -36.1748046875 971.745117188 1.4921875 c 2
 971.745117188 298.759765625 l 2
 971.745117188 336.426757812 940.173828125 368 902.506835938 368 c 2
 605.239257812 368 l 2
640.854492188 288 m 2
 713.872070312 288 l 1
 713.872070312 12.25390625 l 1
 640.854492188 12.25390625 l 2
 627.13671875 12.25390625 616 23.3916015625 615.999023438 37.109375 c 1
 615.999023438 263.142578125 l 2
 615.999023438 276.861328125 627.13671875 287.999023438 640.854492188 288 c 2
793.872070312 288 m 1
 866.887695312 288 l 2
 880.606445312 288 891.745117188 276.861328125 891.745117188 263.142578125 c 1
 891.744140625 263.143554688 891.745117188 37.109375 891.745117188 37.109375 c 2
 891.745117188 23.3916015625 880.606445312 12.25390625 866.887695312 12.25390625 c 1
 866.888671875 12.25390625 793.872070312 12.25390625 793.872070312 12.25390625 c 1
 793.872070312 288 l 1
270.126953125 851.747070312 m 0
 150.272460938 851.747070312 52.251953125 753.727539062 52.251953125 633.874023438 c 0
 52.251953125 514.01953125 150.272460938 416.000976562 270.126953125 416.000976562 c 0
 389.981445312 416.000976562 488 514.01953125 488 633.874023438 c 0
 488 753.727539062 389.981445312 851.747070312 270.126953125 851.747070312 c 0
270.126953125 771.747070312 m 0
 346.74609375 771.747070312 408 710.493164062 408 633.874023438 c 0
 408 557.254882812 346.74609375 496.000976562 270.126953125 496.000976562 c 0
 193.5078125 496.000976562 132.251953125 557.254882812 132.251953125 633.874023438 c 0
 132.251953125 710.493164062 193.5078125 771.747070312 270.126953125 771.747070312 c 0
EndSplineSet
Validated: 524329
Ligature2: "'liga' Standard Ligatures in Latin lookup 0 subtable" s s m a
EndChar

StartChar: ssmi
Encoding: 29 -1 29
Width: 1024
VWidth: 904
Flags: W
HStem: -67.7461 80<195.504 344.749 866.89 891.617> 288 80<195.504 344.749 616.127 640.856> 416 80<195.504 344.749> 771.746 80<195.504 344.749>
VStem: 52.252 80<75.5048 224.749 559.251 708.495> 408 80<75.5048 224.749 559.251 708.495>
AnchorPoint: "accent" 0 -120 basechar 0
LayerCount: 2
Fore
SplineSet
605.239257812 368 m 2
 567.573242188 368 535.999023438 336.426757812 535.999023438 298.759765625 c 2
 535.999023438 1.4921875 l 2
 535.999023438 -36.1748046875 567.573242188 -67.74609375 605.239257812 -67.74609375 c 2
 902.506835938 -67.74609375 l 2
 940.173828125 -67.74609375 971.745117188 -36.1748046875 971.745117188 1.4921875 c 2
 971.745117188 298.759765625 l 2
 971.745117188 336.426757812 940.173828125 368 902.506835938 368 c 2
 605.239257812 368 l 2
640.856445312 288 m 2
 835.176757812 288 l 1
 615.999023438 68.822265625 l 1
 615.999023438 263.142578125 l 2
 615.999023438 276.861328125 627.137695312 288 640.856445312 288 c 2
891.745117188 231.4296875 m 1
 891.745117188 37.109375 l 2
 891.745117188 23.3916015625 880.607421875 12.25390625 866.889648438 12.25390625 c 1
 672.569335938 12.25390625 l 1
 891.745117188 231.4296875 l 1
270.126953125 368 m 0
 150.272460938 368 52.251953125 269.981445312 52.251953125 150.126953125 c 0
 52.251953125 30.2724609375 150.272460938 -67.74609375 270.126953125 -67.74609375 c 0
 389.981445312 -67.74609375 488 30.2724609375 488 150.126953125 c 0
 488 269.981445312 389.981445312 368 270.126953125 368 c 0
270.126953125 288 m 0
 346.74609375 288 408 226.74609375 408 150.126953125 c 0
 408 73.5078125 346.74609375 12.25390625 270.126953125 12.25390625 c 0
 193.5078125 12.25390625 132.251953125 73.5078125 132.251953125 150.126953125 c 0
 132.251953125 226.74609375 193.5078125 288 270.126953125 288 c 0
270.126953125 851.74609375 m 0
 150.272460938 851.74609375 52.251953125 753.727539062 52.251953125 633.873046875 c 0
 52.251953125 514.018554688 150.272460938 416 270.126953125 416 c 0
 389.981445312 416 488 514.018554688 488 633.873046875 c 0
 488 753.727539062 389.981445312 851.74609375 270.126953125 851.74609375 c 0
270.126953125 771.74609375 m 0
 346.74609375 771.74609375 408 710.4921875 408 633.873046875 c 0
 408 557.25390625 346.74609375 496 270.126953125 496 c 0
 193.5078125 496 132.251953125 557.25390625 132.251953125 633.873046875 c 0
 132.251953125 710.4921875 193.5078125 771.74609375 270.126953125 771.74609375 c 0
EndSplineSet
Validated: 524297
Ligature2: "'liga' Standard Ligatures in Latin lookup 0 subtable" s s m i
EndChar

StartChar: ssmu
Encoding: 30 -1 30
Width: 1024
VWidth: 904
Flags: W
HStem: -67.7461 80<195.504 344.749 616.13 640.858 866.892 891.619> 288 80<195.504 344.749 616.129 640.858 866.892 891.619> 416 80<195.504 344.749> 771.746 80<195.504 344.749>
VStem: 52.252 80<75.505 224.749 559.251 708.495> 408 80<75.505 224.749 559.251 708.495> 536.001 80<12.3823 37.1094 263.143 287.872> 891.747 80<12.3823 37.1094 263.143 287.871>
AnchorPoint: "accent" 0 -120 basechar 0
LayerCount: 2
Fore
SplineSet
605.239257812 368 m 2
 567.573242188 368 536.000976562 336.426757812 536.000976562 298.759765625 c 2
 536.000976562 1.4921875 l 2
 536.000976562 -36.1748046875 567.573242188 -67.74609375 605.239257812 -67.74609375 c 2
 902.506835938 -67.74609375 l 2
 940.173828125 -67.74609375 971.747070312 -36.1748046875 971.747070312 1.4921875 c 2
 971.747070312 298.759765625 l 2
 971.747070312 336.426757812 940.173828125 368 902.506835938 368 c 2
 605.239257812 368 l 2
640.858398438 288 m 2
 866.891601562 288 l 2
 880.610351562 287.999023438 891.747070312 276.861328125 891.747070312 263.142578125 c 1
 891.747070312 263.143554688 891.747070312 190.126953125 891.747070312 190.126953125 c 1
 616.000976562 190.126953125 l 1
 616.000976562 263.142578125 l 2
 616.000976562 276.861328125 627.139648438 288 640.858398438 288 c 2
616.000976562 110.126953125 m 1
 891.747070312 110.126953125 l 1
 891.747070312 37.109375 l 2
 891.747070312 23.3916015625 880.609375 12.25390625 866.891601562 12.25390625 c 1
 640.858398438 12.25390625 l 2
 627.140625 12.25390625 616.001953125 23.3916015625 616.000976562 37.109375 c 1
 616.001953125 37.109375 616.000976562 110.126953125 616.000976562 110.126953125 c 1
270.126953125 368 m 0
 150.272460938 368 52.251953125 269.981445312 52.251953125 150.126953125 c 0
 52.251953125 30.2734375 150.272460938 -67.74609375 270.126953125 -67.74609375 c 0
 389.981445312 -67.74609375 488 30.2734375 488 150.126953125 c 0
 488 269.981445312 389.981445312 368 270.126953125 368 c 0
270.126953125 288 m 0
 346.74609375 288 408 226.74609375 408 150.126953125 c 0
 408 73.5078125 346.74609375 12.25390625 270.126953125 12.25390625 c 0
 193.5078125 12.25390625 132.251953125 73.5078125 132.251953125 150.126953125 c 0
 132.251953125 226.74609375 193.5078125 288 270.126953125 288 c 0
270.126953125 851.74609375 m 0
 150.272460938 851.74609375 52.251953125 753.727539062 52.251953125 633.873046875 c 0
 52.251953125 514.018554688 150.272460938 416 270.126953125 416 c 0
 389.981445312 416 488 514.018554688 488 633.873046875 c 0
 488 753.727539062 389.981445312 851.74609375 270.126953125 851.74609375 c 0
270.126953125 771.74609375 m 0
 346.74609375 771.74609375 408 710.4921875 408 633.873046875 c 0
 408 557.25390625 346.74609375 496 270.126953125 496 c 0
 193.5078125 496 132.251953125 557.25390625 132.251953125 633.873046875 c 0
 132.251953125 710.4921875 193.5078125 771.74609375 270.126953125 771.74609375 c 0
EndSplineSet
Validated: 524329
Ligature2: "'liga' Standard Ligatures in Latin lookup 0 subtable" s s m u
EndChar

StartChar: sst
Encoding: 31 -1 31
Width: 1024
VWidth: 904
Flags: W
HStem: -67.7461 80<195.504 344.749> -45.9082 80.4668<644.652 753.504> 288 80<195.504 344.749> 416 80<195.504 344.749> 771.746 80<195.504 344.749>
VStem: 52.252 80<75.5048 224.749 559.251 708.495> 408 80<75.5048 224.749 559.251 708.495>
AnchorPoint: "accent" 0 -120 basechar 0
LayerCount: 2
Fore
SplineSet
270.126953125 368 m 0xbe
 150.272460938 368 52.251953125 269.981445312 52.251953125 150.126953125 c 0
 52.251953125 30.2724609375 150.272460938 -67.74609375 270.126953125 -67.74609375 c 0
 389.981445312 -67.74609375 488 30.2724609375 488 150.126953125 c 0
 488 269.981445312 389.981445312 368 270.126953125 368 c 0xbe
270.126953125 288 m 0
 346.74609375 288 408 226.74609375 408 150.126953125 c 0
 408 73.5078125 346.74609375 12.25390625 270.126953125 12.25390625 c 0
 193.5078125 12.25390625 132.251953125 73.5078125 132.251953125 150.126953125 c 0
 132.251953125 226.74609375 193.5078125 288 270.126953125 288 c 0
753.595703125 346.162109375 m 0
 738.874023438 346.16015625 726.03125 338.091796875 719.155273438 326.048828125 c 0
 719.129882812 326.005859375 630.23828125 170.23828125 630.23828125 170.23828125 c 1
 541.32421875 14.4306640625 l 2
 537.959960938 8.533203125 536.03125 1.693359375 536.025390625 -5.5986328125 c 0
 536.006835938 -27.8037109375 553.814453125 -45.8466796875 575.767578125 -45.865234375 c 0
 575.778320312 -45.865234375 575.762695312 -45.908203125 575.7734375 -45.908203125 c 0x7e
 575.798828125 -45.865234375 753.6328125 -45.88671875 753.6328125 -45.88671875 c 1
 931.491210938 -45.8671875 l 2
 953.422851562 -45.8603515625 971.236328125 -27.857421875 971.254882812 -5.66796875 c 0
 971.26171875 1.650390625 969.306640625 8.5595703125 965.9296875 14.4775390625 c 1
 965.954101562 14.4345703125 876.987304688 170.266601562 876.987304688 170.266601562 c 1
 788.041992188 326.0546875 l 2
 781.170898438 338.084960938 768.3203125 346.192382812 753.608398438 346.205078125 c 0
 753.595703125 346.205078125 753.608398438 346.162109375 753.595703125 346.162109375 c 0
753.606445312 225.479492188 m 1
 808.102539062 130.03125 l 1
 862.595703125 34.5830078125 l 1
 753.624023438 34.5693359375 l 1
 644.65234375 34.55859375 l 1
 699.130859375 130.017578125 l 1
 753.606445312 225.479492188 l 1
270.126953125 851.74609375 m 0
 150.272460938 851.74609375 52.251953125 753.727539062 52.251953125 633.873046875 c 0
 52.251953125 514.018554688 150.272460938 416 270.126953125 416 c 0
 389.981445312 416 488 514.018554688 488 633.873046875 c 0
 488 753.727539062 389.981445312 851.74609375 270.126953125 851.74609375 c 0
270.126953125 771.74609375 m 0
 346.74609375 771.74609375 408 710.4921875 408 633.873046875 c 0
 408 557.25390625 346.74609375 496 270.126953125 496 c 0
 193.5078125 496 132.251953125 557.25390625 132.251953125 633.873046875 c 0
 132.251953125 710.4921875 193.5078125 771.74609375 270.126953125 771.74609375 c 0
EndSplineSet
Validated: 524329
Ligature2: "'liga' Standard Ligatures in Latin lookup 0 subtable" s s t
EndChar

StartChar: ssta
Encoding: 32 -1 32
Width: 1024
VWidth: 904
Flags: W
HStem: -67.7461 80<195.504 344.749> -45.9082 80.4688<644.898 713.875> 288 80<195.504 344.749> 416.001 80<195.504 344.749> 771.747 80<195.504 344.749>
VStem: 52.252 80<75.5048 224.749 559.252 708.496> 408 80<75.5048 224.749 559.252 708.496>
AnchorPoint: "accent" 0 -120 basechar 0
LayerCount: 2
Fore
SplineSet
270.126953125 368 m 0xbe
 150.272460938 368 52.251953125 269.981445312 52.251953125 150.126953125 c 0
 52.251953125 30.2724609375 150.272460938 -67.74609375 270.126953125 -67.74609375 c 0
 389.981445312 -67.74609375 488 30.2724609375 488 150.126953125 c 0
 488 269.981445312 389.981445312 368 270.126953125 368 c 0xbe
270.126953125 288 m 0
 346.74609375 288 408 226.74609375 408 150.126953125 c 0
 408 73.5078125 346.74609375 12.25390625 270.126953125 12.25390625 c 0
 193.5078125 12.25390625 132.251953125 73.5078125 132.251953125 150.126953125 c 0
 132.251953125 226.74609375 193.5078125 288 270.126953125 288 c 0
753.841796875 346.162109375 m 0
 739.119140625 346.16015625 726.276367188 338.091796875 719.400390625 326.048828125 c 0
 719.375 326.005859375 630.484375 170.240234375 630.484375 170.240234375 c 1
 541.569335938 14.431640625 l 2
 538.205078125 8.533203125 536.27734375 1.693359375 536.271484375 -5.5986328125 c 0
 536.251953125 -27.8037109375 554.060546875 -45.8466796875 576.013671875 -45.865234375 c 0
 576.024414062 -45.865234375 576.008789062 -45.908203125 576.01953125 -45.908203125 c 0x7e
 576.044921875 -45.865234375 753.87890625 -45.884765625 753.87890625 -45.884765625 c 1
 931.73828125 -45.865234375 l 2
 953.668945312 -45.857421875 971.481445312 -27.85546875 971.5 -5.666015625 c 0
 971.505859375 1.6513671875 969.551757812 8.560546875 966.17578125 14.478515625 c 1
 966.200195312 14.4345703125 877.234375 170.267578125 877.234375 170.267578125 c 1
 788.2890625 326.0546875 l 2
 781.41796875 338.084960938 768.567382812 346.192382812 753.854492188 346.205078125 c 0
 753.841796875 346.205078125 753.854492188 346.162109375 753.841796875 346.162109375 c 0
713.875 155.42578125 m 1
 713.875 34.56640625 l 1
 644.8984375 34.560546875 l 1
 699.376953125 130.01953125 l 1
 713.875 155.42578125 l 1
793.875 155.3828125 m 1
 808.349609375 130.03125 l 1
 862.841796875 34.583984375 l 1
 793.875 34.5751953125 l 1
 793.875 155.3828125 l 1
270.126953125 851.747070312 m 0
 150.272460938 851.747070312 52.251953125 753.727539062 52.251953125 633.874023438 c 0
 52.251953125 514.01953125 150.272460938 416.000976562 270.126953125 416.000976562 c 0
 389.981445312 416.000976562 488 514.01953125 488 633.874023438 c 0
 488 753.727539062 389.981445312 851.747070312 270.126953125 851.747070312 c 0
270.126953125 771.747070312 m 0
 346.74609375 771.747070312 408 710.493164062 408 633.874023438 c 0
 408 557.254882812 346.74609375 496.000976562 270.126953125 496.000976562 c 0
 193.5078125 496.000976562 132.251953125 557.254882812 132.251953125 633.874023438 c 0
 132.251953125 710.493164062 193.5078125 771.747070312 270.126953125 771.747070312 c 0
EndSplineSet
Validated: 524329
Ligature2: "'liga' Standard Ligatures in Latin lookup 0 subtable" s s t a
EndChar

StartChar: ssadash
Encoding: 33 -1 33
Width: 1024
VWidth: 904
Flags: W
HStem: 110.127 80<562.412 945.335> 416.001 80<195.504 344.749> 771.747 80<195.504 344.749>
VStem: 52.252 80<75.6396 224.614 559.252 708.496> 408 80<75.6396 224.614 559.252 708.496>
AnchorPoint: "accent" 0 -120 basechar 0
LayerCount: 2
Fore
SplineSet
270.126953125 368 m 0
 150.272460938 368 52.251953125 269.981445312 52.251953125 150.126953125 c 0
 52.251953125 30.2724609375 150.272460938 -67.74609375 270.126953125 -67.74609375 c 0
 389.98046875 -67.74609375 488 30.2724609375 488 150.126953125 c 0
 488 269.981445312 389.98046875 368 270.126953125 368 c 0
230.126953125 282.173828125 m 1
 230.126953125 18.080078125 l 1
 173.258789062 35.068359375 132.251953125 87.4443359375 132.251953125 150.126953125 c 0
 132.251953125 212.809570312 173.258789062 265.185546875 230.126953125 282.173828125 c 1
310.126953125 282.173828125 m 1
 366.994140625 265.185546875 408 212.809570312 408 150.126953125 c 0
 408 87.4443359375 366.994140625 35.068359375 310.126953125 18.080078125 c 1
 310.126953125 282.173828125 l 1
949.698242188 150.126953125 m 0
 949.698242188 127.966796875 931.857421875 110.126953125 909.698242188 110.126953125 c 2
 598.048828125 110.126953125 l 2
 575.888671875 110.126953125 558.048828125 127.966796875 558.048828125 150.126953125 c 0
 558.048828125 172.286132812 575.888671875 190.126953125 598.048828125 190.126953125 c 2
 909.698242188 190.126953125 l 2
 931.857421875 190.126953125 949.698242188 172.286132812 949.698242188 150.126953125 c 0
270.126953125 851.747070312 m 0
 150.272460938 851.747070312 52.251953125 753.727539062 52.251953125 633.874023438 c 0
 52.251953125 514.01953125 150.272460938 416.000976562 270.126953125 416.000976562 c 0
 389.981445312 416.000976562 488 514.01953125 488 633.874023438 c 0
 488 753.727539062 389.981445312 851.747070312 270.126953125 851.747070312 c 0
270.126953125 771.747070312 m 0
 346.74609375 771.747070312 408 710.493164062 408 633.874023438 c 0
 408 557.254882812 346.74609375 496.000976562 270.126953125 496.000976562 c 0
 193.5078125 496.000976562 132.251953125 557.254882812 132.251953125 633.874023438 c 0
 132.251953125 710.493164062 193.5078125 771.747070312 270.126953125 771.747070312 c 0
EndSplineSet
Validated: 524297
Ligature2: "'liga' Standard Ligatures in Latin lookup 0 subtable" s s a dash
EndChar

StartChar: ssas
Encoding: 34 -1 34
Width: 1024
VWidth: 904
Flags: W
HStem: -67.7461 80<679.25 828.495> 288 80<679.25 828.495> 416 80<195.504 344.749> 771.746 80<195.504 344.749>
VStem: 52.252 80<75.639 224.613 559.251 708.495> 408 80<75.639 224.613 559.251 708.495> 535.998 80<75.5048 224.749> 891.746 80<75.5048 224.749>
AnchorPoint: "accent" 0 -120 basechar 0
LayerCount: 2
Fore
SplineSet
270.126953125 367.999023438 m 0
 150.272460938 367.999023438 52.251953125 269.98046875 52.251953125 150.125976562 c 0
 52.251953125 30.2724609375 150.272460938 -67.7470703125 270.126953125 -67.7470703125 c 0
 389.981445312 -67.7470703125 488 30.2724609375 488 150.125976562 c 0
 488 269.98046875 389.981445312 367.999023438 270.126953125 367.999023438 c 0
230.126953125 282.172851562 m 1
 230.126953125 18.0791015625 l 1
 173.259765625 35.0673828125 132.251953125 87.4443359375 132.251953125 150.125976562 c 0
 132.251953125 212.80859375 173.259765625 265.184570312 230.126953125 282.172851562 c 1
310.126953125 282.172851562 m 1
 366.994140625 265.184570312 408 212.80859375 408 150.125976562 c 0
 408 87.4443359375 366.994140625 35.0673828125 310.126953125 18.0791015625 c 1
 310.126953125 282.172851562 l 1
753.873046875 368 m 0
 634.018554688 368 535.998046875 269.981445312 535.998046875 150.126953125 c 0
 535.998046875 30.2724609375 634.018554688 -67.74609375 753.873046875 -67.74609375 c 0
 873.727539062 -67.74609375 971.74609375 30.2724609375 971.74609375 150.126953125 c 0
 971.74609375 269.981445312 873.727539062 368 753.873046875 368 c 0
753.873046875 288 m 0
 830.4921875 288 891.74609375 226.74609375 891.74609375 150.126953125 c 0
 891.74609375 73.5078125 830.4921875 12.25390625 753.873046875 12.25390625 c 0
 677.25390625 12.25390625 615.998046875 73.5078125 615.998046875 150.126953125 c 0
 615.998046875 226.74609375 677.25390625 288 753.873046875 288 c 0
270.126953125 851.74609375 m 0
 150.272460938 851.74609375 52.251953125 753.727539062 52.251953125 633.873046875 c 0
 52.251953125 514.018554688 150.272460938 416 270.126953125 416 c 0
 389.981445312 416 488 514.018554688 488 633.873046875 c 0
 488 753.727539062 389.981445312 851.74609375 270.126953125 851.74609375 c 0
270.126953125 771.74609375 m 0
 346.74609375 771.74609375 408 710.4921875 408 633.873046875 c 0
 408 557.25390625 346.74609375 496 270.126953125 496 c 0
 193.5078125 496 132.251953125 557.25390625 132.251953125 633.873046875 c 0
 132.251953125 710.4921875 193.5078125 771.74609375 270.126953125 771.74609375 c 0
EndSplineSet
Validated: 524297
Ligature2: "'liga' Standard Ligatures in Latin lookup 0 subtable" s s a s
EndChar

StartChar: ssasa
Encoding: 35 -1 35
Width: 1024
VWidth: 904
Flags: W
HStem: 416 80<195.504 344.749> 771.746 80<195.504 344.749>
VStem: 52.252 80<75.6396 224.614 559.251 708.495> 408 80<75.6396 224.614 559.251 708.495> 536 80<75.6396 224.614> 891.748 80<75.6396 224.614>
AnchorPoint: "accent" 0 -120 basechar 0
LayerCount: 2
Fore
SplineSet
753.875 368 m 0
 634.020507812 368 536 269.981445312 536 150.126953125 c 0
 536 30.2724609375 634.020507812 -67.74609375 753.875 -67.74609375 c 0
 873.729492188 -67.74609375 971.748046875 30.2724609375 971.748046875 150.126953125 c 0
 971.748046875 269.981445312 873.729492188 368 753.875 368 c 0
713.875 282.173828125 m 1
 713.875 18.080078125 l 1
 657.0078125 35.068359375 616 87.4443359375 616 150.126953125 c 0
 616 212.809570312 657.0078125 265.185546875 713.875 282.173828125 c 1
793.875 282.173828125 m 1
 850.7421875 265.185546875 891.748046875 212.809570312 891.748046875 150.126953125 c 0
 891.748046875 87.4443359375 850.7421875 35.068359375 793.875 18.080078125 c 1
 793.875 282.173828125 l 1
270.126953125 368 m 0
 150.272460938 368 52.251953125 269.98046875 52.251953125 150.126953125 c 0
 52.251953125 30.2724609375 150.272460938 -67.74609375 270.126953125 -67.74609375 c 0
 389.981445312 -67.74609375 488 30.2724609375 488 150.126953125 c 0
 488 269.98046875 389.981445312 368 270.126953125 368 c 0
230.126953125 282.173828125 m 1
 230.126953125 18.080078125 l 1
 173.259765625 35.068359375 132.251953125 87.4443359375 132.251953125 150.126953125 c 0
 132.251953125 212.80859375 173.259765625 265.185546875 230.126953125 282.173828125 c 1
310.126953125 282.173828125 m 1
 366.994140625 265.185546875 408 212.80859375 408 150.126953125 c 0
 408 87.4443359375 366.994140625 35.068359375 310.126953125 18.080078125 c 1
 310.126953125 282.173828125 l 1
270.126953125 851.74609375 m 0
 150.272460938 851.74609375 52.251953125 753.727539062 52.251953125 633.873046875 c 0
 52.251953125 514.018554688 150.272460938 416 270.126953125 416 c 0
 389.981445312 416 488 514.018554688 488 633.873046875 c 0
 488 753.727539062 389.981445312 851.74609375 270.126953125 851.74609375 c 0
270.126953125 771.74609375 m 0
 346.74609375 771.74609375 408 710.4921875 408 633.873046875 c 0
 408 557.25390625 346.74609375 496 270.126953125 496 c 0
 193.5078125 496 132.251953125 557.25390625 132.251953125 633.873046875 c 0
 132.251953125 710.4921875 193.5078125 771.74609375 270.126953125 771.74609375 c 0
EndSplineSet
Validated: 524297
Ligature2: "'liga' Standard Ligatures in Latin lookup 0 subtable" s s a s a
EndChar

StartChar: ssasi
Encoding: 36 -1 36
Width: 1024
VWidth: 904
Flags: W
HStem: 288.502 79.498<679.374 818.258> 416 80<195.504 344.749> 771.746 80<195.504 344.749>
VStem: 52.252 80<75.639 224.613 559.251 708.495> 408 80<75.639 224.613 559.251 708.495>
AnchorPoint: "accent" 0 -120 basechar 0
LayerCount: 2
Fore
SplineSet
270.126953125 367.999023438 m 0
 150.272460938 367.999023438 52.251953125 269.98046875 52.251953125 150.125976562 c 0
 52.251953125 30.2724609375 150.272460938 -67.7470703125 270.126953125 -67.7470703125 c 0
 389.98046875 -67.7470703125 488 30.2724609375 488 150.125976562 c 0
 488 269.98046875 389.98046875 367.999023438 270.126953125 367.999023438 c 0
230.126953125 282.172851562 m 1
 230.126953125 18.0791015625 l 1
 173.258789062 35.0673828125 132.251953125 87.4443359375 132.251953125 150.125976562 c 0
 132.251953125 212.80859375 173.258789062 265.184570312 230.126953125 282.172851562 c 1
310.126953125 282.172851562 m 1
 366.994140625 265.184570312 408 212.80859375 408 150.125976562 c 0
 408 87.4443359375 366.994140625 35.0673828125 310.126953125 18.0791015625 c 1
 310.126953125 282.172851562 l 1
270.126953125 851.74609375 m 0
 150.272460938 851.74609375 52.251953125 753.727539062 52.251953125 633.873046875 c 0
 52.251953125 514.018554688 150.272460938 416 270.126953125 416 c 0
 389.981445312 416 488 514.018554688 488 633.873046875 c 0
 488 753.727539062 389.981445312 851.74609375 270.126953125 851.74609375 c 0
270.126953125 771.74609375 m 0
 346.74609375 771.74609375 408 710.4921875 408 633.873046875 c 0
 408 557.25390625 346.74609375 496 270.126953125 496 c 0
 193.5078125 496 132.251953125 557.25390625 132.251953125 633.873046875 c 0
 132.251953125 710.4921875 193.5078125 771.74609375 270.126953125 771.74609375 c 0
753.873046875 368 m 0
 698.03125 368 642.1875 346.8125 599.8125 304.4375 c 0
 515.063476562 219.6875 515.063476562 81.068359375 599.8125 -3.681640625 c 0
 684.5625 -88.431640625 823.182617188 -88.431640625 907.931640625 -3.681640625 c 0
 992.681640625 81.068359375 992.681640625 219.6875 907.931640625 304.4375 c 0
 865.556640625 346.8125 809.715820312 368 753.873046875 368 c 0
753.873046875 288.501953125 m 0
 776.267578125 288.501953125 798.653320312 282.997070312 818.958984375 272.033203125 c 1
 632.216796875 85.291015625 l 1
 604.01953125 137.514648438 612.05859375 203.546875 656.380859375 247.869140625 c 0
 683.469726562 274.958007812 718.671875 288.501953125 753.873046875 288.501953125 c 0
875.52734375 215.46484375 m 1
 903.7265625 163.241210938 895.686523438 97.2099609375 851.36328125 52.88671875 c 0
 807.040039062 8.5634765625 741.008789062 0.5234375 688.78515625 28.72265625 c 1
 875.52734375 215.46484375 l 1
EndSplineSet
Validated: 524329
Ligature2: "'liga' Standard Ligatures in Latin lookup 0 subtable" s s a s i
EndChar

StartChar: ssasu
Encoding: 37 -1 37
Width: 1024
VWidth: 904
Flags: W
HStem: -67.748 80<679.386 828.36> 288 80<679.386 828.36> 416 80<195.504 344.749> 771.746 80<195.504 344.749>
VStem: 52.2529 80<75.6396 224.614 559.251 708.495> 408.001 80<75.6396 224.614 559.251 708.495>
AnchorPoint: "accent" 0 -120 basechar 0
LayerCount: 2
Fore
SplineSet
753.873046875 368 m 0
 634.01953125 368 536 269.981445312 536 150.126953125 c 0
 536 30.2724609375 634.01953125 -67.748046875 753.873046875 -67.748046875 c 0
 873.727539062 -67.748046875 971.74609375 30.2724609375 971.74609375 150.126953125 c 0
 971.74609375 269.981445312 873.727539062 368 753.873046875 368 c 0
753.873046875 288 m 0
 816.555664062 288 868.931640625 246.994140625 885.919921875 190.126953125 c 1
 621.826171875 190.126953125 l 1
 638.814453125 246.994140625 691.19140625 288 753.873046875 288 c 0
621.826171875 110.126953125 m 1
 885.919921875 110.126953125 l 1
 868.931640625 53.259765625 816.555664062 12.251953125 753.873046875 12.251953125 c 0
 691.19140625 12.251953125 638.814453125 53.259765625 621.826171875 110.126953125 c 1
270.127929688 368 m 0
 150.2734375 368 52.2529296875 269.981445312 52.2529296875 150.126953125 c 0
 52.2529296875 30.2724609375 150.2734375 -67.74609375 270.127929688 -67.74609375 c 0
 389.981445312 -67.74609375 488.000976562 30.2724609375 488.000976562 150.126953125 c 0
 488.000976562 269.981445312 389.981445312 368 270.127929688 368 c 0
230.127929688 282.173828125 m 1
 230.127929688 18.080078125 l 1
 173.259765625 35.068359375 132.252929688 87.4443359375 132.252929688 150.126953125 c 0
 132.252929688 212.809570312 173.259765625 265.185546875 230.127929688 282.173828125 c 1
310.127929688 282.173828125 m 1
 366.995117188 265.185546875 408.000976562 212.809570312 408.000976562 150.126953125 c 0
 408.000976562 87.4443359375 366.995117188 35.068359375 310.127929688 18.080078125 c 1
 310.127929688 282.173828125 l 1
270.126953125 851.74609375 m 0
 150.272460938 851.74609375 52.251953125 753.727539062 52.251953125 633.873046875 c 0
 52.251953125 514.018554688 150.272460938 416 270.126953125 416 c 0
 389.981445312 416 488 514.018554688 488 633.873046875 c 0
 488 753.727539062 389.981445312 851.74609375 270.126953125 851.74609375 c 0
270.126953125 771.74609375 m 0
 346.74609375 771.74609375 408 710.4921875 408 633.873046875 c 0
 408 557.25390625 346.74609375 496 270.126953125 496 c 0
 193.5078125 496 132.251953125 557.25390625 132.251953125 633.873046875 c 0
 132.251953125 710.4921875 193.5078125 771.74609375 270.126953125 771.74609375 c 0
EndSplineSet
Validated: 524297
Ligature2: "'liga' Standard Ligatures in Latin lookup 0 subtable" s s a s u
EndChar

StartChar: ssam
Encoding: 38 -1 38
Width: 1024
VWidth: 904
Flags: W
HStem: -67.7461 80<616.127 640.855 866.889 891.617> 288 80<616.127 640.855 866.889 891.617> 416.001 80<195.504 344.749> 771.747 80<195.504 344.749>
VStem: 52.252 80<75.6396 224.614 559.252 708.496> 408 80<75.6396 224.614 559.252 708.496> 535.999 80<12.3823 37.1104 263.144 287.872> 891.745 80<12.3823 37.1104 263.144 287.872>
AnchorPoint: "accent" 0 -120 basechar 0
LayerCount: 2
Fore
SplineSet
270.126953125 368 m 0
 150.272460938 368 52.251953125 269.981445312 52.251953125 150.126953125 c 0
 52.251953125 30.2724609375 150.272460938 -67.74609375 270.126953125 -67.74609375 c 0
 389.98046875 -67.74609375 488 30.2724609375 488 150.126953125 c 0
 488 269.981445312 389.98046875 368 270.126953125 368 c 0
230.126953125 282.173828125 m 1
 230.126953125 18.080078125 l 1
 173.258789062 35.068359375 132.251953125 87.4443359375 132.251953125 150.126953125 c 0
 132.251953125 212.809570312 173.258789062 265.185546875 230.126953125 282.173828125 c 1
310.126953125 282.173828125 m 1
 366.994140625 265.185546875 408 212.809570312 408 150.126953125 c 0
 408 87.4443359375 366.994140625 35.068359375 310.126953125 18.080078125 c 1
 310.126953125 282.173828125 l 1
605.239257812 368 m 2
 567.573242188 368 535.999023438 336.426757812 535.999023438 298.759765625 c 2
 535.999023438 1.4921875 l 2
 535.999023438 -36.1748046875 567.573242188 -67.74609375 605.239257812 -67.74609375 c 2
 902.506835938 -67.74609375 l 2
 940.173828125 -67.74609375 971.745117188 -36.1748046875 971.745117188 1.4921875 c 2
 971.745117188 298.759765625 l 2
 971.745117188 336.426757812 940.173828125 368 902.506835938 368 c 2
 605.239257812 368 l 2
640.85546875 288 m 2
 866.888671875 288 l 2
 880.607421875 288 891.745117188 276.862304688 891.745117188 263.143554688 c 0
 891.745117188 37.1103515625 l 2
 891.745117188 23.3916015625 880.607421875 12.25390625 866.888671875 12.25390625 c 0
 640.85546875 12.25390625 l 2
 627.13671875 12.25390625 615.999023438 23.3916015625 615.999023438 37.1103515625 c 0
 615.999023438 263.143554688 l 2
 615.999023438 276.862304688 627.13671875 288 640.85546875 288 c 2
270.126953125 851.747070312 m 0
 150.272460938 851.747070312 52.251953125 753.727539062 52.251953125 633.874023438 c 0
 52.251953125 514.01953125 150.272460938 416.000976562 270.126953125 416.000976562 c 0
 389.981445312 416.000976562 488 514.01953125 488 633.874023438 c 0
 488 753.727539062 389.981445312 851.747070312 270.126953125 851.747070312 c 0
270.126953125 771.747070312 m 0
 346.74609375 771.747070312 408 710.493164062 408 633.874023438 c 0
 408 557.254882812 346.74609375 496.000976562 270.126953125 496.000976562 c 0
 193.5078125 496.000976562 132.251953125 557.254882812 132.251953125 633.874023438 c 0
 132.251953125 710.493164062 193.5078125 771.747070312 270.126953125 771.747070312 c 0
EndSplineSet
Validated: 524297
Ligature2: "'liga' Standard Ligatures in Latin lookup 0 subtable" s s a m
EndChar

StartChar: ssama
Encoding: 39 -1 39
Width: 1024
VWidth: 904
Flags: W
HStem: -67.7461 80<616.128 640.854 866.888 891.617> 288 80<616.127 640.854 866.888 891.617> 416.001 80<195.504 344.749> 771.747 80<195.504 344.749>
VStem: 52.252 80<75.6396 224.614 559.252 708.496> 408 80<75.6396 224.614 559.252 708.496> 535.999 80<12.3823 37.1094 263.143 287.871> 891.745 80<12.3823 37.1094 37.2732 287.872>
AnchorPoint: "accent" 0 -120 basechar 0
LayerCount: 2
Fore
SplineSet
270.126953125 368 m 0
 150.272460938 368 52.251953125 269.981445312 52.251953125 150.126953125 c 0
 52.251953125 30.2724609375 150.272460938 -67.74609375 270.126953125 -67.74609375 c 0
 389.98046875 -67.74609375 488 30.2724609375 488 150.126953125 c 0
 488 269.981445312 389.98046875 368 270.126953125 368 c 0
230.126953125 282.173828125 m 1
 230.126953125 18.080078125 l 1
 173.258789062 35.068359375 132.251953125 87.4443359375 132.251953125 150.126953125 c 0
 132.251953125 212.809570312 173.258789062 265.185546875 230.126953125 282.173828125 c 1
310.126953125 282.173828125 m 1
 366.994140625 265.185546875 408 212.809570312 408 150.126953125 c 0
 408 87.4443359375 366.994140625 35.068359375 310.126953125 18.080078125 c 1
 310.126953125 282.173828125 l 1
605.239257812 368 m 2
 567.573242188 368 535.999023438 336.426757812 535.999023438 298.759765625 c 2
 535.999023438 1.4921875 l 2
 535.999023438 -36.1748046875 567.573242188 -67.74609375 605.239257812 -67.74609375 c 2
 902.506835938 -67.74609375 l 2
 940.173828125 -67.74609375 971.745117188 -36.1748046875 971.745117188 1.4921875 c 2
 971.745117188 298.759765625 l 2
 971.745117188 336.426757812 940.173828125 368 902.506835938 368 c 2
 605.239257812 368 l 2
640.854492188 288 m 2
 713.872070312 288 l 1
 713.872070312 12.25390625 l 1
 640.854492188 12.25390625 l 2
 627.13671875 12.25390625 616 23.3916015625 615.999023438 37.109375 c 1
 615.999023438 263.142578125 l 2
 615.999023438 276.861328125 627.13671875 287.999023438 640.854492188 288 c 2
793.872070312 288 m 1
 866.887695312 288 l 2
 880.606445312 288 891.745117188 276.861328125 891.745117188 263.142578125 c 1
 891.744140625 263.143554688 891.745117188 37.109375 891.745117188 37.109375 c 2
 891.745117188 23.3916015625 880.606445312 12.25390625 866.887695312 12.25390625 c 1
 866.888671875 12.25390625 793.872070312 12.25390625 793.872070312 12.25390625 c 1
 793.872070312 288 l 1
270.126953125 851.747070312 m 0
 150.272460938 851.747070312 52.251953125 753.727539062 52.251953125 633.874023438 c 0
 52.251953125 514.01953125 150.272460938 416.000976562 270.126953125 416.000976562 c 0
 389.981445312 416.000976562 488 514.01953125 488 633.874023438 c 0
 488 753.727539062 389.981445312 851.747070312 270.126953125 851.747070312 c 0
270.126953125 771.747070312 m 0
 346.74609375 771.747070312 408 710.493164062 408 633.874023438 c 0
 408 557.254882812 346.74609375 496.000976562 270.126953125 496.000976562 c 0
 193.5078125 496.000976562 132.251953125 557.254882812 132.251953125 633.874023438 c 0
 132.251953125 710.493164062 193.5078125 771.747070312 270.126953125 771.747070312 c 0
EndSplineSet
Validated: 524329
Ligature2: "'liga' Standard Ligatures in Latin lookup 0 subtable" s s a m a
EndChar

StartChar: ssami
Encoding: 40 -1 40
Width: 1024
VWidth: 904
Flags: W
HStem: 416 80<195.504 344.749> 771.746 80<195.504 344.749>
VStem: 52.252 80<75.6396 224.614 559.251 708.495> 408 80<75.6396 224.614 559.251 708.495>
AnchorPoint: "accent" 0 -120 basechar 0
LayerCount: 2
Fore
SplineSet
605.239257812 368 m 2
 567.573242188 368 535.999023438 336.426757812 535.999023438 298.759765625 c 2
 535.999023438 1.4921875 l 2
 535.999023438 -36.1748046875 567.573242188 -67.74609375 605.239257812 -67.74609375 c 2
 902.506835938 -67.74609375 l 2
 940.173828125 -67.74609375 971.745117188 -36.1748046875 971.745117188 1.4921875 c 2
 971.745117188 298.759765625 l 2
 971.745117188 336.426757812 940.173828125 368 902.506835938 368 c 2
 605.239257812 368 l 2
640.856445312 288 m 2
 835.176757812 288 l 1
 615.999023438 68.822265625 l 1
 615.999023438 263.142578125 l 2
 615.999023438 276.861328125 627.137695312 288 640.856445312 288 c 2
891.745117188 231.4296875 m 1
 891.745117188 37.109375 l 2
 891.745117188 23.3916015625 880.607421875 12.25390625 866.889648438 12.25390625 c 1
 672.569335938 12.25390625 l 1
 891.745117188 231.4296875 l 1
270.126953125 368 m 0
 150.272460938 368 52.251953125 269.98046875 52.251953125 150.126953125 c 0
 52.251953125 30.2724609375 150.272460938 -67.74609375 270.126953125 -67.74609375 c 0
 389.981445312 -67.74609375 488 30.2724609375 488 150.126953125 c 0
 488 269.98046875 389.981445312 368 270.126953125 368 c 0
230.126953125 282.173828125 m 1
 230.126953125 18.080078125 l 1
 173.259765625 35.068359375 132.251953125 87.4443359375 132.251953125 150.126953125 c 0
 132.251953125 212.80859375 173.259765625 265.185546875 230.126953125 282.173828125 c 1
310.126953125 282.173828125 m 1
 366.994140625 265.185546875 408 212.80859375 408 150.126953125 c 0
 408 87.4443359375 366.994140625 35.068359375 310.126953125 18.080078125 c 1
 310.126953125 282.173828125 l 1
270.126953125 851.74609375 m 0
 150.272460938 851.74609375 52.251953125 753.727539062 52.251953125 633.873046875 c 0
 52.251953125 514.018554688 150.272460938 416 270.126953125 416 c 0
 389.981445312 416 488 514.018554688 488 633.873046875 c 0
 488 753.727539062 389.981445312 851.74609375 270.126953125 851.74609375 c 0
270.126953125 771.74609375 m 0
 346.74609375 771.74609375 408 710.4921875 408 633.873046875 c 0
 408 557.25390625 346.74609375 496 270.126953125 496 c 0
 193.5078125 496 132.251953125 557.25390625 132.251953125 633.873046875 c 0
 132.251953125 710.4921875 193.5078125 771.74609375 270.126953125 771.74609375 c 0
EndSplineSet
Validated: 524297
Ligature2: "'liga' Standard Ligatures in Latin lookup 0 subtable" s s a m i
EndChar

StartChar: ssamu
Encoding: 41 -1 41
Width: 1024
VWidth: 904
Flags: W
HStem: -67.7461 80<616.13 640.858 866.892 891.619> 288 80<616.129 640.858 866.892 891.619> 416 80<195.504 344.749> 771.746 80<195.504 344.749>
VStem: 52.252 80<75.6396 224.614 559.251 708.495> 408 80<75.6396 224.614 559.251 708.495> 536.001 80<12.3823 37.1094 263.143 287.872> 891.747 80<12.3823 37.1094 263.143 287.871>
AnchorPoint: "accent" 0 -120 basechar 0
LayerCount: 2
Fore
SplineSet
605.239257812 368 m 2
 567.573242188 368 536.000976562 336.426757812 536.000976562 298.759765625 c 2
 536.000976562 1.4921875 l 2
 536.000976562 -36.1748046875 567.573242188 -67.74609375 605.239257812 -67.74609375 c 2
 902.506835938 -67.74609375 l 2
 940.173828125 -67.74609375 971.747070312 -36.1748046875 971.747070312 1.4921875 c 2
 971.747070312 298.759765625 l 2
 971.747070312 336.426757812 940.173828125 368 902.506835938 368 c 2
 605.239257812 368 l 2
640.858398438 288 m 2
 866.891601562 288 l 2
 880.610351562 287.999023438 891.747070312 276.861328125 891.747070312 263.142578125 c 1
 891.747070312 263.143554688 891.747070312 190.126953125 891.747070312 190.126953125 c 1
 616.000976562 190.126953125 l 1
 616.000976562 263.142578125 l 2
 616.000976562 276.861328125 627.139648438 288 640.858398438 288 c 2
616.000976562 110.126953125 m 1
 891.747070312 110.126953125 l 1
 891.747070312 37.109375 l 2
 891.747070312 23.3916015625 880.609375 12.25390625 866.891601562 12.25390625 c 1
 640.858398438 12.25390625 l 2
 627.140625 12.25390625 616.001953125 23.3916015625 616.000976562 37.109375 c 1
 616.001953125 37.109375 616.000976562 110.126953125 616.000976562 110.126953125 c 1
270.126953125 368 m 0
 150.272460938 368 52.251953125 269.98046875 52.251953125 150.126953125 c 0
 52.251953125 30.2724609375 150.272460938 -67.74609375 270.126953125 -67.74609375 c 0
 389.981445312 -67.74609375 488 30.2724609375 488 150.126953125 c 0
 488 269.98046875 389.981445312 368 270.126953125 368 c 0
230.126953125 282.173828125 m 1
 230.126953125 18.080078125 l 1
 173.259765625 35.068359375 132.251953125 87.4443359375 132.251953125 150.126953125 c 0
 132.251953125 212.80859375 173.259765625 265.185546875 230.126953125 282.173828125 c 1
310.126953125 282.173828125 m 1
 366.994140625 265.185546875 408 212.80859375 408 150.126953125 c 0
 408 87.4443359375 366.994140625 35.068359375 310.126953125 18.080078125 c 1
 310.126953125 282.173828125 l 1
270.126953125 851.74609375 m 0
 150.272460938 851.74609375 52.251953125 753.727539062 52.251953125 633.873046875 c 0
 52.251953125 514.018554688 150.272460938 416 270.126953125 416 c 0
 389.981445312 416 488 514.018554688 488 633.873046875 c 0
 488 753.727539062 389.981445312 851.74609375 270.126953125 851.74609375 c 0
270.126953125 771.74609375 m 0
 346.74609375 771.74609375 408 710.4921875 408 633.873046875 c 0
 408 557.25390625 346.74609375 496 270.126953125 496 c 0
 193.5078125 496 132.251953125 557.25390625 132.251953125 633.873046875 c 0
 132.251953125 710.4921875 193.5078125 771.74609375 270.126953125 771.74609375 c 0
EndSplineSet
Validated: 524329
Ligature2: "'liga' Standard Ligatures in Latin lookup 0 subtable" s s a m u
EndChar

StartChar: ssat
Encoding: 42 -1 42
Width: 1024
VWidth: 904
Flags: W
HStem: -45.9082 80.4668<644.897 753.749> 416 80<195.504 344.749> 771.746 80<195.504 344.749>
VStem: 52.252 80<75.639 224.613 559.251 708.495> 408 80<75.639 224.613 559.251 708.495>
AnchorPoint: "accent" 0 -120 basechar 0
LayerCount: 2
Fore
SplineSet
270.126953125 367.999023438 m 0
 150.272460938 367.999023438 52.251953125 269.98046875 52.251953125 150.125976562 c 0
 52.251953125 30.2724609375 150.272460938 -67.7470703125 270.126953125 -67.7470703125 c 0
 389.981445312 -67.7470703125 488 30.2724609375 488 150.125976562 c 0
 488 269.98046875 389.981445312 367.999023438 270.126953125 367.999023438 c 0
230.126953125 282.172851562 m 1
 230.126953125 18.0791015625 l 1
 173.259765625 35.0673828125 132.251953125 87.4443359375 132.251953125 150.125976562 c 0
 132.251953125 212.80859375 173.259765625 265.184570312 230.126953125 282.172851562 c 1
310.126953125 282.172851562 m 1
 366.994140625 265.184570312 408 212.80859375 408 150.125976562 c 0
 408 87.4443359375 366.994140625 35.0673828125 310.126953125 18.0791015625 c 1
 310.126953125 282.172851562 l 1
753.840820312 346.162109375 m 0
 739.119140625 346.16015625 726.276367188 338.091796875 719.400390625 326.048828125 c 0
 719.375976562 326.005859375 630.483398438 170.23828125 630.483398438 170.23828125 c 1
 541.569335938 14.4306640625 l 2
 538.205078125 8.533203125 536.276367188 1.693359375 536.270507812 -5.5986328125 c 0
 536.251953125 -27.8037109375 554.059570312 -45.8466796875 576.012695312 -45.865234375 c 0
 576.0234375 -45.865234375 576.0078125 -45.908203125 576.018554688 -45.908203125 c 0
 576.044921875 -45.865234375 753.877929688 -45.88671875 753.877929688 -45.88671875 c 1
 931.736328125 -45.8671875 l 2
 953.668945312 -45.8603515625 971.481445312 -27.857421875 971.5 -5.66796875 c 0
 971.506835938 1.650390625 969.551757812 8.560546875 966.174804688 14.478515625 c 1
 966.19921875 14.435546875 877.232421875 170.266601562 877.232421875 170.266601562 c 1
 788.287109375 326.0546875 l 2
 781.416992188 338.084960938 768.56640625 346.192382812 753.853515625 346.205078125 c 0
 753.840820312 346.205078125 753.853515625 346.162109375 753.840820312 346.162109375 c 0
753.8515625 225.479492188 m 1
 808.34765625 130.03125 l 1
 862.840820312 34.5830078125 l 1
 753.869140625 34.5693359375 l 1
 644.897460938 34.55859375 l 1
 699.375976562 130.017578125 l 1
 753.8515625 225.479492188 l 1
270.126953125 851.74609375 m 0
 150.272460938 851.74609375 52.251953125 753.727539062 52.251953125 633.873046875 c 0
 52.251953125 514.018554688 150.272460938 416 270.126953125 416 c 0
 389.981445312 416 488 514.018554688 488 633.873046875 c 0
 488 753.727539062 389.981445312 851.74609375 270.126953125 851.74609375 c 0
270.126953125 771.74609375 m 0
 346.74609375 771.74609375 408 710.4921875 408 633.873046875 c 0
 408 557.25390625 346.74609375 496 270.126953125 496 c 0
 193.5078125 496 132.251953125 557.25390625 132.251953125 633.873046875 c 0
 132.251953125 710.4921875 193.5078125 771.74609375 270.126953125 771.74609375 c 0
EndSplineSet
Validated: 524329
Ligature2: "'liga' Standard Ligatures in Latin lookup 0 subtable" s s a t
EndChar

StartChar: ssata
Encoding: 43 -1 43
Width: 1024
VWidth: 904
Flags: W
HStem: -45.9082 80.4688<644.652 713.629> 416 80<195.504 344.749> 771.746 80<195.504 344.749>
VStem: 52.252 80<75.6396 224.614 559.251 708.495> 408 80<75.6396 224.614 559.251 708.495>
AnchorPoint: "accent" 0 -120 basechar 0
LayerCount: 2
Fore
SplineSet
270.126953125 368 m 0
 150.272460938 368 52.251953125 269.98046875 52.251953125 150.126953125 c 0
 52.251953125 30.2724609375 150.272460938 -67.74609375 270.126953125 -67.74609375 c 0
 389.981445312 -67.74609375 488 30.2724609375 488 150.126953125 c 0
 488 269.98046875 389.981445312 368 270.126953125 368 c 0
230.126953125 282.173828125 m 1
 230.126953125 18.080078125 l 1
 173.259765625 35.068359375 132.251953125 87.4443359375 132.251953125 150.126953125 c 0
 132.251953125 212.80859375 173.259765625 265.185546875 230.126953125 282.173828125 c 1
310.126953125 282.173828125 m 1
 366.994140625 265.185546875 408 212.80859375 408 150.126953125 c 0
 408 87.4443359375 366.994140625 35.068359375 310.126953125 18.080078125 c 1
 310.126953125 282.173828125 l 1
753.595703125 346.162109375 m 0
 738.873046875 346.16015625 726.030273438 338.091796875 719.154296875 326.048828125 c 0
 719.129882812 326.005859375 630.23828125 170.240234375 630.23828125 170.240234375 c 1
 541.32421875 14.431640625 l 2
 537.959960938 8.533203125 536.03125 1.693359375 536.025390625 -5.5986328125 c 0
 536.006835938 -27.8037109375 553.814453125 -45.8466796875 575.767578125 -45.865234375 c 0
 575.778320312 -45.865234375 575.762695312 -45.908203125 575.7734375 -45.908203125 c 0
 575.799804688 -45.865234375 753.6328125 -45.884765625 753.6328125 -45.884765625 c 1
 931.4921875 -45.865234375 l 2
 953.422851562 -45.857421875 971.235351562 -27.85546875 971.25390625 -5.666015625 c 0
 971.260742188 1.6513671875 969.306640625 8.560546875 965.9296875 14.478515625 c 1
 965.954101562 14.4345703125 876.98828125 170.267578125 876.98828125 170.267578125 c 1
 788.04296875 326.0546875 l 2
 781.171875 338.084960938 768.321289062 346.192382812 753.609375 346.205078125 c 0
 753.595703125 346.205078125 753.608398438 346.162109375 753.595703125 346.162109375 c 0
713.62890625 155.42578125 m 1
 713.62890625 34.56640625 l 1
 644.65234375 34.560546875 l 1
 699.130859375 130.01953125 l 1
 713.62890625 155.42578125 l 1
793.62890625 155.3828125 m 1
 808.103515625 130.03125 l 1
 862.595703125 34.583984375 l 1
 793.62890625 34.5751953125 l 1
 793.62890625 155.3828125 l 1
270.126953125 851.74609375 m 0
 150.272460938 851.74609375 52.251953125 753.727539062 52.251953125 633.873046875 c 0
 52.251953125 514.018554688 150.272460938 416 270.126953125 416 c 0
 389.981445312 416 488 514.018554688 488 633.873046875 c 0
 488 753.727539062 389.981445312 851.74609375 270.126953125 851.74609375 c 0
270.126953125 771.74609375 m 0
 346.74609375 771.74609375 408 710.4921875 408 633.873046875 c 0
 408 557.25390625 346.74609375 496 270.126953125 496 c 0
 193.5078125 496 132.251953125 557.25390625 132.251953125 633.873046875 c 0
 132.251953125 710.4921875 193.5078125 771.74609375 270.126953125 771.74609375 c 0
EndSplineSet
Validated: 524329
Ligature2: "'liga' Standard Ligatures in Latin lookup 0 subtable" s s a t a
EndChar

StartChar: ssidash
Encoding: 44 -1 44
Width: 1024
VWidth: 904
Flags: W
HStem: 110.127 80<562.412 945.335> 288.251 79.498<195.88 334.764> 416 80<195.504 344.749> 771.746 80<195.504 344.749>
VStem: 52.252 80<559.251 708.495> 408 80<559.251 708.495>
AnchorPoint: "accent" 0 -120 basechar 0
LayerCount: 2
Fore
SplineSet
949.698242188 150.126953125 m 0
 949.698242188 127.966796875 931.857421875 110.126953125 909.698242188 110.126953125 c 2
 598.048828125 110.126953125 l 2
 575.888671875 110.126953125 558.048828125 127.966796875 558.048828125 150.126953125 c 0
 558.048828125 172.286132812 575.888671875 190.126953125 598.048828125 190.126953125 c 2
 909.698242188 190.126953125 l 2
 931.857421875 190.126953125 949.698242188 172.286132812 949.698242188 150.126953125 c 0
270.37890625 367.749023438 m 0
 214.537109375 367.749023438 158.693359375 346.560546875 116.318359375 304.186523438 c 0
 31.568359375 219.436523438 31.568359375 80.81640625 116.318359375 -3.93359375 c 0
 201.068359375 -88.6826171875 339.6875 -88.6826171875 424.4375 -3.9326171875 c 0
 509.1875 80.81640625 509.1875 219.436523438 424.4375 304.186523438 c 0
 382.0625 346.560546875 326.221679688 367.749023438 270.37890625 367.749023438 c 0
270.37890625 288.250976562 m 0
 292.7734375 288.25 315.159179688 282.745117188 335.46484375 271.782226562 c 1
 148.72265625 85.0400390625 l 1
 120.525390625 137.262695312 128.564453125 203.294921875 172.88671875 247.618164062 c 0
 199.975585938 274.70703125 235.177734375 288.25 270.37890625 288.250976562 c 0
392.033203125 215.213867188 m 1
 420.232421875 162.989257812 412.192382812 96.9580078125 367.869140625 52.6357421875 c 0
 323.545898438 8.3125 257.514648438 0.2724609375 205.291015625 28.4716796875 c 1
 392.033203125 215.213867188 l 1
270.126953125 851.74609375 m 0
 150.272460938 851.74609375 52.251953125 753.727539062 52.251953125 633.873046875 c 0
 52.251953125 514.018554688 150.272460938 416 270.126953125 416 c 0
 389.981445312 416 488 514.018554688 488 633.873046875 c 0
 488 753.727539062 389.981445312 851.74609375 270.126953125 851.74609375 c 0
270.126953125 771.74609375 m 0
 346.74609375 771.74609375 408 710.4921875 408 633.873046875 c 0
 408 557.25390625 346.74609375 496 270.126953125 496 c 0
 193.5078125 496 132.251953125 557.25390625 132.251953125 633.873046875 c 0
 132.251953125 710.4921875 193.5078125 771.74609375 270.126953125 771.74609375 c 0
EndSplineSet
Validated: 524329
Ligature2: "'liga' Standard Ligatures in Latin lookup 0 subtable" s s i dash
EndChar

StartChar: ssis
Encoding: 45 -1 45
Width: 1024
VWidth: 904
Flags: W
HStem: -67.7461 80<679.25 828.495> 288.25 79.498<195.88 334.764 679.25 828.495> 416 80<195.504 344.749> 771.746 80<195.504 344.749>
VStem: 52.252 80<559.251 708.495> 408 80<559.251 708.495> 535.998 80<75.5048 224.749> 891.746 80<75.5048 224.749>
AnchorPoint: "accent" 0 -120 basechar 0
LayerCount: 2
Fore
SplineSet
270.37890625 367.748046875 m 0
 214.537109375 367.748046875 158.693359375 346.560546875 116.318359375 304.185546875 c 0
 31.568359375 219.436523438 31.568359375 80.81640625 116.318359375 -3.93359375 c 0
 201.068359375 -88.68359375 339.6875 -88.6826171875 424.4375 -3.93359375 c 0
 509.1875 80.81640625 509.1875 219.436523438 424.4375 304.185546875 c 0
 382.0625 346.560546875 326.221679688 367.748046875 270.37890625 367.748046875 c 0
270.37890625 288.25 m 0
 292.7734375 288.25 315.159179688 282.745117188 335.46484375 271.78125 c 1
 148.72265625 85.0390625 l 1
 120.525390625 137.262695312 128.564453125 203.294921875 172.88671875 247.6171875 c 0
 199.975585938 274.706054688 235.177734375 288.25 270.37890625 288.25 c 0
392.033203125 215.212890625 m 1
 420.232421875 162.989257812 412.192382812 96.9580078125 367.869140625 52.634765625 c 0
 323.545898438 8.3115234375 257.514648438 0.2724609375 205.291015625 28.470703125 c 1
 392.033203125 215.212890625 l 1
753.873046875 368 m 0
 634.018554688 368 535.998046875 269.981445312 535.998046875 150.126953125 c 0
 535.998046875 30.2724609375 634.018554688 -67.74609375 753.873046875 -67.74609375 c 0
 873.727539062 -67.74609375 971.74609375 30.2724609375 971.74609375 150.126953125 c 0
 971.74609375 269.981445312 873.727539062 368 753.873046875 368 c 0
753.873046875 288 m 0
 830.4921875 288 891.74609375 226.74609375 891.74609375 150.126953125 c 0
 891.74609375 73.5078125 830.4921875 12.25390625 753.873046875 12.25390625 c 0
 677.25390625 12.25390625 615.998046875 73.5078125 615.998046875 150.126953125 c 0
 615.998046875 226.74609375 677.25390625 288 753.873046875 288 c 0
270.126953125 851.74609375 m 0
 150.272460938 851.74609375 52.251953125 753.727539062 52.251953125 633.873046875 c 0
 52.251953125 514.018554688 150.272460938 416 270.126953125 416 c 0
 389.981445312 416 488 514.018554688 488 633.873046875 c 0
 488 753.727539062 389.981445312 851.74609375 270.126953125 851.74609375 c 0
270.126953125 771.74609375 m 0
 346.74609375 771.74609375 408 710.4921875 408 633.873046875 c 0
 408 557.25390625 346.74609375 496 270.126953125 496 c 0
 193.5078125 496 132.251953125 557.25390625 132.251953125 633.873046875 c 0
 132.251953125 710.4921875 193.5078125 771.74609375 270.126953125 771.74609375 c 0
EndSplineSet
Validated: 524329
Ligature2: "'liga' Standard Ligatures in Latin lookup 0 subtable" s s i s
EndChar

StartChar: ssisa
Encoding: 46 -1 46
Width: 1024
VWidth: 904
Flags: W
HStem: 288.251 79.498<195.88 334.764> 416 80<195.504 344.749> 771.746 80<195.504 344.749>
VStem: 52.252 80<559.251 708.495> 408 80<559.251 708.495> 535.999 80<75.6396 224.614> 891.747 80<75.6396 224.614>
AnchorPoint: "accent" 0 -120 basechar 0
LayerCount: 2
Fore
SplineSet
270.37890625 367.749023438 m 0
 214.537109375 367.749023438 158.693359375 346.560546875 116.318359375 304.186523438 c 0
 31.568359375 219.436523438 31.568359375 80.81640625 116.318359375 -3.93359375 c 0
 201.068359375 -88.6826171875 339.6875 -88.6826171875 424.4375 -3.9326171875 c 0
 509.1875 80.81640625 509.1875 219.436523438 424.4375 304.186523438 c 0
 382.0625 346.560546875 326.221679688 367.749023438 270.37890625 367.749023438 c 0
270.37890625 288.250976562 m 0
 292.7734375 288.25 315.159179688 282.745117188 335.46484375 271.782226562 c 1
 148.72265625 85.0400390625 l 1
 120.525390625 137.262695312 128.564453125 203.294921875 172.88671875 247.618164062 c 0
 199.975585938 274.70703125 235.177734375 288.25 270.37890625 288.250976562 c 0
392.033203125 215.213867188 m 1
 420.232421875 162.989257812 412.192382812 96.9580078125 367.869140625 52.6357421875 c 0
 323.545898438 8.3125 257.514648438 0.2724609375 205.291015625 28.4716796875 c 1
 392.033203125 215.213867188 l 1
270.126953125 851.74609375 m 0
 150.272460938 851.74609375 52.251953125 753.727539062 52.251953125 633.873046875 c 0
 52.251953125 514.018554688 150.272460938 416 270.126953125 416 c 0
 389.981445312 416 488 514.018554688 488 633.873046875 c 0
 488 753.727539062 389.981445312 851.74609375 270.126953125 851.74609375 c 0
270.126953125 771.74609375 m 0
 346.74609375 771.74609375 408 710.4921875 408 633.873046875 c 0
 408 557.25390625 346.74609375 496 270.126953125 496 c 0
 193.5078125 496 132.251953125 557.25390625 132.251953125 633.873046875 c 0
 132.251953125 710.4921875 193.5078125 771.74609375 270.126953125 771.74609375 c 0
753.874023438 368 m 0
 634.020507812 368 535.999023438 269.981445312 535.999023438 150.126953125 c 0
 535.999023438 30.2724609375 634.020507812 -67.74609375 753.874023438 -67.74609375 c 0
 873.728515625 -67.74609375 971.747070312 30.2724609375 971.747070312 150.126953125 c 0
 971.747070312 269.981445312 873.728515625 368 753.874023438 368 c 0
713.874023438 282.173828125 m 1
 713.874023438 18.080078125 l 1
 657.006835938 35.068359375 615.999023438 87.4443359375 615.999023438 150.126953125 c 0
 615.999023438 212.809570312 657.006835938 265.185546875 713.874023438 282.173828125 c 1
793.874023438 282.173828125 m 1
 850.741210938 265.185546875 891.747070312 212.809570312 891.747070312 150.126953125 c 0
 891.747070312 87.4443359375 850.741210938 35.068359375 793.874023438 18.080078125 c 1
 793.874023438 282.173828125 l 1
EndSplineSet
Validated: 524329
Ligature2: "'liga' Standard Ligatures in Latin lookup 0 subtable" s s i s a
EndChar

StartChar: ssisi
Encoding: 47 -1 47
Width: 1024
VWidth: 904
Flags: W
HStem: 288.251 79.498<195.88 334.764 679.375 818.259> 416 80<195.504 344.749> 771.746 80<195.504 344.749>
VStem: 52.252 80<559.251 708.495> 408 80<559.251 708.495>
AnchorPoint: "accent" 0 -120 basechar 0
LayerCount: 2
Fore
SplineSet
270.37890625 367.749023438 m 0
 214.537109375 367.749023438 158.693359375 346.560546875 116.318359375 304.186523438 c 0
 31.568359375 219.436523438 31.568359375 80.81640625 116.318359375 -3.93359375 c 0
 201.068359375 -88.6826171875 339.6875 -88.6826171875 424.4375 -3.9326171875 c 0
 509.1875 80.81640625 509.1875 219.436523438 424.4375 304.186523438 c 0
 382.0625 346.560546875 326.221679688 367.749023438 270.37890625 367.749023438 c 0
270.37890625 288.250976562 m 0
 292.7734375 288.25 315.159179688 282.745117188 335.46484375 271.782226562 c 1
 148.72265625 85.0400390625 l 1
 120.525390625 137.262695312 128.564453125 203.294921875 172.88671875 247.618164062 c 0
 199.975585938 274.70703125 235.177734375 288.25 270.37890625 288.250976562 c 0
392.033203125 215.213867188 m 1
 420.232421875 162.989257812 412.192382812 96.9580078125 367.869140625 52.6357421875 c 0
 323.545898438 8.3125 257.514648438 0.2724609375 205.291015625 28.4716796875 c 1
 392.033203125 215.213867188 l 1
270.126953125 851.74609375 m 0
 150.272460938 851.74609375 52.251953125 753.727539062 52.251953125 633.873046875 c 0
 52.251953125 514.018554688 150.272460938 416 270.126953125 416 c 0
 389.981445312 416 488 514.018554688 488 633.873046875 c 0
 488 753.727539062 389.981445312 851.74609375 270.126953125 851.74609375 c 0
270.126953125 771.74609375 m 0
 346.74609375 771.74609375 408 710.4921875 408 633.873046875 c 0
 408 557.25390625 346.74609375 496 270.126953125 496 c 0
 193.5078125 496 132.251953125 557.25390625 132.251953125 633.873046875 c 0
 132.251953125 710.4921875 193.5078125 771.74609375 270.126953125 771.74609375 c 0
753.874023438 368 m 0
 698.032226562 368 642.188476562 346.8125 599.813476562 304.4375 c 0
 515.064453125 219.6875 515.064453125 81.068359375 599.813476562 -3.681640625 c 0
 684.563476562 -88.431640625 823.18359375 -88.431640625 907.932617188 -3.681640625 c 0
 992.682617188 81.068359375 992.682617188 219.6875 907.932617188 304.4375 c 0
 865.557617188 346.8125 809.716796875 368 753.874023438 368 c 0
753.874023438 288.501953125 m 0
 776.268554688 288.501953125 798.654296875 282.997070312 818.959960938 272.033203125 c 1
 632.217773438 85.291015625 l 1
 604.020507812 137.514648438 612.059570312 203.546875 656.381835938 247.869140625 c 0
 683.470703125 274.958007812 718.672851562 288.501953125 753.874023438 288.501953125 c 0
875.528320312 215.46484375 m 1
 903.727539062 163.241210938 895.6875 97.2099609375 851.364257812 52.88671875 c 0
 807.041015625 8.5634765625 741.009765625 0.5234375 688.786132812 28.72265625 c 1
 875.528320312 215.46484375 l 1
EndSplineSet
Validated: 524329
Ligature2: "'liga' Standard Ligatures in Latin lookup 0 subtable" s s i s i
EndChar

StartChar: ssisu
Encoding: 48 -1 48
Width: 1024
VWidth: 904
Flags: W
HStem: -67.748 80<679.386 828.36> 288.251 79.498<195.88 334.764 679.386 828.36> 416 80<195.504 344.749> 771.746 80<195.504 344.749>
VStem: 52.252 80<559.251 708.495> 408 80<559.251 708.495>
AnchorPoint: "accent" 0 -120 basechar 0
LayerCount: 2
Fore
SplineSet
270.37890625 367.749023438 m 0
 214.537109375 367.749023438 158.693359375 346.560546875 116.318359375 304.186523438 c 0
 31.568359375 219.436523438 31.568359375 80.81640625 116.318359375 -3.93359375 c 0
 201.068359375 -88.6826171875 339.6875 -88.6826171875 424.4375 -3.9326171875 c 0
 509.1875 80.81640625 509.1875 219.436523438 424.4375 304.186523438 c 0
 382.0625 346.560546875 326.221679688 367.749023438 270.37890625 367.749023438 c 0
270.37890625 288.250976562 m 0
 292.7734375 288.25 315.159179688 282.745117188 335.46484375 271.782226562 c 1
 148.72265625 85.0400390625 l 1
 120.525390625 137.262695312 128.564453125 203.294921875 172.88671875 247.618164062 c 0
 199.975585938 274.70703125 235.177734375 288.25 270.37890625 288.250976562 c 0
392.033203125 215.213867188 m 1
 420.232421875 162.989257812 412.192382812 96.9580078125 367.869140625 52.6357421875 c 0
 323.545898438 8.3125 257.514648438 0.2724609375 205.291015625 28.4716796875 c 1
 392.033203125 215.213867188 l 1
753.873046875 368 m 0
 634.01953125 368 536 269.981445312 536 150.126953125 c 0
 536 30.2724609375 634.01953125 -67.748046875 753.873046875 -67.748046875 c 0
 873.727539062 -67.748046875 971.74609375 30.2724609375 971.74609375 150.126953125 c 0
 971.74609375 269.981445312 873.727539062 368 753.873046875 368 c 0
753.873046875 288 m 0
 816.555664062 288 868.931640625 246.994140625 885.919921875 190.126953125 c 1
 621.826171875 190.126953125 l 1
 638.814453125 246.994140625 691.19140625 288 753.873046875 288 c 0
621.826171875 110.126953125 m 1
 885.919921875 110.126953125 l 1
 868.931640625 53.259765625 816.555664062 12.251953125 753.873046875 12.251953125 c 0
 691.19140625 12.251953125 638.814453125 53.259765625 621.826171875 110.126953125 c 1
270.126953125 851.74609375 m 0
 150.272460938 851.74609375 52.251953125 753.727539062 52.251953125 633.873046875 c 0
 52.251953125 514.018554688 150.272460938 416 270.126953125 416 c 0
 389.981445312 416 488 514.018554688 488 633.873046875 c 0
 488 753.727539062 389.981445312 851.74609375 270.126953125 851.74609375 c 0
270.126953125 771.74609375 m 0
 346.74609375 771.74609375 408 710.4921875 408 633.873046875 c 0
 408 557.25390625 346.74609375 496 270.126953125 496 c 0
 193.5078125 496 132.251953125 557.25390625 132.251953125 633.873046875 c 0
 132.251953125 710.4921875 193.5078125 771.74609375 270.126953125 771.74609375 c 0
EndSplineSet
Validated: 524329
Ligature2: "'liga' Standard Ligatures in Latin lookup 0 subtable" s s i s u
EndChar

StartChar: ssim
Encoding: 49 -1 49
Width: 1024
VWidth: 904
Flags: W
HStem: -67.7461 80<616.127 640.855 866.889 891.617> 288.251 79.498<195.88 334.764 616.199 640.855 866.889 891.545> 416 80<195.504 344.749> 771.746 80<195.504 344.749>
VStem: 52.252 80<559.251 708.495> 408 80<559.251 708.495> 535.999 80<12.3823 37.1104 263.144 287.872> 891.745 80<12.3823 37.1104 263.144 287.872>
AnchorPoint: "accent" 0 -120 basechar 0
LayerCount: 2
Fore
SplineSet
270.37890625 367.749023438 m 0
 214.537109375 367.749023438 158.693359375 346.560546875 116.318359375 304.186523438 c 0
 31.5693359375 219.436523438 31.5693359375 80.81640625 116.318359375 -3.93359375 c 0
 201.068359375 -88.6826171875 339.6875 -88.6826171875 424.4375 -3.9326171875 c 0
 509.1875 80.81640625 509.1875 219.436523438 424.4375 304.186523438 c 0
 382.0625 346.560546875 326.221679688 367.749023438 270.37890625 367.749023438 c 0
270.37890625 288.250976562 m 0
 292.7734375 288.25 315.159179688 282.745117188 335.46484375 271.782226562 c 1
 148.72265625 85.0390625 l 1
 120.525390625 137.262695312 128.564453125 203.294921875 172.88671875 247.618164062 c 0
 199.975585938 274.70703125 235.177734375 288.25 270.37890625 288.250976562 c 0
392.033203125 215.213867188 m 1
 420.232421875 162.989257812 412.192382812 96.9580078125 367.869140625 52.634765625 c 0
 323.545898438 8.3125 257.514648438 0.2724609375 205.291015625 28.4716796875 c 1
 392.033203125 215.213867188 l 1
605.239257812 368 m 2
 567.573242188 368 535.999023438 336.426757812 535.999023438 298.759765625 c 2
 535.999023438 1.4921875 l 2
 535.999023438 -36.1748046875 567.573242188 -67.74609375 605.239257812 -67.74609375 c 2
 902.506835938 -67.74609375 l 2
 940.173828125 -67.74609375 971.745117188 -36.1748046875 971.745117188 1.4921875 c 2
 971.745117188 298.759765625 l 2
 971.745117188 336.426757812 940.173828125 368 902.506835938 368 c 2
 605.239257812 368 l 2
640.85546875 288 m 2
 866.888671875 288 l 2
 880.607421875 288 891.745117188 276.862304688 891.745117188 263.143554688 c 0
 891.745117188 37.1103515625 l 2
 891.745117188 23.3916015625 880.607421875 12.25390625 866.888671875 12.25390625 c 0
 640.85546875 12.25390625 l 2
 627.13671875 12.25390625 615.999023438 23.3916015625 615.999023438 37.1103515625 c 0
 615.999023438 263.143554688 l 2
 615.999023438 276.862304688 627.13671875 288 640.85546875 288 c 2
270.126953125 851.74609375 m 0
 150.272460938 851.74609375 52.251953125 753.727539062 52.251953125 633.873046875 c 0
 52.251953125 514.018554688 150.272460938 416 270.126953125 416 c 0
 389.981445312 416 488 514.018554688 488 633.873046875 c 0
 488 753.727539062 389.981445312 851.74609375 270.126953125 851.74609375 c 0
270.126953125 771.74609375 m 0
 346.74609375 771.74609375 408 710.4921875 408 633.873046875 c 0
 408 557.25390625 346.74609375 496 270.126953125 496 c 0
 193.5078125 496 132.251953125 557.25390625 132.251953125 633.873046875 c 0
 132.251953125 710.4921875 193.5078125 771.74609375 270.126953125 771.74609375 c 0
EndSplineSet
Validated: 524329
Ligature2: "'liga' Standard Ligatures in Latin lookup 0 subtable" s s i m
EndChar

StartChar: ssima
Encoding: 50 -1 50
Width: 1024
VWidth: 904
Flags: W
HStem: -67.7461 80<616.128 640.854 866.888 891.617> 288.502 79.498<195.88 334.764 616.199 640.854 866.888 891.545> 416 80<195.504 344.749> 771.746 80<195.504 344.749>
VStem: 52.252 80<559.251 708.495> 408 80<559.251 708.495> 535.999 80<12.3823 37.1094 263.143 287.871> 891.745 80<12.3823 37.1094 37.2732 287.872>
AnchorPoint: "accent" 0 -120 basechar 0
LayerCount: 2
Fore
SplineSet
605.239257812 368 m 2
 567.573242188 368 535.999023438 336.426757812 535.999023438 298.759765625 c 2
 535.999023438 1.4921875 l 2
 535.999023438 -36.1748046875 567.573242188 -67.74609375 605.239257812 -67.74609375 c 2
 902.506835938 -67.74609375 l 2
 940.173828125 -67.74609375 971.745117188 -36.1748046875 971.745117188 1.4921875 c 2
 971.745117188 298.759765625 l 2
 971.745117188 336.426757812 940.173828125 368 902.506835938 368 c 2
 605.239257812 368 l 2
640.854492188 288 m 2
 713.872070312 288 l 1
 713.872070312 12.25390625 l 1
 640.854492188 12.25390625 l 2
 627.13671875 12.25390625 616 23.3916015625 615.999023438 37.109375 c 1
 615.999023438 263.142578125 l 2
 615.999023438 276.861328125 627.13671875 287.999023438 640.854492188 288 c 2
793.872070312 288 m 1
 866.887695312 288 l 2
 880.606445312 288 891.745117188 276.861328125 891.745117188 263.142578125 c 1
 891.744140625 263.143554688 891.745117188 37.109375 891.745117188 37.109375 c 2
 891.745117188 23.3916015625 880.606445312 12.25390625 866.887695312 12.25390625 c 1
 866.888671875 12.25390625 793.872070312 12.25390625 793.872070312 12.25390625 c 1
 793.872070312 288 l 1
270.37890625 368 m 0
 214.537109375 368 158.693359375 346.8125 116.318359375 304.4375 c 0
 31.5693359375 219.6875 31.5693359375 81.068359375 116.318359375 -3.681640625 c 0
 201.068359375 -88.431640625 339.6875 -88.431640625 424.4375 -3.681640625 c 0
 509.1875 81.068359375 509.1875 219.6875 424.4375 304.4375 c 0
 382.0625 346.8125 326.221679688 368 270.37890625 368 c 0
270.37890625 288.501953125 m 0
 292.7734375 288.501953125 315.159179688 282.997070312 335.46484375 272.033203125 c 1
 148.72265625 85.291015625 l 1
 120.525390625 137.514648438 128.564453125 203.546875 172.88671875 247.869140625 c 0
 199.975585938 274.958007812 235.177734375 288.501953125 270.37890625 288.501953125 c 0
392.033203125 215.46484375 m 1
 420.232421875 163.241210938 412.192382812 97.2099609375 367.869140625 52.88671875 c 0
 323.545898438 8.5634765625 257.514648438 0.5234375 205.291015625 28.72265625 c 1
 392.033203125 215.46484375 l 1
270.126953125 851.74609375 m 0
 150.272460938 851.74609375 52.251953125 753.727539062 52.251953125 633.873046875 c 0
 52.251953125 514.018554688 150.272460938 416 270.126953125 416 c 0
 389.981445312 416 488 514.018554688 488 633.873046875 c 0
 488 753.727539062 389.981445312 851.74609375 270.126953125 851.74609375 c 0
270.126953125 771.74609375 m 0
 346.74609375 771.74609375 408 710.4921875 408 633.873046875 c 0
 408 557.25390625 346.74609375 496 270.126953125 496 c 0
 193.5078125 496 132.251953125 557.25390625 132.251953125 633.873046875 c 0
 132.251953125 710.4921875 193.5078125 771.74609375 270.126953125 771.74609375 c 0
EndSplineSet
Validated: 524329
Ligature2: "'liga' Standard Ligatures in Latin lookup 0 subtable" s s i m a
EndChar

StartChar: ssimi
Encoding: 51 -1 51
Width: 1024
VWidth: 904
Flags: W
HStem: 288.502 79.498<195.88 334.764 616.201 640.858> 416 80<195.504 344.749> 771.746 80<195.504 344.749>
VStem: 52.252 80<559.251 708.495> 408 80<559.251 708.495>
AnchorPoint: "accent" 0 -120 basechar 0
LayerCount: 2
Fore
SplineSet
605.241210938 368.000976562 m 2
 567.57421875 368.000976562 536.000976562 336.426757812 536.000976562 298.760742188 c 2
 536.000976562 1.4931640625 l 2
 536.000976562 -36.173828125 567.57421875 -67.7451171875 605.241210938 -67.7451171875 c 2
 902.508789062 -67.7451171875 l 2
 940.174804688 -67.7451171875 971.747070312 -36.173828125 971.747070312 1.4931640625 c 2
 971.747070312 298.760742188 l 2
 971.747070312 336.426757812 940.174804688 368.000976562 902.508789062 368.000976562 c 2
 605.241210938 368.000976562 l 2
640.858398438 288.000976562 m 2
 835.178710938 288.000976562 l 1
 616.000976562 68.8232421875 l 1
 616.000976562 263.143554688 l 2
 616.000976562 276.862304688 627.139648438 288.000976562 640.858398438 288.000976562 c 2
891.747070312 231.430664062 m 1
 891.747070312 37.1103515625 l 2
 891.74609375 23.392578125 880.609375 12.2548828125 866.891601562 12.2548828125 c 1
 672.571289062 12.2548828125 l 1
 891.747070312 231.430664062 l 1
270.37890625 368 m 0
 214.537109375 368 158.693359375 346.8125 116.318359375 304.4375 c 0
 31.5693359375 219.6875 31.5693359375 81.068359375 116.318359375 -3.681640625 c 0
 201.068359375 -88.431640625 339.6875 -88.431640625 424.4375 -3.681640625 c 0
 509.1875 81.068359375 509.1875 219.6875 424.4375 304.4375 c 0
 382.0625 346.8125 326.221679688 368 270.37890625 368 c 0
270.37890625 288.501953125 m 0
 292.7734375 288.501953125 315.159179688 282.997070312 335.46484375 272.033203125 c 1
 148.72265625 85.291015625 l 1
 120.525390625 137.514648438 128.564453125 203.546875 172.88671875 247.869140625 c 0
 199.975585938 274.958007812 235.177734375 288.501953125 270.37890625 288.501953125 c 0
392.033203125 215.46484375 m 1
 420.232421875 163.241210938 412.192382812 97.2099609375 367.869140625 52.88671875 c 0
 323.545898438 8.5634765625 257.514648438 0.5234375 205.291015625 28.72265625 c 1
 392.033203125 215.46484375 l 1
270.126953125 851.74609375 m 0
 150.272460938 851.74609375 52.251953125 753.727539062 52.251953125 633.873046875 c 0
 52.251953125 514.018554688 150.272460938 416 270.126953125 416 c 0
 389.981445312 416 488 514.018554688 488 633.873046875 c 0
 488 753.727539062 389.981445312 851.74609375 270.126953125 851.74609375 c 0
270.126953125 771.74609375 m 0
 346.74609375 771.74609375 408 710.4921875 408 633.873046875 c 0
 408 557.25390625 346.74609375 496 270.126953125 496 c 0
 193.5078125 496 132.251953125 557.25390625 132.251953125 633.873046875 c 0
 132.251953125 710.4921875 193.5078125 771.74609375 270.126953125 771.74609375 c 0
EndSplineSet
Validated: 524329
Ligature2: "'liga' Standard Ligatures in Latin lookup 0 subtable" s s i m i
EndChar

StartChar: ssimu
Encoding: 52 -1 52
Width: 1024
VWidth: 904
Flags: W
HStem: -67.7461 80<616.13 640.858 866.892 891.619> 288.502 79.498<195.88 334.764 616.201 640.858 866.892 891.547> 416 80<195.504 344.749> 771.746 80<195.504 344.749>
VStem: 52.252 80<559.251 708.495> 408 80<559.251 708.495> 536.001 80<12.3823 37.1094 263.143 287.872> 891.747 80<12.3823 37.1094 263.143 287.871>
AnchorPoint: "accent" 0 -120 basechar 0
LayerCount: 2
Fore
SplineSet
605.239257812 368 m 2
 567.573242188 368 536.000976562 336.426757812 536.000976562 298.759765625 c 2
 536.000976562 1.4921875 l 2
 536.000976562 -36.1748046875 567.573242188 -67.74609375 605.239257812 -67.74609375 c 2
 902.506835938 -67.74609375 l 2
 940.173828125 -67.74609375 971.747070312 -36.1748046875 971.747070312 1.4921875 c 2
 971.747070312 298.759765625 l 2
 971.747070312 336.426757812 940.173828125 368 902.506835938 368 c 2
 605.239257812 368 l 2
640.858398438 288 m 2
 866.891601562 288 l 2
 880.610351562 287.999023438 891.747070312 276.861328125 891.747070312 263.142578125 c 1
 891.747070312 263.143554688 891.747070312 190.126953125 891.747070312 190.126953125 c 1
 616.000976562 190.126953125 l 1
 616.000976562 263.142578125 l 2
 616.000976562 276.861328125 627.139648438 288 640.858398438 288 c 2
616.000976562 110.126953125 m 1
 891.747070312 110.126953125 l 1
 891.747070312 37.109375 l 2
 891.747070312 23.3916015625 880.609375 12.25390625 866.891601562 12.25390625 c 1
 640.858398438 12.25390625 l 2
 627.140625 12.25390625 616.001953125 23.3916015625 616.000976562 37.109375 c 1
 616.001953125 37.109375 616.000976562 110.126953125 616.000976562 110.126953125 c 1
270.37890625 368 m 0
 214.537109375 368 158.693359375 346.8125 116.318359375 304.4375 c 0
 31.5693359375 219.6875 31.5693359375 81.068359375 116.318359375 -3.681640625 c 0
 201.068359375 -88.431640625 339.6875 -88.431640625 424.4375 -3.681640625 c 0
 509.1875 81.068359375 509.1875 219.6875 424.4375 304.4375 c 0
 382.0625 346.8125 326.221679688 368 270.37890625 368 c 0
270.37890625 288.501953125 m 0
 292.7734375 288.501953125 315.159179688 282.997070312 335.46484375 272.033203125 c 1
 148.72265625 85.291015625 l 1
 120.525390625 137.514648438 128.564453125 203.546875 172.88671875 247.869140625 c 0
 199.975585938 274.958007812 235.177734375 288.501953125 270.37890625 288.501953125 c 0
392.033203125 215.46484375 m 1
 420.232421875 163.241210938 412.192382812 97.2099609375 367.869140625 52.88671875 c 0
 323.545898438 8.5634765625 257.514648438 0.5234375 205.291015625 28.72265625 c 1
 392.033203125 215.46484375 l 1
270.126953125 851.74609375 m 0
 150.272460938 851.74609375 52.251953125 753.727539062 52.251953125 633.873046875 c 0
 52.251953125 514.018554688 150.272460938 416 270.126953125 416 c 0
 389.981445312 416 488 514.018554688 488 633.873046875 c 0
 488 753.727539062 389.981445312 851.74609375 270.126953125 851.74609375 c 0
270.126953125 771.74609375 m 0
 346.74609375 771.74609375 408 710.4921875 408 633.873046875 c 0
 408 557.25390625 346.74609375 496 270.126953125 496 c 0
 193.5078125 496 132.251953125 557.25390625 132.251953125 633.873046875 c 0
 132.251953125 710.4921875 193.5078125 771.74609375 270.126953125 771.74609375 c 0
EndSplineSet
Validated: 524329
Ligature2: "'liga' Standard Ligatures in Latin lookup 0 subtable" s s i m u
EndChar

StartChar: ssit
Encoding: 53 -1 53
Width: 1024
VWidth: 904
Flags: W
HStem: -45.9082 80.4668<644.652 753.504> 288.502 79.498<195.88 334.764> 416 80<195.504 344.749> 771.746 80<195.504 344.749>
VStem: 52.252 80<559.251 708.495> 408 80<559.251 708.495>
AnchorPoint: "accent" 0 -120 basechar 0
LayerCount: 2
Fore
SplineSet
270.37890625 368 m 0
 214.537109375 368 158.693359375 346.8125 116.318359375 304.4375 c 0
 31.5693359375 219.6875 31.5693359375 81.0673828125 116.318359375 -3.681640625 c 0
 201.068359375 -88.431640625 339.6875 -88.431640625 424.4375 -3.681640625 c 0
 509.1875 81.0673828125 509.1875 219.6875 424.4375 304.4375 c 0
 382.0625 346.8125 326.221679688 368 270.37890625 368 c 0
270.37890625 288.501953125 m 0
 292.7734375 288.501953125 315.159179688 282.997070312 335.46484375 272.033203125 c 1
 148.72265625 85.291015625 l 1
 120.525390625 137.513671875 128.564453125 203.545898438 172.88671875 247.869140625 c 0
 199.975585938 274.958007812 235.177734375 288.501953125 270.37890625 288.501953125 c 0
392.033203125 215.46484375 m 1
 420.232421875 163.241210938 412.192382812 97.208984375 367.869140625 52.88671875 c 0
 323.545898438 8.5634765625 257.514648438 0.5234375 205.291015625 28.72265625 c 1
 392.033203125 215.46484375 l 1
753.595703125 346.162109375 m 0
 738.874023438 346.16015625 726.03125 338.091796875 719.155273438 326.048828125 c 0
 719.129882812 326.005859375 630.23828125 170.23828125 630.23828125 170.23828125 c 1
 541.32421875 14.4306640625 l 2
 537.959960938 8.533203125 536.03125 1.693359375 536.025390625 -5.5986328125 c 0
 536.006835938 -27.8037109375 553.814453125 -45.8466796875 575.767578125 -45.865234375 c 0
 575.778320312 -45.865234375 575.762695312 -45.908203125 575.7734375 -45.908203125 c 0
 575.798828125 -45.865234375 753.6328125 -45.88671875 753.6328125 -45.88671875 c 1
 931.491210938 -45.8671875 l 2
 953.422851562 -45.8603515625 971.236328125 -27.857421875 971.254882812 -5.66796875 c 0
 971.26171875 1.650390625 969.306640625 8.5595703125 965.9296875 14.4775390625 c 1
 965.954101562 14.4345703125 876.987304688 170.266601562 876.987304688 170.266601562 c 1
 788.041992188 326.0546875 l 2
 781.170898438 338.084960938 768.3203125 346.192382812 753.608398438 346.205078125 c 0
 753.595703125 346.205078125 753.608398438 346.162109375 753.595703125 346.162109375 c 0
753.606445312 225.479492188 m 1
 808.102539062 130.03125 l 1
 862.595703125 34.5830078125 l 1
 753.624023438 34.5693359375 l 1
 644.65234375 34.55859375 l 1
 699.130859375 130.017578125 l 1
 753.606445312 225.479492188 l 1
270.126953125 851.74609375 m 0
 150.272460938 851.74609375 52.251953125 753.727539062 52.251953125 633.873046875 c 0
 52.251953125 514.018554688 150.272460938 416 270.126953125 416 c 0
 389.981445312 416 488 514.018554688 488 633.873046875 c 0
 488 753.727539062 389.981445312 851.74609375 270.126953125 851.74609375 c 0
270.126953125 771.74609375 m 0
 346.74609375 771.74609375 408 710.4921875 408 633.873046875 c 0
 408 557.25390625 346.74609375 496 270.126953125 496 c 0
 193.5078125 496 132.251953125 557.25390625 132.251953125 633.873046875 c 0
 132.251953125 710.4921875 193.5078125 771.74609375 270.126953125 771.74609375 c 0
EndSplineSet
Validated: 524329
Ligature2: "'liga' Standard Ligatures in Latin lookup 0 subtable" s s i t
EndChar

StartChar: ssita
Encoding: 54 -1 54
Width: 1024
VWidth: 904
Flags: W
HStem: -45.9082 80.4688<644.898 713.875> 288.502 79.498<195.88 334.764> 416 80<195.504 344.749> 771.746 80<195.504 344.749>
VStem: 52.252 80<559.251 708.495> 408 80<559.251 708.495>
AnchorPoint: "accent" 0 -120 basechar 0
LayerCount: 2
Fore
SplineSet
270.37890625 368 m 0
 214.537109375 368 158.693359375 346.8125 116.318359375 304.4375 c 0
 31.5693359375 219.6875 31.5693359375 81.068359375 116.318359375 -3.681640625 c 0
 201.068359375 -88.431640625 339.6875 -88.431640625 424.4375 -3.681640625 c 0
 509.1875 81.068359375 509.1875 219.6875 424.4375 304.4375 c 0
 382.0625 346.8125 326.221679688 368 270.37890625 368 c 0
270.37890625 288.501953125 m 0
 292.7734375 288.501953125 315.159179688 282.997070312 335.46484375 272.033203125 c 1
 148.72265625 85.291015625 l 1
 120.525390625 137.514648438 128.564453125 203.546875 172.88671875 247.869140625 c 0
 199.975585938 274.958007812 235.177734375 288.501953125 270.37890625 288.501953125 c 0
392.033203125 215.46484375 m 1
 420.232421875 163.241210938 412.192382812 97.2099609375 367.869140625 52.88671875 c 0
 323.545898438 8.5634765625 257.514648438 0.5234375 205.291015625 28.72265625 c 1
 392.033203125 215.46484375 l 1
753.841796875 346.162109375 m 0
 739.119140625 346.16015625 726.276367188 338.091796875 719.400390625 326.048828125 c 0
 719.375 326.005859375 630.484375 170.240234375 630.484375 170.240234375 c 1
 541.569335938 14.431640625 l 2
 538.205078125 8.533203125 536.27734375 1.693359375 536.271484375 -5.5986328125 c 0
 536.251953125 -27.8037109375 554.060546875 -45.8466796875 576.013671875 -45.865234375 c 0
 576.024414062 -45.865234375 576.008789062 -45.908203125 576.01953125 -45.908203125 c 0
 576.044921875 -45.865234375 753.87890625 -45.8857421875 753.87890625 -45.8857421875 c 1
 931.73828125 -45.865234375 l 2
 953.668945312 -45.857421875 971.481445312 -27.85546875 971.5 -5.666015625 c 0
 971.505859375 1.6513671875 969.551757812 8.560546875 966.17578125 14.478515625 c 1
 966.200195312 14.435546875 877.234375 170.267578125 877.234375 170.267578125 c 1
 788.2890625 326.0546875 l 2
 781.41796875 338.084960938 768.567382812 346.192382812 753.854492188 346.205078125 c 0
 753.841796875 346.205078125 753.854492188 346.162109375 753.841796875 346.162109375 c 0
713.875 155.42578125 m 1
 713.875 34.56640625 l 1
 644.8984375 34.560546875 l 1
 699.376953125 130.01953125 l 1
 713.875 155.42578125 l 1
793.875 155.3828125 m 1
 808.349609375 130.03125 l 1
 862.841796875 34.583984375 l 1
 793.875 34.5751953125 l 1
 793.875 155.3828125 l 1
270.126953125 851.74609375 m 0
 150.272460938 851.74609375 52.251953125 753.727539062 52.251953125 633.873046875 c 0
 52.251953125 514.018554688 150.272460938 416 270.126953125 416 c 0
 389.981445312 416 488 514.018554688 488 633.873046875 c 0
 488 753.727539062 389.981445312 851.74609375 270.126953125 851.74609375 c 0
270.126953125 771.74609375 m 0
 346.74609375 771.74609375 408 710.4921875 408 633.873046875 c 0
 408 557.25390625 346.74609375 496 270.126953125 496 c 0
 193.5078125 496 132.251953125 557.25390625 132.251953125 633.873046875 c 0
 132.251953125 710.4921875 193.5078125 771.74609375 270.126953125 771.74609375 c 0
EndSplineSet
Validated: 524329
Ligature2: "'liga' Standard Ligatures in Latin lookup 0 subtable" s s i t a
EndChar

StartChar: ssudash
Encoding: 55 -1 55
Width: 1024
VWidth: 904
Flags: W
HStem: -67.748 80<195.64 344.614> 110.127 80<562.412 945.335> 288 80<195.64 344.614> 416.001 80<195.504 344.749> 771.747 80<195.504 344.749>
VStem: 52.252 80<559.252 708.496> 408 80<559.252 708.496>
AnchorPoint: "accent" 0 -120 basechar 0
LayerCount: 2
Fore
SplineSet
270.126953125 368 m 0
 150.272460938 368 52.25390625 269.981445312 52.25390625 150.126953125 c 0
 52.25390625 30.2724609375 150.272460938 -67.748046875 270.126953125 -67.748046875 c 0
 389.98046875 -67.748046875 488 30.2724609375 488 150.126953125 c 0
 488 269.981445312 389.98046875 368 270.126953125 368 c 0
270.126953125 288 m 0
 332.80859375 288 385.185546875 246.994140625 402.173828125 190.126953125 c 1
 138.080078125 190.126953125 l 1
 155.068359375 246.994140625 207.444335938 288 270.126953125 288 c 0
138.080078125 110.126953125 m 1
 402.173828125 110.126953125 l 1
 385.185546875 53.259765625 332.80859375 12.251953125 270.126953125 12.251953125 c 0
 207.444335938 12.251953125 155.068359375 53.259765625 138.080078125 110.126953125 c 1
949.698242188 150.126953125 m 0
 949.698242188 127.966796875 931.857421875 110.126953125 909.698242188 110.126953125 c 2
 598.048828125 110.126953125 l 2
 575.888671875 110.126953125 558.048828125 127.966796875 558.048828125 150.126953125 c 0
 558.048828125 172.286132812 575.888671875 190.126953125 598.048828125 190.126953125 c 2
 909.698242188 190.126953125 l 2
 931.857421875 190.126953125 949.698242188 172.286132812 949.698242188 150.126953125 c 0
270.126953125 851.747070312 m 0
 150.272460938 851.747070312 52.251953125 753.727539062 52.251953125 633.874023438 c 0
 52.251953125 514.01953125 150.272460938 416.000976562 270.126953125 416.000976562 c 0
 389.981445312 416.000976562 488 514.01953125 488 633.874023438 c 0
 488 753.727539062 389.981445312 851.747070312 270.126953125 851.747070312 c 0
270.126953125 771.747070312 m 0
 346.74609375 771.747070312 408 710.493164062 408 633.874023438 c 0
 408 557.254882812 346.74609375 496.000976562 270.126953125 496.000976562 c 0
 193.5078125 496.000976562 132.251953125 557.254882812 132.251953125 633.874023438 c 0
 132.251953125 710.493164062 193.5078125 771.747070312 270.126953125 771.747070312 c 0
EndSplineSet
Validated: 524297
Ligature2: "'liga' Standard Ligatures in Latin lookup 0 subtable" s s u dash
EndChar

StartChar: ssus
Encoding: 56 -1 56
Width: 1024
VWidth: 904
Flags: W
HStem: -67.748 80<195.64 344.614 679.25 828.495> 288 80<195.64 344.614 679.25 828.495> 416 80<195.504 344.749> 771.746 80<195.504 344.749>
VStem: 52.252 80<559.251 708.495> 408 80<559.251 708.495> 535.998 80<75.5048 224.749> 891.746 80<75.5048 224.749>
AnchorPoint: "accent" 0 -120 basechar 0
LayerCount: 2
Fore
SplineSet
270.126953125 368 m 0
 150.272460938 368 52.25390625 269.98046875 52.25390625 150.126953125 c 0
 52.25390625 30.2724609375 150.272460938 -67.748046875 270.126953125 -67.748046875 c 0
 389.98046875 -67.748046875 488 30.2724609375 488 150.126953125 c 0
 488 269.98046875 389.98046875 368 270.126953125 368 c 0
270.126953125 288 m 0
 332.80859375 288 385.185546875 246.993164062 402.173828125 190.126953125 c 1
 138.080078125 190.126953125 l 1
 155.068359375 246.993164062 207.444335938 288 270.126953125 288 c 0
138.080078125 110.126953125 m 1
 402.173828125 110.126953125 l 1
 385.185546875 53.2587890625 332.80859375 12.251953125 270.126953125 12.251953125 c 0
 207.444335938 12.251953125 155.068359375 53.2587890625 138.080078125 110.126953125 c 1
753.873046875 368 m 0
 634.018554688 368 535.998046875 269.981445312 535.998046875 150.126953125 c 0
 535.998046875 30.2724609375 634.018554688 -67.74609375 753.873046875 -67.74609375 c 0
 873.727539062 -67.74609375 971.74609375 30.2724609375 971.74609375 150.126953125 c 0
 971.74609375 269.981445312 873.727539062 368 753.873046875 368 c 0
753.873046875 288 m 0
 830.4921875 288 891.74609375 226.74609375 891.74609375 150.126953125 c 0
 891.74609375 73.5078125 830.4921875 12.25390625 753.873046875 12.25390625 c 0
 677.25390625 12.25390625 615.998046875 73.5078125 615.998046875 150.126953125 c 0
 615.998046875 226.74609375 677.25390625 288 753.873046875 288 c 0
270.126953125 851.74609375 m 0
 150.272460938 851.74609375 52.251953125 753.727539062 52.251953125 633.873046875 c 0
 52.251953125 514.018554688 150.272460938 416 270.126953125 416 c 0
 389.981445312 416 488 514.018554688 488 633.873046875 c 0
 488 753.727539062 389.981445312 851.74609375 270.126953125 851.74609375 c 0
270.126953125 771.74609375 m 0
 346.74609375 771.74609375 408 710.4921875 408 633.873046875 c 0
 408 557.25390625 346.74609375 496 270.126953125 496 c 0
 193.5078125 496 132.251953125 557.25390625 132.251953125 633.873046875 c 0
 132.251953125 710.4921875 193.5078125 771.74609375 270.126953125 771.74609375 c 0
EndSplineSet
Validated: 524297
Ligature2: "'liga' Standard Ligatures in Latin lookup 0 subtable" s s u s
EndChar

StartChar: ssusa
Encoding: 57 -1 57
Width: 1024
VWidth: 904
Flags: W
HStem: -67.748 80<195.64 344.614> 288 80<195.64 344.614> 416 80<195.504 344.749> 771.746 80<195.504 344.749>
VStem: 52.252 80<559.251 708.495> 408 80<559.251 708.495> 536 80<75.6396 224.614> 891.748 80<75.6396 224.614>
AnchorPoint: "accent" 0 -120 basechar 0
LayerCount: 2
Fore
SplineSet
753.875 368 m 0
 634.020507812 368 536 269.981445312 536 150.126953125 c 0
 536 30.2724609375 634.020507812 -67.74609375 753.875 -67.74609375 c 0
 873.729492188 -67.74609375 971.748046875 30.2724609375 971.748046875 150.126953125 c 0
 971.748046875 269.981445312 873.729492188 368 753.875 368 c 0
713.875 282.173828125 m 1
 713.875 18.080078125 l 1
 657.0078125 35.068359375 616 87.4443359375 616 150.126953125 c 0
 616 212.809570312 657.0078125 265.185546875 713.875 282.173828125 c 1
793.875 282.173828125 m 1
 850.7421875 265.185546875 891.748046875 212.809570312 891.748046875 150.126953125 c 0
 891.748046875 87.4443359375 850.7421875 35.068359375 793.875 18.080078125 c 1
 793.875 282.173828125 l 1
270.126953125 368 m 0
 150.272460938 368 52.25390625 269.98046875 52.25390625 150.126953125 c 0
 52.25390625 30.2724609375 150.272460938 -67.748046875 270.126953125 -67.748046875 c 0
 389.98046875 -67.748046875 488 30.2724609375 488 150.126953125 c 0
 488 269.98046875 389.98046875 368 270.126953125 368 c 0
270.126953125 288 m 0
 332.80859375 288 385.185546875 246.993164062 402.173828125 190.126953125 c 1
 138.080078125 190.126953125 l 1
 155.068359375 246.993164062 207.444335938 288 270.126953125 288 c 0
138.080078125 110.126953125 m 1
 402.173828125 110.126953125 l 1
 385.185546875 53.2587890625 332.80859375 12.251953125 270.126953125 12.251953125 c 0
 207.444335938 12.251953125 155.068359375 53.2587890625 138.080078125 110.126953125 c 1
270.126953125 851.74609375 m 0
 150.272460938 851.74609375 52.251953125 753.727539062 52.251953125 633.873046875 c 0
 52.251953125 514.018554688 150.272460938 416 270.126953125 416 c 0
 389.981445312 416 488 514.018554688 488 633.873046875 c 0
 488 753.727539062 389.981445312 851.74609375 270.126953125 851.74609375 c 0
270.126953125 771.74609375 m 0
 346.74609375 771.74609375 408 710.4921875 408 633.873046875 c 0
 408 557.25390625 346.74609375 496 270.126953125 496 c 0
 193.5078125 496 132.251953125 557.25390625 132.251953125 633.873046875 c 0
 132.251953125 710.4921875 193.5078125 771.74609375 270.126953125 771.74609375 c 0
EndSplineSet
Validated: 524297
Ligature2: "'liga' Standard Ligatures in Latin lookup 0 subtable" s s u s a
EndChar

StartChar: ssusi
Encoding: 58 -1 58
Width: 1024
VWidth: 904
Flags: W
HStem: -67.748 80<195.64 344.614> 288 80<195.64 344.614 679.124 818.008> 416 80<195.504 344.749> 771.746 80<195.504 344.749>
VStem: 52.252 80<559.251 708.495> 408 80<559.251 708.495>
AnchorPoint: "accent" 0 -120 basechar 0
LayerCount: 2
Fore
SplineSet
753.623046875 367.749023438 m 0
 697.780273438 367.749023438 641.9375 346.560546875 599.5625 304.186523438 c 0
 514.8125 219.436523438 514.8125 80.81640625 599.5625 -3.93359375 c 0
 684.3125 -88.6826171875 822.931640625 -88.6826171875 907.681640625 -3.9326171875 c 0
 992.430664062 80.81640625 992.431640625 219.436523438 907.681640625 304.186523438 c 0
 865.306640625 346.560546875 809.46484375 367.749023438 753.623046875 367.749023438 c 0
753.623046875 288.250976562 m 0
 776.017578125 288.25 798.403320312 282.745117188 818.708984375 271.782226562 c 1
 631.966796875 85.0400390625 l 1
 603.76953125 137.262695312 611.807617188 203.294921875 656.130859375 247.618164062 c 0
 683.219726562 274.70703125 718.421875 288.25 753.623046875 288.250976562 c 0
875.27734375 215.213867188 m 1
 903.475585938 162.989257812 895.436523438 96.9580078125 851.11328125 52.6357421875 c 0
 806.790039062 8.3125 740.758789062 0.2724609375 688.53515625 28.4716796875 c 1
 875.27734375 215.213867188 l 1
270.126953125 368 m 0
 150.272460938 368 52.25390625 269.98046875 52.25390625 150.126953125 c 0
 52.25390625 30.2724609375 150.272460938 -67.748046875 270.126953125 -67.748046875 c 0
 389.98046875 -67.748046875 488 30.2724609375 488 150.126953125 c 0
 488 269.98046875 389.98046875 368 270.126953125 368 c 0
270.126953125 288 m 0
 332.80859375 288 385.185546875 246.993164062 402.173828125 190.126953125 c 1
 138.080078125 190.126953125 l 1
 155.068359375 246.993164062 207.444335938 288 270.126953125 288 c 0
138.080078125 110.126953125 m 1
 402.173828125 110.126953125 l 1
 385.185546875 53.2587890625 332.80859375 12.251953125 270.126953125 12.251953125 c 0
 207.444335938 12.251953125 155.068359375 53.2587890625 138.080078125 110.126953125 c 1
270.126953125 851.74609375 m 0
 150.272460938 851.74609375 52.251953125 753.727539062 52.251953125 633.873046875 c 0
 52.251953125 514.018554688 150.272460938 416 270.126953125 416 c 0
 389.981445312 416 488 514.018554688 488 633.873046875 c 0
 488 753.727539062 389.981445312 851.74609375 270.126953125 851.74609375 c 0
270.126953125 771.74609375 m 0
 346.74609375 771.74609375 408 710.4921875 408 633.873046875 c 0
 408 557.25390625 346.74609375 496 270.126953125 496 c 0
 193.5078125 496 132.251953125 557.25390625 132.251953125 633.873046875 c 0
 132.251953125 710.4921875 193.5078125 771.74609375 270.126953125 771.74609375 c 0
EndSplineSet
Validated: 524329
Ligature2: "'liga' Standard Ligatures in Latin lookup 0 subtable" s s u s i
EndChar

StartChar: ssusu
Encoding: 59 -1 59
Width: 1024
VWidth: 904
Flags: W
HStem: -67.748 80<195.64 344.614 679.386 828.36> 288 80<195.64 344.614 679.386 828.36> 416 80<195.504 344.749> 771.746 80<195.504 344.749>
VStem: 52.252 80<559.251 708.495> 408 80<559.251 708.495>
AnchorPoint: "accent" 0 -120 basechar 0
LayerCount: 2
Fore
SplineSet
270.126953125 368 m 0
 150.272460938 368 52.25390625 269.98046875 52.25390625 150.126953125 c 0
 52.25390625 30.2724609375 150.272460938 -67.748046875 270.126953125 -67.748046875 c 0
 389.98046875 -67.748046875 488 30.2724609375 488 150.126953125 c 0
 488 269.98046875 389.98046875 368 270.126953125 368 c 0
270.126953125 288 m 0
 332.80859375 288 385.185546875 246.993164062 402.173828125 190.126953125 c 1
 138.080078125 190.126953125 l 1
 155.068359375 246.993164062 207.444335938 288 270.126953125 288 c 0
138.080078125 110.126953125 m 1
 402.173828125 110.126953125 l 1
 385.185546875 53.2587890625 332.80859375 12.251953125 270.126953125 12.251953125 c 0
 207.444335938 12.251953125 155.068359375 53.2587890625 138.080078125 110.126953125 c 1
753.873046875 368 m 0
 634.01953125 368 536 269.981445312 536 150.126953125 c 0
 536 30.2724609375 634.01953125 -67.748046875 753.873046875 -67.748046875 c 0
 873.727539062 -67.748046875 971.74609375 30.2724609375 971.74609375 150.126953125 c 0
 971.74609375 269.981445312 873.727539062 368 753.873046875 368 c 0
753.873046875 288 m 0
 816.555664062 288 868.931640625 246.994140625 885.919921875 190.126953125 c 1
 621.826171875 190.126953125 l 1
 638.814453125 246.994140625 691.19140625 288 753.873046875 288 c 0
621.826171875 110.126953125 m 1
 885.919921875 110.126953125 l 1
 868.931640625 53.259765625 816.555664062 12.251953125 753.873046875 12.251953125 c 0
 691.19140625 12.251953125 638.814453125 53.259765625 621.826171875 110.126953125 c 1
270.126953125 851.74609375 m 0
 150.272460938 851.74609375 52.251953125 753.727539062 52.251953125 633.873046875 c 0
 52.251953125 514.018554688 150.272460938 416 270.126953125 416 c 0
 389.981445312 416 488 514.018554688 488 633.873046875 c 0
 488 753.727539062 389.981445312 851.74609375 270.126953125 851.74609375 c 0
270.126953125 771.74609375 m 0
 346.74609375 771.74609375 408 710.4921875 408 633.873046875 c 0
 408 557.25390625 346.74609375 496 270.126953125 496 c 0
 193.5078125 496 132.251953125 557.25390625 132.251953125 633.873046875 c 0
 132.251953125 710.4921875 193.5078125 771.74609375 270.126953125 771.74609375 c 0
EndSplineSet
Validated: 524297
Ligature2: "'liga' Standard Ligatures in Latin lookup 0 subtable" s s u s u
EndChar

StartChar: ssum
Encoding: 60 -1 60
Width: 1024
VWidth: 904
Flags: W
HStem: -67.748 80<195.64 344.614 616.127 640.855 866.889 891.617> 288 80<195.64 344.614 616.127 640.855 866.889 891.617> 416 80<195.504 344.749> 771.746 80<195.504 344.749>
VStem: 52.252 80<559.251 708.495> 408 80<559.251 708.495> 535.999 80<12.3823 37.1104 263.144 287.872> 891.745 80<12.3823 37.1104 263.144 287.872>
AnchorPoint: "accent" 0 -120 basechar 0
LayerCount: 2
Fore
SplineSet
270.126953125 368 m 0
 150.272460938 368 52.25390625 269.98046875 52.25390625 150.126953125 c 0
 52.25390625 30.2724609375 150.272460938 -67.748046875 270.126953125 -67.748046875 c 0
 389.98046875 -67.748046875 488 30.2724609375 488 150.126953125 c 0
 488 269.98046875 389.98046875 368 270.126953125 368 c 0
270.126953125 288 m 0
 332.80859375 288 385.185546875 246.993164062 402.173828125 190.126953125 c 1
 138.080078125 190.126953125 l 1
 155.068359375 246.993164062 207.444335938 288 270.126953125 288 c 0
138.080078125 110.126953125 m 1
 402.173828125 110.126953125 l 1
 385.185546875 53.2587890625 332.80859375 12.251953125 270.126953125 12.251953125 c 0
 207.444335938 12.251953125 155.068359375 53.2587890625 138.080078125 110.126953125 c 1
605.239257812 368 m 2
 567.573242188 368 535.999023438 336.426757812 535.999023438 298.759765625 c 2
 535.999023438 1.4921875 l 2
 535.999023438 -36.1748046875 567.573242188 -67.74609375 605.239257812 -67.74609375 c 2
 902.506835938 -67.74609375 l 2
 940.173828125 -67.74609375 971.745117188 -36.1748046875 971.745117188 1.4921875 c 2
 971.745117188 298.759765625 l 2
 971.745117188 336.426757812 940.173828125 368 902.506835938 368 c 2
 605.239257812 368 l 2
640.85546875 288 m 2
 866.888671875 288 l 2
 880.607421875 288 891.745117188 276.862304688 891.745117188 263.143554688 c 0
 891.745117188 37.1103515625 l 2
 891.745117188 23.3916015625 880.607421875 12.25390625 866.888671875 12.25390625 c 0
 640.85546875 12.25390625 l 2
 627.13671875 12.25390625 615.999023438 23.3916015625 615.999023438 37.1103515625 c 0
 615.999023438 263.143554688 l 2
 615.999023438 276.862304688 627.13671875 288 640.85546875 288 c 2
270.126953125 851.74609375 m 0
 150.272460938 851.74609375 52.251953125 753.727539062 52.251953125 633.873046875 c 0
 52.251953125 514.018554688 150.272460938 416 270.126953125 416 c 0
 389.981445312 416 488 514.018554688 488 633.873046875 c 0
 488 753.727539062 389.981445312 851.74609375 270.126953125 851.74609375 c 0
270.126953125 771.74609375 m 0
 346.74609375 771.74609375 408 710.4921875 408 633.873046875 c 0
 408 557.25390625 346.74609375 496 270.126953125 496 c 0
 193.5078125 496 132.251953125 557.25390625 132.251953125 633.873046875 c 0
 132.251953125 710.4921875 193.5078125 771.74609375 270.126953125 771.74609375 c 0
EndSplineSet
Validated: 524297
Ligature2: "'liga' Standard Ligatures in Latin lookup 0 subtable" s s u m
EndChar

StartChar: ssuma
Encoding: 61 -1 61
Width: 1024
VWidth: 904
Flags: W
HStem: -67.748 80<195.64 344.614 616.128 640.854 866.888 891.617> 288 80<195.64 344.614 616.127 640.854 866.888 891.617> 416 80<195.504 344.749> 771.746 80<195.504 344.749>
VStem: 52.252 80<559.251 708.495> 408 80<559.251 708.495> 535.999 80<12.3823 37.1094 263.143 287.871> 891.745 80<12.3823 37.1094 37.2732 287.872>
AnchorPoint: "accent" 0 -120 basechar 0
LayerCount: 2
Fore
SplineSet
270.126953125 368 m 0
 150.272460938 368 52.25390625 269.98046875 52.25390625 150.126953125 c 0
 52.25390625 30.2724609375 150.272460938 -67.748046875 270.126953125 -67.748046875 c 0
 389.98046875 -67.748046875 488 30.2724609375 488 150.126953125 c 0
 488 269.98046875 389.98046875 368 270.126953125 368 c 0
270.126953125 288 m 0
 332.80859375 288 385.185546875 246.993164062 402.173828125 190.126953125 c 1
 138.080078125 190.126953125 l 1
 155.068359375 246.993164062 207.444335938 288 270.126953125 288 c 0
138.080078125 110.126953125 m 1
 402.173828125 110.126953125 l 1
 385.185546875 53.2587890625 332.80859375 12.251953125 270.126953125 12.251953125 c 0
 207.444335938 12.251953125 155.068359375 53.2587890625 138.080078125 110.126953125 c 1
605.239257812 368 m 2
 567.573242188 368 535.999023438 336.426757812 535.999023438 298.759765625 c 2
 535.999023438 1.4921875 l 2
 535.999023438 -36.1748046875 567.573242188 -67.74609375 605.239257812 -67.74609375 c 2
 902.506835938 -67.74609375 l 2
 940.173828125 -67.74609375 971.745117188 -36.1748046875 971.745117188 1.4921875 c 2
 971.745117188 298.759765625 l 2
 971.745117188 336.426757812 940.173828125 368 902.506835938 368 c 2
 605.239257812 368 l 2
640.854492188 288 m 2
 713.872070312 288 l 1
 713.872070312 12.25390625 l 1
 640.854492188 12.25390625 l 2
 627.13671875 12.25390625 616 23.3916015625 615.999023438 37.109375 c 1
 615.999023438 263.142578125 l 2
 615.999023438 276.861328125 627.13671875 287.999023438 640.854492188 288 c 2
793.872070312 288 m 1
 866.887695312 288 l 2
 880.606445312 288 891.745117188 276.861328125 891.745117188 263.142578125 c 1
 891.744140625 263.143554688 891.745117188 37.109375 891.745117188 37.109375 c 2
 891.745117188 23.3916015625 880.606445312 12.25390625 866.887695312 12.25390625 c 1
 866.888671875 12.25390625 793.872070312 12.25390625 793.872070312 12.25390625 c 1
 793.872070312 288 l 1
270.126953125 851.74609375 m 0
 150.272460938 851.74609375 52.251953125 753.727539062 52.251953125 633.873046875 c 0
 52.251953125 514.018554688 150.272460938 416 270.126953125 416 c 0
 389.981445312 416 488 514.018554688 488 633.873046875 c 0
 488 753.727539062 389.981445312 851.74609375 270.126953125 851.74609375 c 0
270.126953125 771.74609375 m 0
 346.74609375 771.74609375 408 710.4921875 408 633.873046875 c 0
 408 557.25390625 346.74609375 496 270.126953125 496 c 0
 193.5078125 496 132.251953125 557.25390625 132.251953125 633.873046875 c 0
 132.251953125 710.4921875 193.5078125 771.74609375 270.126953125 771.74609375 c 0
EndSplineSet
Validated: 524329
Ligature2: "'liga' Standard Ligatures in Latin lookup 0 subtable" s s u m a
EndChar

StartChar: ssumi
Encoding: 62 -1 62
Width: 1024
VWidth: 904
Flags: W
HStem: -67.748 80<195.64 344.614 866.89 891.617> 288 80<195.64 344.614 616.127 640.856> 416 80<195.504 344.749> 771.746 80<195.504 344.749>
VStem: 52.252 80<559.251 708.495> 408 80<559.251 708.495>
AnchorPoint: "accent" 0 -120 basechar 0
LayerCount: 2
Fore
SplineSet
270.126953125 368 m 0
 150.272460938 368 52.25390625 269.98046875 52.25390625 150.126953125 c 0
 52.25390625 30.2724609375 150.272460938 -67.748046875 270.126953125 -67.748046875 c 0
 389.98046875 -67.748046875 488 30.2724609375 488 150.126953125 c 0
 488 269.98046875 389.98046875 368 270.126953125 368 c 0
270.126953125 288 m 0
 332.80859375 288 385.185546875 246.993164062 402.173828125 190.126953125 c 1
 138.080078125 190.126953125 l 1
 155.068359375 246.993164062 207.444335938 288 270.126953125 288 c 0
138.080078125 110.126953125 m 1
 402.173828125 110.126953125 l 1
 385.185546875 53.2587890625 332.80859375 12.251953125 270.126953125 12.251953125 c 0
 207.444335938 12.251953125 155.068359375 53.2587890625 138.080078125 110.126953125 c 1
605.239257812 368 m 2
 567.573242188 368 535.999023438 336.426757812 535.999023438 298.759765625 c 2
 535.999023438 1.4921875 l 2
 535.999023438 -36.1748046875 567.573242188 -67.74609375 605.239257812 -67.74609375 c 2
 902.506835938 -67.74609375 l 2
 940.173828125 -67.74609375 971.745117188 -36.1748046875 971.745117188 1.4921875 c 2
 971.745117188 298.759765625 l 2
 971.745117188 336.426757812 940.173828125 368 902.506835938 368 c 2
 605.239257812 368 l 2
640.856445312 288 m 2
 835.176757812 288 l 1
 615.999023438 68.822265625 l 1
 615.999023438 263.142578125 l 2
 615.999023438 276.861328125 627.137695312 288 640.856445312 288 c 2
891.745117188 231.4296875 m 1
 891.745117188 37.109375 l 2
 891.745117188 23.3916015625 880.607421875 12.25390625 866.889648438 12.25390625 c 1
 672.569335938 12.25390625 l 1
 891.745117188 231.4296875 l 1
270.126953125 851.74609375 m 0
 150.272460938 851.74609375 52.251953125 753.727539062 52.251953125 633.873046875 c 0
 52.251953125 514.018554688 150.272460938 416 270.126953125 416 c 0
 389.981445312 416 488 514.018554688 488 633.873046875 c 0
 488 753.727539062 389.981445312 851.74609375 270.126953125 851.74609375 c 0
270.126953125 771.74609375 m 0
 346.74609375 771.74609375 408 710.4921875 408 633.873046875 c 0
 408 557.25390625 346.74609375 496 270.126953125 496 c 0
 193.5078125 496 132.251953125 557.25390625 132.251953125 633.873046875 c 0
 132.251953125 710.4921875 193.5078125 771.74609375 270.126953125 771.74609375 c 0
EndSplineSet
Validated: 524297
Ligature2: "'liga' Standard Ligatures in Latin lookup 0 subtable" s s u m i
EndChar

StartChar: ssumu
Encoding: 63 -1 63
Width: 1024
VWidth: 904
Flags: W
HStem: -67.748 80<195.64 344.614 616.13 640.858 866.892 891.619> 288 80<195.64 344.614 616.129 640.858 866.892 891.619> 416 80<195.504 344.749> 771.746 80<195.504 344.749>
VStem: 52.252 80<559.251 708.495> 408 80<559.251 708.495> 536.001 80<12.3823 37.1094 263.143 287.872> 891.747 80<12.3823 37.1094 263.143 287.871>
AnchorPoint: "accent" 0 -120 basechar 0
LayerCount: 2
Fore
SplineSet
270.126953125 368 m 0
 150.272460938 368 52.25390625 269.98046875 52.25390625 150.126953125 c 0
 52.25390625 30.2724609375 150.272460938 -67.748046875 270.126953125 -67.748046875 c 0
 389.98046875 -67.748046875 488 30.2724609375 488 150.126953125 c 0
 488 269.98046875 389.98046875 368 270.126953125 368 c 0
270.126953125 288 m 0
 332.80859375 288 385.185546875 246.993164062 402.173828125 190.126953125 c 1
 138.080078125 190.126953125 l 1
 155.068359375 246.993164062 207.444335938 288 270.126953125 288 c 0
138.080078125 110.126953125 m 1
 402.173828125 110.126953125 l 1
 385.185546875 53.2587890625 332.80859375 12.251953125 270.126953125 12.251953125 c 0
 207.444335938 12.251953125 155.068359375 53.2587890625 138.080078125 110.126953125 c 1
270.126953125 851.74609375 m 0
 150.272460938 851.74609375 52.251953125 753.727539062 52.251953125 633.873046875 c 0
 52.251953125 514.018554688 150.272460938 416 270.126953125 416 c 0
 389.981445312 416 488 514.018554688 488 633.873046875 c 0
 488 753.727539062 389.981445312 851.74609375 270.126953125 851.74609375 c 0
270.126953125 771.74609375 m 0
 346.74609375 771.74609375 408 710.4921875 408 633.873046875 c 0
 408 557.25390625 346.74609375 496 270.126953125 496 c 0
 193.5078125 496 132.251953125 557.25390625 132.251953125 633.873046875 c 0
 132.251953125 710.4921875 193.5078125 771.74609375 270.126953125 771.74609375 c 0
605.239257812 368 m 2
 567.573242188 368 536.000976562 336.426757812 536.000976562 298.759765625 c 2
 536.000976562 1.4921875 l 2
 536.000976562 -36.1748046875 567.573242188 -67.74609375 605.239257812 -67.74609375 c 2
 902.506835938 -67.74609375 l 2
 940.173828125 -67.74609375 971.747070312 -36.1748046875 971.747070312 1.4921875 c 2
 971.747070312 298.759765625 l 2
 971.747070312 336.426757812 940.173828125 368 902.506835938 368 c 2
 605.239257812 368 l 2
640.858398438 288 m 2
 866.891601562 288 l 2
 880.610351562 287.999023438 891.747070312 276.861328125 891.747070312 263.142578125 c 1
 891.747070312 263.143554688 891.747070312 190.126953125 891.747070312 190.126953125 c 1
 616.000976562 190.126953125 l 1
 616.000976562 263.142578125 l 2
 616.000976562 276.861328125 627.139648438 288 640.858398438 288 c 2
616.000976562 110.126953125 m 1
 891.747070312 110.126953125 l 1
 891.747070312 37.109375 l 2
 891.747070312 23.3916015625 880.609375 12.25390625 866.891601562 12.25390625 c 1
 640.858398438 12.25390625 l 2
 627.140625 12.25390625 616.001953125 23.3916015625 616.000976562 37.109375 c 1
 616.001953125 37.109375 616.000976562 110.126953125 616.000976562 110.126953125 c 1
EndSplineSet
Validated: 524329
Ligature2: "'liga' Standard Ligatures in Latin lookup 0 subtable" s s u m u
EndChar

StartChar: ssut
Encoding: 64 -1 64
Width: 1024
VWidth: 904
Flags: W
HStem: -67.748 80<195.64 344.614> -45.9082 80.4668<644.897 753.749> 288 80<195.64 344.614> 416 80<195.504 344.749> 771.746 80<195.504 344.749>
VStem: 52.252 80<559.251 708.495> 408 80<559.251 708.495>
AnchorPoint: "accent" 0 -120 basechar 0
LayerCount: 2
Fore
SplineSet
270.126953125 368 m 0xbe
 150.272460938 368 52.25390625 269.98046875 52.25390625 150.126953125 c 0
 52.25390625 30.2724609375 150.272460938 -67.748046875 270.126953125 -67.748046875 c 0
 389.98046875 -67.748046875 488 30.2724609375 488 150.126953125 c 0
 488 269.98046875 389.98046875 368 270.126953125 368 c 0xbe
270.126953125 288 m 0
 332.80859375 288 385.185546875 246.993164062 402.173828125 190.126953125 c 1
 138.080078125 190.126953125 l 1
 155.068359375 246.993164062 207.444335938 288 270.126953125 288 c 0
138.080078125 110.126953125 m 1
 402.173828125 110.126953125 l 1
 385.185546875 53.2587890625 332.80859375 12.251953125 270.126953125 12.251953125 c 0
 207.444335938 12.251953125 155.068359375 53.2587890625 138.080078125 110.126953125 c 1
753.840820312 346.162109375 m 0
 739.119140625 346.16015625 726.276367188 338.091796875 719.400390625 326.048828125 c 0
 719.375976562 326.005859375 630.483398438 170.23828125 630.483398438 170.23828125 c 1
 541.569335938 14.4306640625 l 2
 538.205078125 8.533203125 536.276367188 1.693359375 536.270507812 -5.5986328125 c 0
 536.251953125 -27.8037109375 554.059570312 -45.8466796875 576.012695312 -45.865234375 c 0
 576.0234375 -45.865234375 576.0078125 -45.908203125 576.018554688 -45.908203125 c 0x7e
 576.044921875 -45.865234375 753.877929688 -45.88671875 753.877929688 -45.88671875 c 1
 931.736328125 -45.8671875 l 2
 953.668945312 -45.8603515625 971.481445312 -27.857421875 971.5 -5.66796875 c 0
 971.506835938 1.650390625 969.551757812 8.560546875 966.174804688 14.478515625 c 1
 966.19921875 14.435546875 877.232421875 170.266601562 877.232421875 170.266601562 c 1
 788.287109375 326.0546875 l 2
 781.416992188 338.084960938 768.56640625 346.192382812 753.853515625 346.205078125 c 0
 753.840820312 346.205078125 753.853515625 346.162109375 753.840820312 346.162109375 c 0
753.8515625 225.479492188 m 1
 808.34765625 130.03125 l 1
 862.840820312 34.5830078125 l 1
 753.869140625 34.5693359375 l 1
 644.897460938 34.55859375 l 1
 699.375976562 130.017578125 l 1
 753.8515625 225.479492188 l 1
270.126953125 851.74609375 m 0
 150.272460938 851.74609375 52.251953125 753.727539062 52.251953125 633.873046875 c 0
 52.251953125 514.018554688 150.272460938 416 270.126953125 416 c 0
 389.981445312 416 488 514.018554688 488 633.873046875 c 0
 488 753.727539062 389.981445312 851.74609375 270.126953125 851.74609375 c 0
270.126953125 771.74609375 m 0
 346.74609375 771.74609375 408 710.4921875 408 633.873046875 c 0
 408 557.25390625 346.74609375 496 270.126953125 496 c 0
 193.5078125 496 132.251953125 557.25390625 132.251953125 633.873046875 c 0
 132.251953125 710.4921875 193.5078125 771.74609375 270.126953125 771.74609375 c 0
EndSplineSet
Validated: 524329
Ligature2: "'liga' Standard Ligatures in Latin lookup 0 subtable" s s u t
EndChar

StartChar: ssuta
Encoding: 65 -1 65
Width: 1024
VWidth: 904
HStem: -67.748 80<195.64 344.614> -45.9082 80.4688<644.898 713.875> 288 80<195.64 344.614> 416 80<195.504 344.749> 771.746 80<195.504 344.749>
VStem: 52.252 80<559.251 708.495> 408 80<559.251 708.495>
AnchorPoint: "accent" 0 -120 basechar 0
LayerCount: 2
Fore
SplineSet
270.126953125 368 m 0xbe
 150.272460938 368 52.25390625 269.98046875 52.25390625 150.126953125 c 0
 52.25390625 30.2724609375 150.272460938 -67.748046875 270.126953125 -67.748046875 c 0
 389.98046875 -67.748046875 488 30.2724609375 488 150.126953125 c 0
 488 269.98046875 389.98046875 368 270.126953125 368 c 0xbe
270.126953125 288 m 0
 332.80859375 288 385.185546875 246.993164062 402.173828125 190.126953125 c 1
 138.080078125 190.126953125 l 1
 155.068359375 246.993164062 207.444335938 288 270.126953125 288 c 0
138.080078125 110.126953125 m 1
 402.173828125 110.126953125 l 1
 385.185546875 53.2587890625 332.80859375 12.251953125 270.126953125 12.251953125 c 0
 207.444335938 12.251953125 155.068359375 53.2587890625 138.080078125 110.126953125 c 1
753.841796875 346.162109375 m 0
 739.119140625 346.16015625 726.276367188 338.091796875 719.400390625 326.048828125 c 0
 719.375 326.005859375 630.484375 170.240234375 630.484375 170.240234375 c 1
 541.569335938 14.431640625 l 2
 538.205078125 8.533203125 536.27734375 1.693359375 536.271484375 -5.5986328125 c 0
 536.251953125 -27.8037109375 554.060546875 -45.8466796875 576.013671875 -45.865234375 c 0
 576.024414062 -45.865234375 576.008789062 -45.908203125 576.01953125 -45.908203125 c 0x7e
 576.044921875 -45.865234375 753.87890625 -45.884765625 753.87890625 -45.884765625 c 1
 931.73828125 -45.865234375 l 2
 953.668945312 -45.857421875 971.481445312 -27.85546875 971.5 -5.666015625 c 0
 971.505859375 1.6513671875 969.551757812 8.560546875 966.17578125 14.478515625 c 1
 966.200195312 14.4345703125 877.234375 170.267578125 877.234375 170.267578125 c 1
 788.2890625 326.0546875 l 2
 781.41796875 338.084960938 768.567382812 346.192382812 753.854492188 346.205078125 c 0
 753.841796875 346.205078125 753.854492188 346.162109375 753.841796875 346.162109375 c 0
713.875 155.42578125 m 1
 713.875 34.56640625 l 1
 644.8984375 34.560546875 l 1
 699.376953125 130.01953125 l 1
 713.875 155.42578125 l 1
793.875 155.3828125 m 1
 808.349609375 130.03125 l 1
 862.841796875 34.583984375 l 1
 793.875 34.5751953125 l 1
 793.875 155.3828125 l 1
270.126953125 851.74609375 m 0
 150.272460938 851.74609375 52.251953125 753.727539062 52.251953125 633.873046875 c 0
 52.251953125 514.018554688 150.272460938 416 270.126953125 416 c 0
 389.981445312 416 488 514.018554688 488 633.873046875 c 0
 488 753.727539062 389.981445312 851.74609375 270.126953125 851.74609375 c 0
270.126953125 771.74609375 m 0
 346.74609375 771.74609375 408 710.4921875 408 633.873046875 c 0
 408 557.25390625 346.74609375 496 270.126953125 496 c 0
 193.5078125 496 132.251953125 557.25390625 132.251953125 633.873046875 c 0
 132.251953125 710.4921875 193.5078125 771.74609375 270.126953125 771.74609375 c 0
EndSplineSet
Validated: 524329
Ligature2: "'liga' Standard Ligatures in Latin lookup 0 subtable" s s u t a
EndChar

StartChar: smdash
Encoding: 66 -1 66
Width: 1024
VWidth: 904
Flags: W
HStem: -67.7461 80<132.381 157.109 383.143 407.871> 110.127 80<562.412 945.335> 288 80<132.381 157.109 383.143 407.871> 416 80<195.504 344.749> 771.746 80<195.504 344.749>
VStem: 52.252 80<12.3823 37.1104 263.144 287.872 559.251 708.495> 407.999 80<12.3823 37.1104 263.144 287.872 559.251 708.495>
AnchorPoint: "accent" 0 -120 basechar 0
LayerCount: 2
Fore
SplineSet
121.493164062 368 m 2
 83.826171875 368 52.2529296875 336.426757812 52.2529296875 298.759765625 c 2
 52.2529296875 1.4921875 l 2
 52.2529296875 -36.1748046875 83.826171875 -67.74609375 121.493164062 -67.74609375 c 2
 418.760742188 -67.74609375 l 2
 456.427734375 -67.74609375 487.999023438 -36.1748046875 487.999023438 1.4921875 c 2
 487.999023438 298.759765625 l 2
 487.999023438 336.426757812 456.427734375 368 418.760742188 368 c 2
 121.493164062 368 l 2
157.109375 288 m 2
 383.142578125 288 l 2
 396.861328125 288 407.999023438 276.862304688 407.999023438 263.143554688 c 0
 407.999023438 37.1103515625 l 2
 407.999023438 23.3916015625 396.861328125 12.25390625 383.142578125 12.25390625 c 0
 157.109375 12.25390625 l 2
 143.390625 12.25390625 132.252929688 23.3916015625 132.252929688 37.1103515625 c 0
 132.252929688 263.143554688 l 2
 132.252929688 276.862304688 143.390625 288 157.109375 288 c 2
949.698242188 150.126953125 m 0
 949.698242188 127.966796875 931.857421875 110.126953125 909.698242188 110.126953125 c 2
 598.048828125 110.126953125 l 2
 575.888671875 110.126953125 558.048828125 127.966796875 558.048828125 150.126953125 c 0
 558.048828125 172.286132812 575.888671875 190.126953125 598.048828125 190.126953125 c 2
 909.698242188 190.126953125 l 2
 931.857421875 190.126953125 949.698242188 172.286132812 949.698242188 150.126953125 c 0
270.126953125 851.74609375 m 0
 150.272460938 851.74609375 52.251953125 753.727539062 52.251953125 633.873046875 c 0
 52.251953125 514.018554688 150.272460938 416 270.126953125 416 c 0
 389.981445312 416 488 514.018554688 488 633.873046875 c 0
 488 753.727539062 389.981445312 851.74609375 270.126953125 851.74609375 c 0
270.126953125 771.74609375 m 0
 346.74609375 771.74609375 408 710.4921875 408 633.873046875 c 0
 408 557.25390625 346.74609375 496 270.126953125 496 c 0
 193.5078125 496 132.251953125 557.25390625 132.251953125 633.873046875 c 0
 132.251953125 710.4921875 193.5078125 771.74609375 270.126953125 771.74609375 c 0
EndSplineSet
Validated: 524297
Ligature2: "'liga' Standard Ligatures in Latin lookup 0 subtable" s m dash
EndChar

StartChar: sms
Encoding: 67 -1 67
Width: 1024
VWidth: 904
Flags: W
HStem: -67.7461 80<132.381 157.109 383.143 407.871 679.25 828.495> 288 80<132.381 157.109 383.143 407.871 679.25 828.495> 416 80<195.504 344.749> 771.746 80<195.504 344.749>
VStem: 52.252 80<12.3823 37.1104 263.144 287.872 559.251 708.495> 407.999 80<12.3823 37.1104 263.144 287.872 559.251 708.495> 535.998 80<75.5048 224.749> 891.746 80<75.5048 224.749>
AnchorPoint: "accent" 0 -120 basechar 0
LayerCount: 2
Fore
SplineSet
121.493164062 368 m 2
 83.826171875 368 52.2529296875 336.426757812 52.2529296875 298.759765625 c 2
 52.2529296875 1.4921875 l 2
 52.2529296875 -36.1748046875 83.826171875 -67.74609375 121.493164062 -67.74609375 c 2
 418.760742188 -67.74609375 l 2
 456.427734375 -67.74609375 487.999023438 -36.1748046875 487.999023438 1.4921875 c 2
 487.999023438 298.759765625 l 2
 487.999023438 336.426757812 456.427734375 368 418.760742188 368 c 2
 121.493164062 368 l 2
157.109375 288 m 2
 383.142578125 288 l 2
 396.861328125 288 407.999023438 276.862304688 407.999023438 263.143554688 c 0
 407.999023438 37.1103515625 l 2
 407.999023438 23.3916015625 396.861328125 12.25390625 383.142578125 12.25390625 c 0
 157.109375 12.25390625 l 2
 143.390625 12.25390625 132.252929688 23.3916015625 132.252929688 37.1103515625 c 0
 132.252929688 263.143554688 l 2
 132.252929688 276.862304688 143.390625 288 157.109375 288 c 2
753.873046875 368 m 0
 634.018554688 368 535.998046875 269.981445312 535.998046875 150.126953125 c 0
 535.998046875 30.2724609375 634.018554688 -67.74609375 753.873046875 -67.74609375 c 0
 873.727539062 -67.74609375 971.74609375 30.2724609375 971.74609375 150.126953125 c 0
 971.74609375 269.981445312 873.727539062 368 753.873046875 368 c 0
753.873046875 288 m 0
 830.4921875 288 891.74609375 226.74609375 891.74609375 150.126953125 c 0
 891.74609375 73.5078125 830.4921875 12.25390625 753.873046875 12.25390625 c 0
 677.25390625 12.25390625 615.998046875 73.5078125 615.998046875 150.126953125 c 0
 615.998046875 226.74609375 677.25390625 288 753.873046875 288 c 0
270.126953125 851.74609375 m 0
 150.272460938 851.74609375 52.251953125 753.727539062 52.251953125 633.873046875 c 0
 52.251953125 514.018554688 150.272460938 416 270.126953125 416 c 0
 389.981445312 416 488 514.018554688 488 633.873046875 c 0
 488 753.727539062 389.981445312 851.74609375 270.126953125 851.74609375 c 0
270.126953125 771.74609375 m 0
 346.74609375 771.74609375 408 710.4921875 408 633.873046875 c 0
 408 557.25390625 346.74609375 496 270.126953125 496 c 0
 193.5078125 496 132.251953125 557.25390625 132.251953125 633.873046875 c 0
 132.251953125 710.4921875 193.5078125 771.74609375 270.126953125 771.74609375 c 0
EndSplineSet
Validated: 524297
Ligature2: "'liga' Standard Ligatures in Latin lookup 0 subtable" s m s
EndChar

StartChar: smsa
Encoding: 68 -1 68
Width: 1024
VWidth: 904
Flags: W
HStem: -67.7461 80<132.381 157.109 383.143 407.871> 288 80<132.381 157.109 383.143 407.871> 416 80<195.504 344.749> 771.746 80<195.504 344.749>
VStem: 52.252 80<12.3823 37.1104 263.144 287.872 559.251 708.495> 407.999 80<12.3823 37.1104 263.144 287.872 559.251 708.495> 536 80<75.6396 224.614> 891.748 80<75.6396 224.614>
AnchorPoint: "accent" 0 -120 basechar 0
LayerCount: 2
Fore
SplineSet
753.875 368 m 0
 634.020507812 368 536 269.981445312 536 150.126953125 c 0
 536 30.2724609375 634.020507812 -67.74609375 753.875 -67.74609375 c 0
 873.729492188 -67.74609375 971.748046875 30.2724609375 971.748046875 150.126953125 c 0
 971.748046875 269.981445312 873.729492188 368 753.875 368 c 0
713.875 282.173828125 m 1
 713.875 18.080078125 l 1
 657.0078125 35.068359375 616 87.4443359375 616 150.126953125 c 0
 616 212.809570312 657.0078125 265.185546875 713.875 282.173828125 c 1
793.875 282.173828125 m 1
 850.7421875 265.185546875 891.748046875 212.809570312 891.748046875 150.126953125 c 0
 891.748046875 87.4443359375 850.7421875 35.068359375 793.875 18.080078125 c 1
 793.875 282.173828125 l 1
121.493164062 368 m 2
 83.826171875 368 52.2529296875 336.426757812 52.2529296875 298.759765625 c 2
 52.2529296875 1.4921875 l 2
 52.2529296875 -36.1748046875 83.826171875 -67.74609375 121.493164062 -67.74609375 c 2
 418.760742188 -67.74609375 l 2
 456.427734375 -67.74609375 487.999023438 -36.1748046875 487.999023438 1.4921875 c 2
 487.999023438 298.759765625 l 2
 487.999023438 336.426757812 456.427734375 368 418.760742188 368 c 2
 121.493164062 368 l 2
157.109375 288 m 2
 383.142578125 288 l 2
 396.861328125 288 407.999023438 276.862304688 407.999023438 263.143554688 c 0
 407.999023438 37.1103515625 l 2
 407.999023438 23.3916015625 396.861328125 12.25390625 383.142578125 12.25390625 c 0
 157.109375 12.25390625 l 2
 143.390625 12.25390625 132.252929688 23.3916015625 132.252929688 37.1103515625 c 0
 132.252929688 263.143554688 l 2
 132.252929688 276.862304688 143.390625 288 157.109375 288 c 2
270.126953125 851.74609375 m 0
 150.272460938 851.74609375 52.251953125 753.727539062 52.251953125 633.873046875 c 0
 52.251953125 514.018554688 150.272460938 416 270.126953125 416 c 0
 389.981445312 416 488 514.018554688 488 633.873046875 c 0
 488 753.727539062 389.981445312 851.74609375 270.126953125 851.74609375 c 0
270.126953125 771.74609375 m 0
 346.74609375 771.74609375 408 710.4921875 408 633.873046875 c 0
 408 557.25390625 346.74609375 496 270.126953125 496 c 0
 193.5078125 496 132.251953125 557.25390625 132.251953125 633.873046875 c 0
 132.251953125 710.4921875 193.5078125 771.74609375 270.126953125 771.74609375 c 0
EndSplineSet
Validated: 524297
Ligature2: "'liga' Standard Ligatures in Latin lookup 0 subtable" s m s a
EndChar

StartChar: smsi
Encoding: 69 -1 69
Width: 1024
VWidth: 904
Flags: W
HStem: -67.7461 80<132.381 157.109 383.143 407.871> 288.502 79.498<132.453 157.109 383.143 407.799 679.374 818.258> 416 80<195.504 344.749> 771.746 80<195.504 344.749>
VStem: 52.252 80<12.3823 37.1104 263.144 287.872 559.251 708.495> 407.999 80<12.3823 37.1104 263.144 287.872 559.251 708.495>
AnchorPoint: "accent" 0 -120 basechar 0
LayerCount: 2
Fore
SplineSet
753.873046875 368 m 0
 698.03125 368 642.1875 346.8125 599.8125 304.4375 c 0
 515.063476562 219.6875 515.063476562 81.068359375 599.8125 -3.681640625 c 0
 684.5625 -88.431640625 823.182617188 -88.431640625 907.931640625 -3.681640625 c 0
 992.681640625 81.068359375 992.681640625 219.6875 907.931640625 304.4375 c 0
 865.556640625 346.8125 809.715820312 368 753.873046875 368 c 0
753.873046875 288.501953125 m 0
 776.267578125 288.501953125 798.653320312 282.997070312 818.958984375 272.033203125 c 1
 632.216796875 85.291015625 l 1
 604.01953125 137.514648438 612.05859375 203.546875 656.380859375 247.869140625 c 0
 683.469726562 274.958007812 718.671875 288.501953125 753.873046875 288.501953125 c 0
875.52734375 215.46484375 m 1
 903.7265625 163.241210938 895.686523438 97.2099609375 851.36328125 52.88671875 c 0
 807.040039062 8.5634765625 741.008789062 0.5234375 688.78515625 28.72265625 c 1
 875.52734375 215.46484375 l 1
121.493164062 368 m 2
 83.826171875 368 52.2529296875 336.426757812 52.2529296875 298.759765625 c 2
 52.2529296875 1.4921875 l 2
 52.2529296875 -36.1748046875 83.826171875 -67.74609375 121.493164062 -67.74609375 c 2
 418.760742188 -67.74609375 l 2
 456.427734375 -67.74609375 487.999023438 -36.1748046875 487.999023438 1.4921875 c 2
 487.999023438 298.759765625 l 2
 487.999023438 336.426757812 456.427734375 368 418.760742188 368 c 2
 121.493164062 368 l 2
157.109375 288 m 2
 383.142578125 288 l 2
 396.861328125 288 407.999023438 276.862304688 407.999023438 263.143554688 c 0
 407.999023438 37.1103515625 l 2
 407.999023438 23.3916015625 396.861328125 12.25390625 383.142578125 12.25390625 c 0
 157.109375 12.25390625 l 2
 143.390625 12.25390625 132.252929688 23.3916015625 132.252929688 37.1103515625 c 0
 132.252929688 263.143554688 l 2
 132.252929688 276.862304688 143.390625 288 157.109375 288 c 2
270.126953125 851.74609375 m 0
 150.272460938 851.74609375 52.251953125 753.727539062 52.251953125 633.873046875 c 0
 52.251953125 514.018554688 150.272460938 416 270.126953125 416 c 0
 389.981445312 416 488 514.018554688 488 633.873046875 c 0
 488 753.727539062 389.981445312 851.74609375 270.126953125 851.74609375 c 0
270.126953125 771.74609375 m 0
 346.74609375 771.74609375 408 710.4921875 408 633.873046875 c 0
 408 557.25390625 346.74609375 496 270.126953125 496 c 0
 193.5078125 496 132.251953125 557.25390625 132.251953125 633.873046875 c 0
 132.251953125 710.4921875 193.5078125 771.74609375 270.126953125 771.74609375 c 0
EndSplineSet
Validated: 524329
Ligature2: "'liga' Standard Ligatures in Latin lookup 0 subtable" s m s i
EndChar

StartChar: smsu
Encoding: 70 -1 70
Width: 1024
VWidth: 904
Flags: W
HStem: -67.748 80<132.381 157.109 383.143 407.871 679.386 828.36> 288 80<132.381 157.109 383.143 407.871 679.386 828.36> 416 80<195.504 344.749> 771.746 80<195.504 344.749>
VStem: 52.252 80<12.3823 37.1104 263.144 287.872 559.251 708.495> 407.999 80<12.3823 37.1104 263.144 287.872 559.251 708.495>
AnchorPoint: "accent" 0 -120 basechar 0
LayerCount: 2
Fore
SplineSet
753.873046875 368 m 0
 634.01953125 368 536 269.981445312 536 150.126953125 c 0
 536 30.2724609375 634.01953125 -67.748046875 753.873046875 -67.748046875 c 0
 873.727539062 -67.748046875 971.74609375 30.2724609375 971.74609375 150.126953125 c 0
 971.74609375 269.981445312 873.727539062 368 753.873046875 368 c 0
753.873046875 288 m 0
 816.555664062 288 868.931640625 246.994140625 885.919921875 190.126953125 c 1
 621.826171875 190.126953125 l 1
 638.814453125 246.994140625 691.19140625 288 753.873046875 288 c 0
621.826171875 110.126953125 m 1
 885.919921875 110.126953125 l 1
 868.931640625 53.259765625 816.555664062 12.251953125 753.873046875 12.251953125 c 0
 691.19140625 12.251953125 638.814453125 53.259765625 621.826171875 110.126953125 c 1
121.493164062 368 m 2
 83.826171875 368 52.2529296875 336.426757812 52.2529296875 298.759765625 c 2
 52.2529296875 1.4921875 l 2
 52.2529296875 -36.1748046875 83.826171875 -67.74609375 121.493164062 -67.74609375 c 2
 418.760742188 -67.74609375 l 2
 456.427734375 -67.74609375 487.999023438 -36.1748046875 487.999023438 1.4921875 c 2
 487.999023438 298.759765625 l 2
 487.999023438 336.426757812 456.427734375 368 418.760742188 368 c 2
 121.493164062 368 l 2
157.109375 288 m 2
 383.142578125 288 l 2
 396.861328125 288 407.999023438 276.862304688 407.999023438 263.143554688 c 0
 407.999023438 37.1103515625 l 2
 407.999023438 23.3916015625 396.861328125 12.25390625 383.142578125 12.25390625 c 0
 157.109375 12.25390625 l 2
 143.390625 12.25390625 132.252929688 23.3916015625 132.252929688 37.1103515625 c 0
 132.252929688 263.143554688 l 2
 132.252929688 276.862304688 143.390625 288 157.109375 288 c 2
270.126953125 851.74609375 m 0
 150.272460938 851.74609375 52.251953125 753.727539062 52.251953125 633.873046875 c 0
 52.251953125 514.018554688 150.272460938 416 270.126953125 416 c 0
 389.981445312 416 488 514.018554688 488 633.873046875 c 0
 488 753.727539062 389.981445312 851.74609375 270.126953125 851.74609375 c 0
270.126953125 771.74609375 m 0
 346.74609375 771.74609375 408 710.4921875 408 633.873046875 c 0
 408 557.25390625 346.74609375 496 270.126953125 496 c 0
 193.5078125 496 132.251953125 557.25390625 132.251953125 633.873046875 c 0
 132.251953125 710.4921875 193.5078125 771.74609375 270.126953125 771.74609375 c 0
EndSplineSet
Validated: 524297
Ligature2: "'liga' Standard Ligatures in Latin lookup 0 subtable" s m s u
EndChar

StartChar: smm
Encoding: 71 -1 71
Width: 1024
VWidth: 904
Flags: W
HStem: -67.7461 80<132.381 157.109 383.143 407.871 616.127 640.855 866.889 891.617> 288 80<132.381 157.109 383.143 407.871 616.127 640.855 866.889 891.617> 416 80<195.504 344.749> 771.746 80<195.504 344.749>
VStem: 52.252 80<12.3823 37.1104 263.144 287.872 559.251 708.495> 407.999 80<12.3823 37.1104 263.144 287.872 559.251 708.495> 535.999 80<12.3823 37.1104 263.144 287.872> 891.745 80<12.3823 37.1104 263.144 287.872>
AnchorPoint: "accent" 0 -120 basechar 0
LayerCount: 2
Fore
SplineSet
605.239257812 368 m 2
 567.573242188 368 535.999023438 336.426757812 535.999023438 298.759765625 c 2
 535.999023438 1.4921875 l 2
 535.999023438 -36.1748046875 567.573242188 -67.74609375 605.239257812 -67.74609375 c 2
 902.506835938 -67.74609375 l 2
 940.173828125 -67.74609375 971.745117188 -36.1748046875 971.745117188 1.4921875 c 2
 971.745117188 298.759765625 l 2
 971.745117188 336.426757812 940.173828125 368 902.506835938 368 c 2
 605.239257812 368 l 2
640.85546875 288 m 2
 866.888671875 288 l 2
 880.607421875 288 891.745117188 276.862304688 891.745117188 263.143554688 c 0
 891.745117188 37.1103515625 l 2
 891.745117188 23.3916015625 880.607421875 12.25390625 866.888671875 12.25390625 c 0
 640.85546875 12.25390625 l 2
 627.13671875 12.25390625 615.999023438 23.3916015625 615.999023438 37.1103515625 c 0
 615.999023438 263.143554688 l 2
 615.999023438 276.862304688 627.13671875 288 640.85546875 288 c 2
121.493164062 368 m 2
 83.826171875 368 52.2529296875 336.426757812 52.2529296875 298.759765625 c 2
 52.2529296875 1.4921875 l 2
 52.2529296875 -36.1748046875 83.826171875 -67.74609375 121.493164062 -67.74609375 c 2
 418.760742188 -67.74609375 l 2
 456.427734375 -67.74609375 487.999023438 -36.1748046875 487.999023438 1.4921875 c 2
 487.999023438 298.759765625 l 2
 487.999023438 336.426757812 456.427734375 368 418.760742188 368 c 2
 121.493164062 368 l 2
157.109375 288 m 2
 383.142578125 288 l 2
 396.861328125 288 407.999023438 276.862304688 407.999023438 263.143554688 c 0
 407.999023438 37.1103515625 l 2
 407.999023438 23.3916015625 396.861328125 12.25390625 383.142578125 12.25390625 c 0
 157.109375 12.25390625 l 2
 143.390625 12.25390625 132.252929688 23.3916015625 132.252929688 37.1103515625 c 0
 132.252929688 263.143554688 l 2
 132.252929688 276.862304688 143.390625 288 157.109375 288 c 2
270.126953125 851.74609375 m 0
 150.272460938 851.74609375 52.251953125 753.727539062 52.251953125 633.873046875 c 0
 52.251953125 514.018554688 150.272460938 416 270.126953125 416 c 0
 389.981445312 416 488 514.018554688 488 633.873046875 c 0
 488 753.727539062 389.981445312 851.74609375 270.126953125 851.74609375 c 0
270.126953125 771.74609375 m 0
 346.74609375 771.74609375 408 710.4921875 408 633.873046875 c 0
 408 557.25390625 346.74609375 496 270.126953125 496 c 0
 193.5078125 496 132.251953125 557.25390625 132.251953125 633.873046875 c 0
 132.251953125 710.4921875 193.5078125 771.74609375 270.126953125 771.74609375 c 0
EndSplineSet
Validated: 524297
Ligature2: "'liga' Standard Ligatures in Latin lookup 0 subtable" s m m
EndChar

StartChar: smma
Encoding: 72 -1 72
Width: 1024
VWidth: 904
Flags: W
HStem: -67.7461 80<132.381 157.109 383.143 407.871 616.128 640.854 866.888 891.617> 288 80<132.381 157.109 383.143 407.871 616.127 640.854 866.888 891.617> 416.001 80<195.504 344.749> 771.747 80<195.504 344.749>
VStem: 52.252 80<12.3823 37.1104 263.144 287.872 559.252 708.496> 407.999 80<12.3823 37.1104 263.144 287.872 559.252 708.496> 535.999 80<12.3823 37.1094 263.143 287.871> 891.745 80<12.3823 37.1094 37.2732 287.872>
AnchorPoint: "accent" 0 -120 basechar 0
LayerCount: 2
Fore
SplineSet
605.239257812 368 m 2
 567.573242188 368 535.999023438 336.426757812 535.999023438 298.759765625 c 2
 535.999023438 1.4921875 l 2
 535.999023438 -36.1748046875 567.573242188 -67.74609375 605.239257812 -67.74609375 c 2
 902.506835938 -67.74609375 l 2
 940.173828125 -67.74609375 971.745117188 -36.1748046875 971.745117188 1.4921875 c 2
 971.745117188 298.759765625 l 2
 971.745117188 336.426757812 940.173828125 368 902.506835938 368 c 2
 605.239257812 368 l 2
640.854492188 288 m 2
 713.872070312 288 l 1
 713.872070312 12.25390625 l 1
 640.854492188 12.25390625 l 2
 627.13671875 12.25390625 616 23.3916015625 615.999023438 37.109375 c 1
 615.999023438 263.142578125 l 2
 615.999023438 276.861328125 627.13671875 287.999023438 640.854492188 288 c 2
793.872070312 288 m 1
 866.887695312 288 l 2
 880.606445312 288 891.745117188 276.861328125 891.745117188 263.142578125 c 1
 891.744140625 263.143554688 891.745117188 37.109375 891.745117188 37.109375 c 2
 891.745117188 23.3916015625 880.606445312 12.25390625 866.887695312 12.25390625 c 1
 866.888671875 12.25390625 793.872070312 12.25390625 793.872070312 12.25390625 c 1
 793.872070312 288 l 1
121.493164062 368 m 2
 83.826171875 368 52.2529296875 336.426757812 52.2529296875 298.759765625 c 2
 52.2529296875 1.4921875 l 2
 52.2529296875 -36.1748046875 83.826171875 -67.74609375 121.493164062 -67.74609375 c 2
 418.760742188 -67.74609375 l 2
 456.427734375 -67.74609375 487.999023438 -36.1748046875 487.999023438 1.4921875 c 2
 487.999023438 298.759765625 l 2
 487.999023438 336.426757812 456.427734375 368 418.760742188 368 c 2
 121.493164062 368 l 2
157.109375 288 m 2
 383.142578125 288 l 2
 396.861328125 288 407.999023438 276.862304688 407.999023438 263.143554688 c 0
 407.999023438 37.1103515625 l 2
 407.999023438 23.3916015625 396.861328125 12.25390625 383.142578125 12.25390625 c 0
 157.109375 12.25390625 l 2
 143.390625 12.25390625 132.252929688 23.3916015625 132.252929688 37.1103515625 c 0
 132.252929688 263.143554688 l 2
 132.252929688 276.862304688 143.390625 288 157.109375 288 c 2
270.126953125 851.747070312 m 0
 150.272460938 851.747070312 52.251953125 753.727539062 52.251953125 633.874023438 c 0
 52.251953125 514.01953125 150.272460938 416.000976562 270.126953125 416.000976562 c 0
 389.981445312 416.000976562 488 514.01953125 488 633.874023438 c 0
 488 753.727539062 389.981445312 851.747070312 270.126953125 851.747070312 c 0
270.126953125 771.747070312 m 0
 346.74609375 771.747070312 408 710.493164062 408 633.874023438 c 0
 408 557.254882812 346.74609375 496.000976562 270.126953125 496.000976562 c 0
 193.5078125 496.000976562 132.251953125 557.254882812 132.251953125 633.874023438 c 0
 132.251953125 710.493164062 193.5078125 771.747070312 270.126953125 771.747070312 c 0
EndSplineSet
Validated: 524329
Ligature2: "'liga' Standard Ligatures in Latin lookup 0 subtable" s m m a
EndChar

StartChar: smmi
Encoding: 73 -1 73
Width: 1024
VWidth: 904
Flags: W
HStem: -67.7461 80<132.381 157.109 383.143 407.871 866.89 891.617> 288 80<132.381 157.109 383.143 407.871 616.127 640.856> 416 80<195.504 344.749> 771.746 80<195.504 344.749>
VStem: 52.252 80<12.3823 37.1104 263.144 287.872 559.251 708.495> 407.999 80<12.3823 37.1104 263.144 287.872 559.251 708.495>
AnchorPoint: "accent" 0 -120 basechar 0
LayerCount: 2
Fore
SplineSet
605.239257812 368 m 2
 567.573242188 368 535.999023438 336.426757812 535.999023438 298.759765625 c 2
 535.999023438 1.4921875 l 2
 535.999023438 -36.1748046875 567.573242188 -67.74609375 605.239257812 -67.74609375 c 2
 902.506835938 -67.74609375 l 2
 940.173828125 -67.74609375 971.745117188 -36.1748046875 971.745117188 1.4921875 c 2
 971.745117188 298.759765625 l 2
 971.745117188 336.426757812 940.173828125 368 902.506835938 368 c 2
 605.239257812 368 l 2
640.856445312 288 m 2
 835.176757812 288 l 1
 615.999023438 68.822265625 l 1
 615.999023438 263.142578125 l 2
 615.999023438 276.861328125 627.137695312 288 640.856445312 288 c 2
891.745117188 231.4296875 m 1
 891.745117188 37.109375 l 2
 891.745117188 23.3916015625 880.607421875 12.25390625 866.889648438 12.25390625 c 1
 672.569335938 12.25390625 l 1
 891.745117188 231.4296875 l 1
121.493164062 368 m 2
 83.826171875 368 52.2529296875 336.42578125 52.2529296875 298.759765625 c 2
 52.2529296875 1.4921875 l 2
 52.2529296875 -36.1748046875 83.826171875 -67.74609375 121.493164062 -67.74609375 c 2
 418.760742188 -67.74609375 l 2
 456.427734375 -67.74609375 487.999023438 -36.1748046875 487.999023438 1.4921875 c 2
 487.999023438 298.759765625 l 2
 487.999023438 336.42578125 456.427734375 368 418.760742188 368 c 2
 121.493164062 368 l 2
157.109375 288 m 2
 383.142578125 288 l 2
 396.861328125 288 407.999023438 276.862304688 407.999023438 263.143554688 c 0
 407.999023438 37.1103515625 l 2
 407.999023438 23.3916015625 396.861328125 12.25390625 383.142578125 12.25390625 c 0
 157.109375 12.25390625 l 2
 143.390625 12.25390625 132.252929688 23.3916015625 132.252929688 37.1103515625 c 0
 132.252929688 263.143554688 l 2
 132.252929688 276.862304688 143.390625 288 157.109375 288 c 2
270.126953125 851.74609375 m 0
 150.272460938 851.74609375 52.251953125 753.727539062 52.251953125 633.873046875 c 0
 52.251953125 514.018554688 150.272460938 416 270.126953125 416 c 0
 389.981445312 416 488 514.018554688 488 633.873046875 c 0
 488 753.727539062 389.981445312 851.74609375 270.126953125 851.74609375 c 0
270.126953125 771.74609375 m 0
 346.74609375 771.74609375 408 710.4921875 408 633.873046875 c 0
 408 557.25390625 346.74609375 496 270.126953125 496 c 0
 193.5078125 496 132.251953125 557.25390625 132.251953125 633.873046875 c 0
 132.251953125 710.4921875 193.5078125 771.74609375 270.126953125 771.74609375 c 0
EndSplineSet
Validated: 524297
Ligature2: "'liga' Standard Ligatures in Latin lookup 0 subtable" s m m i
EndChar

StartChar: smmu
Encoding: 74 -1 74
Width: 1024
VWidth: 904
Flags: W
HStem: -67.7461 80<132.381 157.109 383.143 407.871 616.13 640.858 866.892 891.619> 288 80<132.381 157.109 383.143 407.871 616.129 640.858 866.892 891.619> 416 80<195.504 344.749> 771.746 80<195.504 344.749>
VStem: 52.252 80<12.3823 37.1104 263.144 287.872 559.251 708.495> 407.999 80<12.3823 37.1104 263.144 287.872 559.251 708.495> 536.001 80<12.3823 37.1094 263.143 287.872> 891.747 80<12.3823 37.1094 263.143 287.871>
AnchorPoint: "accent" 0 -120 basechar 0
LayerCount: 2
Fore
SplineSet
121.493164062 368 m 2
 83.826171875 368 52.2529296875 336.42578125 52.2529296875 298.759765625 c 2
 52.2529296875 1.4921875 l 2
 52.2529296875 -36.1748046875 83.826171875 -67.74609375 121.493164062 -67.74609375 c 2
 418.760742188 -67.74609375 l 2
 456.427734375 -67.74609375 487.999023438 -36.1748046875 487.999023438 1.4921875 c 2
 487.999023438 298.759765625 l 2
 487.999023438 336.42578125 456.427734375 368 418.760742188 368 c 2
 121.493164062 368 l 2
157.109375 288 m 2
 383.142578125 288 l 2
 396.861328125 288 407.999023438 276.862304688 407.999023438 263.143554688 c 0
 407.999023438 37.1103515625 l 2
 407.999023438 23.3916015625 396.861328125 12.25390625 383.142578125 12.25390625 c 0
 157.109375 12.25390625 l 2
 143.390625 12.25390625 132.252929688 23.3916015625 132.252929688 37.1103515625 c 0
 132.252929688 263.143554688 l 2
 132.252929688 276.862304688 143.390625 288 157.109375 288 c 2
270.126953125 851.74609375 m 0
 150.272460938 851.74609375 52.251953125 753.727539062 52.251953125 633.873046875 c 0
 52.251953125 514.018554688 150.272460938 416 270.126953125 416 c 0
 389.981445312 416 488 514.018554688 488 633.873046875 c 0
 488 753.727539062 389.981445312 851.74609375 270.126953125 851.74609375 c 0
270.126953125 771.74609375 m 0
 346.74609375 771.74609375 408 710.4921875 408 633.873046875 c 0
 408 557.25390625 346.74609375 496 270.126953125 496 c 0
 193.5078125 496 132.251953125 557.25390625 132.251953125 633.873046875 c 0
 132.251953125 710.4921875 193.5078125 771.74609375 270.126953125 771.74609375 c 0
605.239257812 368 m 2
 567.573242188 368 536.000976562 336.426757812 536.000976562 298.759765625 c 2
 536.000976562 1.4921875 l 2
 536.000976562 -36.1748046875 567.573242188 -67.74609375 605.239257812 -67.74609375 c 2
 902.506835938 -67.74609375 l 2
 940.173828125 -67.74609375 971.747070312 -36.1748046875 971.747070312 1.4921875 c 2
 971.747070312 298.759765625 l 2
 971.747070312 336.426757812 940.173828125 368 902.506835938 368 c 2
 605.239257812 368 l 2
640.858398438 288 m 2
 866.891601562 288 l 2
 880.610351562 287.999023438 891.747070312 276.861328125 891.747070312 263.142578125 c 1
 891.747070312 263.143554688 891.747070312 190.126953125 891.747070312 190.126953125 c 1
 616.000976562 190.126953125 l 1
 616.000976562 263.142578125 l 2
 616.000976562 276.861328125 627.139648438 288 640.858398438 288 c 2
616.000976562 110.126953125 m 1
 891.747070312 110.126953125 l 1
 891.747070312 37.109375 l 2
 891.747070312 23.3916015625 880.609375 12.25390625 866.891601562 12.25390625 c 1
 640.858398438 12.25390625 l 2
 627.140625 12.25390625 616.001953125 23.3916015625 616.000976562 37.109375 c 1
 616.001953125 37.109375 616.000976562 110.126953125 616.000976562 110.126953125 c 1
EndSplineSet
Validated: 524329
Ligature2: "'liga' Standard Ligatures in Latin lookup 0 subtable" s m m u
EndChar

StartChar: smt
Encoding: 75 10922 75
Width: 1024
VWidth: 904
Flags: W
HStem: -67.7461 80<132.381 157.109 383.143 407.871> -45.9082 80.4668<644.652 753.504> 288 80<132.381 157.109 383.143 407.871> 416 80<195.504 344.749> 771.746 80<195.504 344.749>
VStem: 52.252 80<12.3823 37.1104 263.144 287.872 559.251 708.495> 407.999 80<12.3823 37.1104 263.144 287.872 559.251 708.495>
AnchorPoint: "accent" 0 -120 basechar 0
LayerCount: 2
Fore
SplineSet
121.493164062 368 m 2xbe
 83.826171875 368 52.2529296875 336.42578125 52.2529296875 298.759765625 c 2
 52.2529296875 1.4921875 l 2
 52.2529296875 -36.1748046875 83.826171875 -67.74609375 121.493164062 -67.74609375 c 2
 418.760742188 -67.74609375 l 2
 456.427734375 -67.74609375 487.999023438 -36.1748046875 487.999023438 1.4921875 c 2
 487.999023438 298.759765625 l 2
 487.999023438 336.42578125 456.427734375 368 418.760742188 368 c 2
 121.493164062 368 l 2xbe
157.109375 288 m 2
 383.142578125 288 l 2
 396.861328125 288 407.999023438 276.862304688 407.999023438 263.143554688 c 0
 407.999023438 37.1103515625 l 2
 407.999023438 23.3916015625 396.861328125 12.25390625 383.142578125 12.25390625 c 0
 157.109375 12.25390625 l 2
 143.390625 12.25390625 132.252929688 23.3916015625 132.252929688 37.1103515625 c 0
 132.252929688 263.143554688 l 2
 132.252929688 276.862304688 143.390625 288 157.109375 288 c 2
753.595703125 346.162109375 m 0
 738.874023438 346.16015625 726.03125 338.091796875 719.155273438 326.048828125 c 0
 719.129882812 326.005859375 630.23828125 170.23828125 630.23828125 170.23828125 c 1
 541.32421875 14.4306640625 l 2
 537.959960938 8.533203125 536.03125 1.693359375 536.025390625 -5.5986328125 c 0
 536.006835938 -27.8037109375 553.814453125 -45.8466796875 575.767578125 -45.865234375 c 0
 575.778320312 -45.865234375 575.762695312 -45.908203125 575.7734375 -45.908203125 c 0x7e
 575.798828125 -45.865234375 753.6328125 -45.88671875 753.6328125 -45.88671875 c 1
 931.491210938 -45.8671875 l 2
 953.422851562 -45.8603515625 971.236328125 -27.857421875 971.254882812 -5.66796875 c 0
 971.26171875 1.650390625 969.306640625 8.560546875 965.9296875 14.478515625 c 1
 965.954101562 14.435546875 876.987304688 170.266601562 876.987304688 170.266601562 c 1
 788.041992188 326.0546875 l 2
 781.170898438 338.084960938 768.3203125 346.192382812 753.608398438 346.205078125 c 0
 753.595703125 346.205078125 753.608398438 346.162109375 753.595703125 346.162109375 c 0
753.606445312 225.479492188 m 1
 808.102539062 130.03125 l 1
 862.595703125 34.5830078125 l 1
 753.624023438 34.5693359375 l 1
 644.65234375 34.55859375 l 1
 699.130859375 130.017578125 l 1
 753.606445312 225.479492188 l 1
270.126953125 851.74609375 m 0
 150.272460938 851.74609375 52.251953125 753.727539062 52.251953125 633.873046875 c 0
 52.251953125 514.018554688 150.272460938 416 270.126953125 416 c 0
 389.981445312 416 488 514.018554688 488 633.873046875 c 0
 488 753.727539062 389.981445312 851.74609375 270.126953125 851.74609375 c 0
270.126953125 771.74609375 m 0
 346.74609375 771.74609375 408 710.4921875 408 633.873046875 c 0
 408 557.25390625 346.74609375 496 270.126953125 496 c 0
 193.5078125 496 132.251953125 557.25390625 132.251953125 633.873046875 c 0
 132.251953125 710.4921875 193.5078125 771.74609375 270.126953125 771.74609375 c 0
EndSplineSet
Validated: 524329
Ligature2: "'liga' Standard Ligatures in Latin lookup 0 subtable" s m t
EndChar

StartChar: smta
Encoding: 76 -1 76
Width: 1024
VWidth: 904
Flags: W
HStem: -67.7461 80<132.381 157.109 383.143 407.871> -45.9082 80.4688<644.898 713.875> 288 80<132.381 157.109 383.143 407.871> 416 80<195.504 344.749> 771.746 80<195.504 344.749>
VStem: 52.252 80<12.3823 37.1104 263.144 287.872 559.251 708.495> 407.999 80<12.3823 37.1104 263.144 287.872 559.251 708.495>
AnchorPoint: "accent" 0 -120 basechar 0
LayerCount: 2
Fore
SplineSet
121.493164062 368 m 2xbe
 83.826171875 368 52.2529296875 336.42578125 52.2529296875 298.759765625 c 2
 52.2529296875 1.4921875 l 2
 52.2529296875 -36.1748046875 83.826171875 -67.74609375 121.493164062 -67.74609375 c 2
 418.760742188 -67.74609375 l 2
 456.427734375 -67.74609375 487.999023438 -36.1748046875 487.999023438 1.4921875 c 2
 487.999023438 298.759765625 l 2
 487.999023438 336.42578125 456.427734375 368 418.760742188 368 c 2
 121.493164062 368 l 2xbe
157.109375 288 m 2
 383.142578125 288 l 2
 396.861328125 288 407.999023438 276.862304688 407.999023438 263.143554688 c 0
 407.999023438 37.1103515625 l 2
 407.999023438 23.3916015625 396.861328125 12.25390625 383.142578125 12.25390625 c 0
 157.109375 12.25390625 l 2
 143.390625 12.25390625 132.252929688 23.3916015625 132.252929688 37.1103515625 c 0
 132.252929688 263.143554688 l 2
 132.252929688 276.862304688 143.390625 288 157.109375 288 c 2
753.841796875 346.162109375 m 0
 739.119140625 346.16015625 726.276367188 338.091796875 719.400390625 326.048828125 c 0
 719.375 326.005859375 630.484375 170.240234375 630.484375 170.240234375 c 1
 541.569335938 14.431640625 l 2
 538.205078125 8.533203125 536.27734375 1.693359375 536.271484375 -5.5986328125 c 0
 536.251953125 -27.8037109375 554.060546875 -45.8466796875 576.013671875 -45.865234375 c 0
 576.024414062 -45.865234375 576.008789062 -45.908203125 576.01953125 -45.908203125 c 0x7e
 576.044921875 -45.865234375 753.87890625 -45.8857421875 753.87890625 -45.8857421875 c 1
 931.73828125 -45.865234375 l 2
 953.668945312 -45.857421875 971.481445312 -27.85546875 971.5 -5.666015625 c 0
 971.505859375 1.6513671875 969.551757812 8.560546875 966.17578125 14.478515625 c 1
 966.200195312 14.435546875 877.234375 170.267578125 877.234375 170.267578125 c 1
 788.2890625 326.0546875 l 2
 781.41796875 338.084960938 768.567382812 346.192382812 753.854492188 346.205078125 c 0
 753.841796875 346.205078125 753.854492188 346.162109375 753.841796875 346.162109375 c 0
713.875 155.42578125 m 1
 713.875 34.56640625 l 1
 644.8984375 34.560546875 l 1
 699.376953125 130.01953125 l 1
 713.875 155.42578125 l 1
793.875 155.3828125 m 1
 808.349609375 130.03125 l 1
 862.841796875 34.583984375 l 1
 793.875 34.5751953125 l 1
 793.875 155.3828125 l 1
270.126953125 851.74609375 m 0
 150.272460938 851.74609375 52.251953125 753.727539062 52.251953125 633.873046875 c 0
 52.251953125 514.018554688 150.272460938 416 270.126953125 416 c 0
 389.981445312 416 488 514.018554688 488 633.873046875 c 0
 488 753.727539062 389.981445312 851.74609375 270.126953125 851.74609375 c 0
270.126953125 771.74609375 m 0
 346.74609375 771.74609375 408 710.4921875 408 633.873046875 c 0
 408 557.25390625 346.74609375 496 270.126953125 496 c 0
 193.5078125 496 132.251953125 557.25390625 132.251953125 633.873046875 c 0
 132.251953125 710.4921875 193.5078125 771.74609375 270.126953125 771.74609375 c 0
EndSplineSet
Validated: 524329
Ligature2: "'liga' Standard Ligatures in Latin lookup 0 subtable" s m t a
EndChar

StartChar: smadash
Encoding: 77 -1 77
Width: 1024
VWidth: 904
Flags: W
HStem: -67.7461 80<132.382 157.109 383.143 407.871> 110.127 80<562.412 945.335> 288 80<132.382 157.109 383.143 407.872> 416 80<195.504 344.749> 771.746 80<195.504 344.749>
VStem: 52.252 80<12.3825 37.1094 263.143 287.871 559.251 708.495> 408 80<12.3823 37.1094 37.2732 287.872 559.251 708.495>
AnchorPoint: "accent" 0 -120 basechar 0
LayerCount: 2
Fore
SplineSet
949.698242188 150.126953125 m 0
 949.698242188 127.966796875 931.857421875 110.126953125 909.698242188 110.126953125 c 2
 598.048828125 110.126953125 l 2
 575.888671875 110.126953125 558.048828125 127.966796875 558.048828125 150.126953125 c 0
 558.048828125 172.286132812 575.888671875 190.126953125 598.048828125 190.126953125 c 2
 909.698242188 190.126953125 l 2
 931.857421875 190.126953125 949.698242188 172.286132812 949.698242188 150.126953125 c 0
121.494140625 368 m 2
 83.8271484375 368 52.25390625 336.426757812 52.25390625 298.759765625 c 2
 52.25390625 1.4921875 l 2
 52.25390625 -36.1748046875 83.8271484375 -67.74609375 121.494140625 -67.74609375 c 2
 418.76171875 -67.74609375 l 2
 456.428710938 -67.74609375 488 -36.1748046875 488 1.4921875 c 2
 488 298.759765625 l 2
 488 336.426757812 456.428710938 368 418.76171875 368 c 2
 121.494140625 368 l 2
157.109375 288 m 2
 230.126953125 288 l 1
 230.126953125 12.25390625 l 1
 157.109375 12.25390625 l 2
 143.391601562 12.2548828125 132.254882812 23.3916015625 132.25390625 37.109375 c 1
 132.25390625 263.142578125 l 2
 132.25390625 276.861328125 143.391601562 287.999023438 157.109375 288 c 2
310.126953125 288 m 1
 383.142578125 288 l 2
 396.861328125 288 408 276.861328125 408 263.142578125 c 1
 407.999023438 263.143554688 408 37.109375 408 37.109375 c 2
 407.999023438 23.3916015625 396.861328125 12.25390625 383.142578125 12.25390625 c 1
 383.143554688 12.25390625 310.126953125 12.25390625 310.126953125 12.25390625 c 1
 310.126953125 288 l 1
270.126953125 851.74609375 m 0
 150.272460938 851.74609375 52.251953125 753.727539062 52.251953125 633.873046875 c 0
 52.251953125 514.018554688 150.272460938 416 270.126953125 416 c 0
 389.981445312 416 488 514.018554688 488 633.873046875 c 0
 488 753.727539062 389.981445312 851.74609375 270.126953125 851.74609375 c 0
270.126953125 771.74609375 m 0
 346.74609375 771.74609375 408 710.4921875 408 633.873046875 c 0
 408 557.25390625 346.74609375 496 270.126953125 496 c 0
 193.5078125 496 132.251953125 557.25390625 132.251953125 633.873046875 c 0
 132.251953125 710.4921875 193.5078125 771.74609375 270.126953125 771.74609375 c 0
EndSplineSet
Validated: 524329
Ligature2: "'liga' Standard Ligatures in Latin lookup 0 subtable" s m a dash
EndChar

StartChar: smas
Encoding: 78 -1 78
Width: 1024
VWidth: 904
Flags: W
HStem: -67.7461 80<132.382 157.109 383.143 407.871 679.25 828.495> 288 80<132.382 157.109 383.143 407.872 679.25 828.495> 416 80<195.504 344.749> 771.746 80<195.504 344.749>
VStem: 52.252 80<12.3823 37.1094 263.143 287.871 559.251 708.495> 408 80<12.3823 37.1094 37.2732 287.872 559.251 708.495> 535.998 80<75.5048 224.749> 891.746 80<75.5048 224.749>
AnchorPoint: "accent" 0 -120 basechar 0
LayerCount: 2
Fore
SplineSet
121.494140625 368 m 2
 83.8271484375 368 52.25390625 336.42578125 52.25390625 298.759765625 c 2
 52.25390625 1.4921875 l 2
 52.25390625 -36.1748046875 83.8271484375 -67.74609375 121.494140625 -67.74609375 c 2
 418.76171875 -67.74609375 l 2
 456.428710938 -67.74609375 488 -36.1748046875 488 1.4921875 c 2
 488 298.759765625 l 2
 488 336.42578125 456.428710938 368 418.76171875 368 c 2
 121.494140625 368 l 2
157.109375 288 m 2
 230.126953125 288 l 1
 230.126953125 12.25390625 l 1
 157.109375 12.25390625 l 2
 143.391601562 12.25390625 132.254882812 23.3916015625 132.25390625 37.109375 c 1
 132.25390625 263.142578125 l 2
 132.25390625 276.860351562 143.391601562 287.999023438 157.109375 288 c 2
310.126953125 288 m 1
 383.142578125 288 l 2
 396.861328125 288 408 276.861328125 408 263.142578125 c 1
 407.999023438 263.143554688 408 37.109375 408 37.109375 c 2
 407.999023438 23.390625 396.861328125 12.25390625 383.142578125 12.25390625 c 1
 383.143554688 12.25390625 310.126953125 12.25390625 310.126953125 12.25390625 c 1
 310.126953125 288 l 1
753.873046875 368 m 0
 634.018554688 368 535.998046875 269.981445312 535.998046875 150.126953125 c 0
 535.998046875 30.2724609375 634.018554688 -67.74609375 753.873046875 -67.74609375 c 0
 873.727539062 -67.74609375 971.74609375 30.2724609375 971.74609375 150.126953125 c 0
 971.74609375 269.981445312 873.727539062 368 753.873046875 368 c 0
753.873046875 288 m 0
 830.4921875 288 891.74609375 226.74609375 891.74609375 150.126953125 c 0
 891.74609375 73.5078125 830.4921875 12.25390625 753.873046875 12.25390625 c 0
 677.25390625 12.25390625 615.998046875 73.5078125 615.998046875 150.126953125 c 0
 615.998046875 226.74609375 677.25390625 288 753.873046875 288 c 0
270.126953125 851.74609375 m 0
 150.272460938 851.74609375 52.251953125 753.727539062 52.251953125 633.873046875 c 0
 52.251953125 514.018554688 150.272460938 416 270.126953125 416 c 0
 389.981445312 416 488 514.018554688 488 633.873046875 c 0
 488 753.727539062 389.981445312 851.74609375 270.126953125 851.74609375 c 0
270.126953125 771.74609375 m 0
 346.74609375 771.74609375 408 710.4921875 408 633.873046875 c 0
 408 557.25390625 346.74609375 496 270.126953125 496 c 0
 193.5078125 496 132.251953125 557.25390625 132.251953125 633.873046875 c 0
 132.251953125 710.4921875 193.5078125 771.74609375 270.126953125 771.74609375 c 0
EndSplineSet
Validated: 524329
Ligature2: "'liga' Standard Ligatures in Latin lookup 0 subtable" s m a s
EndChar

